<?xml version="1.0" encoding="utf-8"?>
<!-- Generator: Adobe Illustrator 18.0.0, SVG Export Plug-In . SVG Version: 6.00 Build 0)  -->
<!DOCTYPE svg PUBLIC "-//W3C//DTD SVG 1.0//EN" "http://www.w3.org/TR/2001/REC-SVG-20010904/DTD/svg10.dtd">
<svg version="1.0" xmlns="http://www.w3.org/2000/svg" xmlns:xlink="http://www.w3.org/1999/xlink" x="0px" y="0px"
	 viewBox="0 0 63.5 63.5" enable-background="new 0 0 63.5 63.5" xml:space="preserve">
<g id="Layer_5">
</g>
<g id="Layer_1">
	<g>
		<g>
			<path fill="#D2A837" d="M31.8,0C14.2,0,0,14.2,0,31.8s14.2,31.8,31.8,31.8s31.8-14.2,31.8-31.8S49.3,0,31.8,0z M31.8,59.5
				C16.4,59.5,4,47.1,4,31.8S16.4,4,31.8,4s27.8,12.5,27.8,27.8S47.1,59.5,31.8,59.5z"/>
		</g>
	</g>
	<g>
		<path fill="#D4B02A" d="M48.9,34.2c0,1.3-1,2.3-2.3,2.3H36.4v10.1c0,1.3-1,2.3-2.3,2.3h-4.7c-1.3,0-2.3-1-2.3-2.3V36.5H17
			c-1.3,0-2.3-1-2.3-2.3v-4.7c0-1.3,1-2.3,2.3-2.3h10.1V17c0-1.3,1-2.3,2.3-2.3h4.7c1.3,0,2.3,1,2.3,2.3v10.1h10.1
			c1.3,0,2.3,1,2.3,2.3V34.2z"/>
	</g>
</g>
<g id="Layer_4">
</g>
<g id="Layer_3">
</g>
<g id="Layer_2">
</g>
</svg>
