<?xml version="1.0" encoding="utf-8"?>
<!-- Generator: Adobe Illustrator 18.0.0, SVG Export Plug-In . SVG Version: 6.00 Build 0)  -->
<!DOCTYPE svg PUBLIC "-//W3C//DTD SVG 1.0//EN" "http://www.w3.org/TR/2001/REC-SVG-20010904/DTD/svg10.dtd">
<svg version="1.0" xmlns="http://www.w3.org/2000/svg" xmlns:xlink="http://www.w3.org/1999/xlink" x="0px" y="0px"
	 viewBox="0 0 221.8 214.2" enable-background="new 0 0 221.8 214.2" xml:space="preserve">
<g id="Layer_5">
</g>
<g id="Layer_6">
	<rect x="45" y="128.4" fill="#FFFFFF" width="132.7" height="41.3"/>
</g>
<g id="Layer_1">
	<g>
		<g>
			<path fill="#356FA1" d="M78.9,152.3c0,2.6,1.2,3.8,3.5,3.8h2.4v-8.3h-1.1c-1.5,0-2.7,0.4-3.5,1.2
				C79.3,149.8,78.9,150.9,78.9,152.3z"/>
			<path fill="#356FA1" d="M55.6,149c-0.8,0.8-1.2,1.9-1.2,3.3c0,1.3,0.4,2.2,1.1,2.9c0.7,0.7,1.7,1,3,1h2.2v-8.3h-1.6
				C57.6,147.8,56.5,148.2,55.6,149z"/>
			<path fill="#356FA1" d="M-3-3v220.2h226.8V-3H-3z M164.4,140.8c0.3-0.2,0.6-0.4,1-0.4c0.4,0,0.8,0.1,1,0.4
				c0.3,0.3,0.4,0.6,0.4,1.1c0,0.5-0.1,0.9-0.4,1.1c-0.3,0.3-0.6,0.4-1,0.4c-0.4,0-0.7-0.1-1-0.4c-0.3-0.2-0.4-0.6-0.4-1.2
				C164,141.4,164.1,141,164.4,140.8z M81.1,140.8c0.3-0.3,0.6-0.4,1-0.4c0.5,0,0.8,0.1,1,0.4c0.2,0.3,0.4,0.6,0.4,1.1
				s-0.1,0.8-0.4,1.1c-0.2,0.3-0.6,0.4-1,0.4c-0.4,0-0.8-0.1-1-0.4c-0.3-0.3-0.4-0.6-0.4-1.1S80.8,141.1,81.1,140.8z M60.6,139.3
				c0.3-0.3,0.6-0.4,1-0.4c0.5,0,0.8,0.1,1,0.4c0.2,0.3,0.4,0.6,0.4,1.1s-0.1,0.8-0.4,1.1c-0.2,0.3-0.6,0.4-1,0.4
				c-0.4,0-0.8-0.1-1-0.4c-0.3-0.3-0.4-0.6-0.4-1.1S60.3,139.6,60.6,139.3z M56.2,139.3c0.3-0.2,0.6-0.4,1-0.4c0.4,0,0.8,0.1,1,0.4
				c0.3,0.3,0.4,0.6,0.4,1.1c0,0.5-0.1,0.9-0.4,1.1c-0.3,0.3-0.6,0.4-1,0.4c-0.4,0-0.7-0.1-1-0.4c-0.3-0.2-0.4-0.6-0.4-1.2
				C55.8,139.9,56,139.5,56.2,139.3z M86.9,158.1H74.4h-0.3h-8.4h-0.2h-7c-2,0-3.6-0.5-4.7-1.5c-1.1-1-1.7-2.5-1.7-4.3
				c0-2,0.6-3.6,1.9-4.7s2.9-1.7,5-1.7h1.7v-1.6h2.2v11.9h2.6h0.2h3.1v-17.2h2.2v17.2h3h0.3H78c-0.4-0.5-0.8-1.1-1-1.8
				s-0.3-1.4-0.3-2c0-2,0.6-3.5,1.9-4.7s2.9-1.8,5.1-1.8h3.3V158.1z M110,158.1H97.2h-0.2h-5.3v-19.2h2.2v17.2h3.1h0.2h10.6
				c-0.6-0.6-1.1-2.2-1.6-4.6c-0.2-1.5-0.6-2.5-1.1-3.1c-0.5-0.6-1.2-0.9-2.1-0.9c-1.2,0-2.4,0.3-3.7,1l-0.9-1.7
				c0.7-0.5,1.5-0.8,2.2-1s1.5-0.3,2.4-0.3c1,0,1.9,0.2,2.6,0.6c0.7,0.4,1.2,0.9,1.6,1.6c0.4,0.7,0.7,1.8,0.9,3.1
				c0.2,1.5,0.5,2.7,0.8,3.5c0.3,0.8,0.7,1.4,1.1,1.8V158.1z M133.4,162.8c-0.3,0.3-0.6,0.4-1,0.4c-0.4,0-0.7-0.1-1-0.4
				c-0.3-0.2-0.4-0.6-0.4-1.2c0-0.5,0.1-0.9,0.4-1.2s0.6-0.4,1-0.4c0.4,0,0.8,0.1,1,0.4c0.3,0.3,0.4,0.6,0.4,1.1
				C133.7,162.2,133.6,162.5,133.4,162.8z M137.8,162.8c-0.2,0.3-0.6,0.4-1,0.4c-0.4,0-0.8-0.1-1-0.4c-0.3-0.3-0.4-0.6-0.4-1.1
				s0.1-0.9,0.4-1.1c0.3-0.3,0.6-0.4,1-0.4c0.5,0,0.8,0.1,1,0.4c0.2,0.3,0.4,0.6,0.4,1.1S138,162.5,137.8,162.8z M146.2,162.8
				c-0.2,0.3-0.6,0.4-1,0.4c-0.4,0-0.8-0.1-1-0.4c-0.3-0.3-0.4-0.6-0.4-1.1s0.1-0.9,0.4-1.1c0.3-0.3,0.6-0.4,1-0.4
				c0.5,0,0.8,0.1,1,0.4c0.2,0.3,0.4,0.6,0.4,1.1S146.4,162.5,146.2,162.8z M152.3,158.1h-12.9h-0.2h-9.6h-0.2h-2.9v0.6
				c0,1.7-0.4,3-1.2,4c-0.8,1-1.9,1.5-3.3,1.5c-0.8,0-1.7-0.2-2.6-0.7l0.7-1.7c0.4,0.2,0.7,0.3,1,0.4c0.3,0.1,0.6,0.1,0.9,0.1
				c0.8,0,1.3-0.3,1.8-0.9s0.6-1.4,0.6-2.4v-13h2.1v10.3h2.9h0.2h3.9v-10.3h2.2v10.3h3.5h0.2h10.6c-0.6-0.6-1.1-2.2-1.6-4.6
				c-0.2-1.5-0.6-2.5-1.1-3.1c-0.5-0.6-1.2-0.9-2.1-0.9c-1.2,0-2.4,0.3-3.7,1l-0.9-1.7c0.7-0.5,1.5-0.8,2.2-1s1.5-0.3,2.4-0.3
				c1,0,1.9,0.2,2.6,0.6c0.7,0.4,1.2,0.9,1.6,1.6c0.4,0.7,0.7,1.8,0.9,3.1c0.2,1.5,0.5,2.7,0.8,3.5c0.3,0.8,0.7,1.4,1.1,1.8V158.1z
				 M155,138l1.2-0.2c-0.6-0.4-0.9-0.9-0.9-1.6c0-0.7,0.2-1.3,0.7-1.7c0.5-0.4,1.1-0.6,1.9-0.6c0.7,0,1.2,0.1,1.7,0.4l-0.4,1.1
				c-0.3-0.2-0.8-0.3-1.3-0.3c-0.4,0-0.7,0.1-0.9,0.3s-0.4,0.5-0.4,1c0,0.3,0.1,0.5,0.2,0.7c0.1,0.2,0.3,0.4,0.5,0.5
				c0.2,0,0.6-0.1,1.2-0.2c0.6-0.1,1.1-0.1,1.3-0.1v1.2c-0.1,0-0.4,0-0.9,0.1s-1.3,0.2-2.6,0.3l-1.4,0.2V138z M168.9,158.1H162h-0.2
				h-5.3v-17.7h2.2v15.7h3.1h0.2h4.6v-10.3h2.2V158.1z M170.8,143.1c-0.2,0.3-0.6,0.4-1,0.4c-0.4,0-0.8-0.1-1-0.4
				c-0.3-0.3-0.4-0.6-0.4-1.1s0.1-0.9,0.4-1.1c0.3-0.3,0.6-0.4,1-0.4c0.5,0,0.8,0.1,1,0.4c0.2,0.3,0.4,0.6,0.4,1.1
				S171.1,142.8,170.8,143.1z"/>
			<g>
				<path fill="#FFFFFF" d="M136.2,48.9c0.9,0,1.8,0,2.8,0c1,0,1.7-0.8,1.7-1.7c0-0.9-0.7-1.6-1.7-1.7c-0.2,0-0.3,0-0.6,0
					c-9,0-17.9,0-26.7,0c-1.6,0-2.5,0.6-2.4,1.7c0,1,0.9,1.7,2.4,1.7c4.5,0,8.8,0,13.3,0l0,0C128.7,48.9,132.4,48.9,136.2,48.9z"/>
				<path fill="#FFFFFF" d="M138.7,41.6c0.6,0,1.1-0.3,1.6-0.7c0.5-0.5,0.5-1,0.2-1.7c-0.3-0.7-1-1-1.7-1c-1.7,0-3.3,0-5,0
					c-1.6,0-3.3,0-4.9,0c-1.3,0-2,0.7-2,1.7c0,1,0.7,1.7,1.8,1.7C132.1,41.6,135.4,41.6,138.7,41.6z"/>
				<path fill="#FFFFFF" d="M140,77c-2,0-4,0.3-5.9,0.9c-2.8,0.8-5.4,2-8.1,2.9c-0.7,0.2-1,0.8-0.7,1.3c0.3,0.6,0.8,0.5,1.4,0.2
					c4.9-2.2,9.9-4,15.5-3.8c3.9,0.1,7.7-1.1,11.5-1.8c-0.1-0.6-0.2-1-0.3-1.6c-0.5,0.1-0.8,0.1-1.3,0.2
					C148.1,76.3,144.1,77.1,140,77z"/>
				<path fill="#FFFFFF" d="M163.3,79.3c-0.2-1.4-1.5-2.4-3-2.3c-1.6,0.2-3.1,0.6-4.7,0.9c0.5,2,0.8,3.7,1.1,5.6
					c1.6-0.3,3.1-0.6,4.5-0.9C162.8,82.3,163.6,80.9,163.3,79.3z"/>
				<path fill="#FFFFFF" d="M114,93.4v0.1c13.8-3,27.5-5.9,41.3-8.8c-0.5-2.4-0.9-4.6-1.5-6.9c0-0.1-0.5-0.3-0.7-0.3
					c-1.4,0.2-2.6,0.6-4,0.8c-10.1,2.2-20.3,4.4-30.4,6.4c-1.6,0.3-3.1,0.7-4.7,1c-0.2-4.7-0.8-9.5-1.4-14.2c0.2,0,0.5,0,0.7,0
					c2.5,0,5,0,7.5,0c1.4,0,2.1-0.7,2.1-1.7s-0.8-1.6-2.1-1.6c-4,0-3.1,0-7,0l0,0c-0.8,0-1.4,0-1.6,0c-0.2-1.6-0.5-3.2-0.6-4.9
					c2.1,0,4.1,0,6.1,0c6.9,0,13.8,0,20.5,0c1.5,0,2.3-0.6,2.4-1.7c0-1.1-0.8-1.7-2.4-1.7c-9.2,0-18.2,0-27.4,0
					c-0.6-1.5-1.6-2.6-2.9-3.6c3.2,0,6.4,0,9.6,0l0,0c6.9,0,13.8,0,20.7,0c0.5,0,0.9-0.1,1.4-0.2c0.7-0.2,0.9-0.8,1-1.5
					c0-0.7-0.3-1.3-0.9-1.5c-0.3-0.1-0.8-0.2-1.3-0.2c-13.2,0-26.4,0-39.5,0c-3.4-0.8-6.9-1.4-10.3-1.5v-9.6c0,0,0.7,0,1,0
					c4.6,0,9.1,0,13.7,0c1.3,0,1.6-0.3,1.6-1.6c0-4.9,0-9.8,0-14.7c0-0.3,0-0.6,0-0.9c14,0,27.9,0,41.9,0c0,16.9,0,33.6,0,50.5
					c1.3-0.2,2.3-0.5,3.6-0.7c0-0.3,0-0.6,0-0.9c0-16.6,0-33.4,0-50c0-1.1-0.3-2-1.3-2.5c-15.1,0-30.3,0-45.4,0
					c-0.7,0.5-1.4,0.8-2,1.4c-5.3,5.6-10.6,11.1-15.8,16.8c-0.6,0.7-0.9,2.3-0.9,2.3s0,4.2,0,10.2c-2.8,0.1-5.6,0.3-8.4,0.9
					c-3.9,0.8-7.8,1.6-11.4,3.6c-2.4,1.4-3.8,3.3-4.1,6.1c-0.3,2.8-0.8,5.5-1,8.3c-0.6,4.4-1.4,8.7-1.5,13.1
					c-0.2,8.5-0.1,17-0.1,25.6c0,0.6,0,1.1,0,1.7c1.6,0,3,0,4.6,0c0,1.5,0,2.9,0,4.1c0,2.6,1.6,4.4,4,4.5c2.5,0,4.1-1.7,4.1-4.4
					c0-1.4,0-2.8,0-4.1c10.1,0,20,0,29.8,0c0,1.5,0,2.8,0,4.1c0.1,2.6,1.6,4.4,4,4.4c2.5,0,4.1-1.7,4.1-4.5c0-1.4,0-2.8,0-4.2
					c1.7,0,3.1,0,4.6,0c0-0.7,0-1.3,0-1.8c0-1.4,0-2.8,0-4.1c11.7,0,23.4,0,35.1,0c1-0.6,1.3-1.4,1.3-2.5c0-4.5,0-9,0-13.4
					c0-0.3,0-0.6,0-0.9c-0.9,0.2-1.8,0.5-2.6,0.6c-0.7,0.1-0.9,0.3-0.9,1.1c0,3.7,0,7.2,0,10.9c0,0.3,0,0.6,0,0.9
					c-8.8,0-21.6,0-32.9,0C113.9,98.4,113.9,95.9,114,93.4z M117.6,86.5c11.5-2.4,23-4.8,34.3-7.3c0.6-0.1,1-0.1,0.9,0.8
					c-12.7,2.8-25.6,5.4-38.4,8.1c-0.1-0.3-0.1-0.6-0.1-0.9C115.4,87,116.5,86.7,117.6,86.5z M74.9,56.5c7.6,0,15.3,0,22.8,0
					c1,0,1.6,0.6,1.6,1.5c0.1,1-0.5,1.7-1.4,1.8c-0.2,0-0.5,0-0.7,0c-0.2,0-0.5,0-0.7,0.1c-1.1,0-2.2,0-3.3,0c-2.3,0-4.6,0-6.9,0
					c-3.4,0-6.8,0-10.2,0c-0.5,0-1.1,0.1-1.4-0.1c-0.6-0.5-1.3-1.1-1.4-1.7C73.2,57.2,73.9,56.5,74.9,56.5z M67.2,101.7
					c-2.2,0-3.8-1.7-3.8-3.9c0-2.2,1.6-3.8,3.9-3.8c2.2,0,3.8,1.6,3.9,3.8C71.1,99.9,69.4,101.8,67.2,101.7z M86.3,84.3
					c-6.7,0-13.2,0-19.9,0c-2.5,0-3.2-0.8-3-3.2c0.7-5,1.4-10,2.2-14.9c0.3-2.2,1.1-2.9,3.3-2.9c9.2,0,18.4,0,27.4,0
					c0.2,0,0.5,0.1,0.8,0.1c2.5,0,4.9,0,7.5,0c1.4,0.2,2,0.9,2.3,2.8c0.8,5,1.5,10.1,2.2,15.1c0.3,2.3-0.5,3-2.9,3.1
					C99.6,84.3,92.9,84.3,86.3,84.3z M105.3,101.7c-2.1,0-3.8-1.7-3.9-3.9c0-2.2,1.7-3.9,4-3.9c2.2,0,3.8,1.7,3.8,3.9
					C109.1,100,107.5,101.7,105.3,101.7z"/>
			</g>
		</g>
	</g>
</g>
<g id="Layer_4">
</g>
<g id="Layer_3">
</g>
<g id="Layer_2">
</g>
</svg>
