<?xml version="1.0" encoding="utf-8"?>
<!-- Generator: Adobe Illustrator 18.0.0, SVG Export Plug-In . SVG Version: 6.00 Build 0)  -->
<!DOCTYPE svg PUBLIC "-//W3C//DTD SVG 1.0//EN" "http://www.w3.org/TR/2001/REC-SVG-20010904/DTD/svg10.dtd">
<svg version="1.0" xmlns="http://www.w3.org/2000/svg" xmlns:xlink="http://www.w3.org/1999/xlink" x="0px" y="0px"
	 viewBox="0 0 221.8 214.2" enable-background="new 0 0 221.8 214.2" xml:space="preserve">
<g id="Layer_5">
</g>
<g id="Layer_6">
	<rect x="49" y="127" fill="#FFFFFF" width="123.3" height="41.3"/>
</g>
<g id="Layer_1">
	<g>
		<path fill="#63A4D9" d="M-0.1-0.2v215.2h222.8V-0.2H-0.1z M164.8,138.7h2.3v19.4h-2.3V138.7z M127.9,140.6
			c0.3-0.3,0.6-0.4,1.1-0.4c0.5,0,0.8,0.1,1.1,0.4c0.3,0.3,0.4,0.7,0.4,1.1c0,0.5-0.1,0.8-0.4,1.1c-0.2,0.3-0.6,0.4-1.1,0.4
			c-0.4,0-0.8-0.1-1-0.4c-0.3-0.3-0.4-0.6-0.4-1.1S127.7,140.9,127.9,140.6z M79.3,140.6c0.3-0.3,0.6-0.4,1.1-0.4
			c0.5,0,0.8,0.1,1.1,0.4c0.2,0.3,0.4,0.7,0.4,1.1c0,0.5-0.1,0.8-0.4,1.1c-0.3,0.3-0.6,0.4-1.1,0.4c-0.4,0-0.8-0.1-1-0.4
			c-0.3-0.3-0.4-0.6-0.4-1.1S79,140.9,79.3,140.6z M74.9,140.6c0.3-0.2,0.6-0.4,1-0.4c0.4,0,0.8,0.1,1,0.4c0.3,0.3,0.4,0.6,0.4,1.1
			c0,0.5-0.1,0.9-0.4,1.1c-0.3,0.3-0.6,0.4-1,0.4c-0.4,0-0.7-0.1-1-0.4c-0.3-0.2-0.4-0.6-0.4-1.2S74.6,140.8,74.9,140.6z M59.3,149
			l1.2-0.2c-0.6-0.4-0.9-0.9-0.9-1.6c0-0.7,0.2-1.3,0.7-1.7c0.5-0.4,1.1-0.6,1.9-0.6c0.6,0,1.2,0.1,1.7,0.4l-0.4,1.1
			c-0.4-0.2-0.8-0.3-1.3-0.3c-0.4,0-0.7,0.1-0.9,0.3c-0.3,0.2-0.4,0.5-0.4,1c0,0.3,0.1,0.5,0.2,0.7s0.3,0.4,0.5,0.5
			c0.2,0,0.6-0.1,1.2-0.2c0.6-0.1,1.1-0.1,1.3-0.1v1.2c-0.1,0-0.5,0-1.1,0.1c-0.6,0.1-1.1,0.1-1.3,0.2c-1.5,0.2-2.3,0.3-2.5,0.4V149
			z M104.9,158.1h-13h-0.3h-8.5h-0.3h-9.7h-0.3H58.4c-1.5,0-2.7-0.4-3.6-1.2c-0.8-0.8-1.2-1.9-1.2-3.4c0-1.1,0.2-2.3,0.6-3.4h1.9
			c-0.3,1.2-0.4,2.3-0.4,3.3c0,0.9,0.2,1.5,0.7,2c0.5,0.5,1.1,0.7,1.9,0.7h9.2v-17.4h2.2v17.4h3.1h0.3H77v-10.4h2.3v10.4h3.6h0.3
			h3.1v-17.4h2.3v17.4h3.1h0.3h10.7c-0.6-0.6-1.2-2.2-1.6-4.7c-0.2-1.5-0.6-2.5-1.1-3.1s-1.2-0.9-2.1-0.9c-1.2,0-2.4,0.3-3.7,1
			l-0.9-1.8c0.7-0.5,1.5-0.8,2.2-1c0.7-0.2,1.5-0.3,2.4-0.3c1,0,1.9,0.2,2.6,0.6c0.7,0.4,1.3,0.9,1.7,1.7s0.7,1.8,0.9,3.2
			c0.3,1.5,0.5,2.7,0.8,3.5c0.3,0.8,0.7,1.4,1.1,1.8V158.1z M112.7,158.7c0,1.7-0.4,3.1-1.2,4.1s-1.9,1.5-3.4,1.5
			c-0.8,0-1.7-0.2-2.6-0.7l0.7-1.7c0.4,0.2,0.8,0.3,1,0.4c0.3,0.1,0.6,0.1,0.9,0.1c0.8,0,1.4-0.3,1.8-0.9c0.4-0.6,0.6-1.4,0.6-2.5
			v-13.1h2.2V158.7z M139.7,162.8c-0.3,0.3-0.6,0.4-1.1,0.4c-0.4,0-0.8-0.1-1-0.4s-0.4-0.6-0.4-1.1s0.1-0.9,0.4-1.1
			c0.3-0.3,0.6-0.4,1.1-0.4c0.5,0,0.8,0.1,1.1,0.4c0.2,0.3,0.4,0.7,0.4,1.1S140,162.5,139.7,162.8z M160.6,158.1h-13h-0.3h-14.4
			h-0.3h-2.9v0.6c0,1.7-0.4,3.1-1.2,4.1s-1.9,1.5-3.4,1.5c-0.8,0-1.7-0.2-2.6-0.7l0.7-1.7c0.4,0.2,0.8,0.3,1,0.4
			c0.3,0.1,0.6,0.1,0.9,0.1c0.8,0,1.4-0.3,1.8-0.9c0.4-0.6,0.6-1.4,0.6-2.5v-13.1h2.2v10.4h2.9h0.3h10.7c-0.7-0.7-1.2-2.2-1.6-4.7
			c-0.2-1.4-0.6-2.5-1.1-3.1c-0.5-0.6-1.2-0.9-2.1-0.9c-1.2,0-2.4,0.3-3.7,1l-0.9-1.8c0.7-0.5,1.5-0.8,2.2-1
			c0.7-0.2,1.5-0.3,2.4-0.3c1,0,1.9,0.2,2.6,0.6c0.7,0.4,1.3,0.9,1.7,1.7s0.7,1.8,0.9,3.2c0.4,2.7,1,4.4,1.8,5.3h1.5h0.3h10.7
			c-0.6-0.6-1.2-2.2-1.6-4.7c-0.2-1.5-0.6-2.5-1.1-3.1s-1.2-0.9-2.1-0.9c-1.2,0-2.4,0.3-3.7,1l-0.9-1.8c0.7-0.5,1.5-0.8,2.2-1
			c0.7-0.2,1.5-0.3,2.4-0.3c1,0,1.9,0.2,2.6,0.6c0.7,0.4,1.3,0.9,1.7,1.7s0.7,1.8,0.9,3.2c0.3,1.5,0.5,2.7,0.8,3.5
			c0.3,0.8,0.7,1.4,1.1,1.8V158.1z M168.5,164.3c-0.4,0-1.2,0.1-2.4,0.2c-1.2,0.2-2.1,0.3-2.5,0.4v-1.2l1.2-0.2
			c-0.2-0.2-0.5-0.4-0.6-0.6c-0.2-0.3-0.3-0.6-0.3-1c0-0.7,0.2-1.3,0.7-1.7c0.5-0.4,1.1-0.6,1.9-0.6c0.7,0,1.2,0.1,1.7,0.4l-0.4,1.1
			c-0.3-0.2-0.8-0.3-1.3-0.3c-0.4,0-0.7,0.1-0.9,0.3s-0.4,0.5-0.4,1c0,0.5,0.3,0.9,0.8,1.2c0.2,0,0.6-0.1,1.3-0.2s1.1-0.1,1.3-0.1
			V164.3z"/>
		<g>
			<path fill="#FFFFFF" d="M161.4,50.4c-0.5-4.7-3-7.5-7.1-9.1c-0.9-0.4-1.9-0.8-2.8-1c-10.5-3.3-21.1-4.4-32-2.2
				c-4.7,0.9-9.4,1.9-13.6,4.3c-2.8,1.7-4.6,4-4.9,7.3c-0.3,3.4-0.9,6.6-1.4,9.9c-0.6,5.2-1.6,10.5-1.8,15.9
				c-0.3,10.3-0.1,20.6-0.1,30.8c0,0.6,0,1.4,0,2.1c2,0,3.6,0,5.6,0c0,1.9,0,3.5,0,5c0,3.3,1.9,5.2,4.8,5.4c2.9,0.1,4.9-2,5-5.2
				c0-1.7,0-3.3,0-4.9c12.2,0,24,0,36,0c0,1.8,0,3.4,0,4.9c0.1,3.3,2,5.2,4.9,5.2s4.9-2.1,4.9-5.4c0-1.7,0-3.3,0-5c2,0,3.7,0,5.6,0
				c0-0.8,0-1.6,0-2.3c0-6.5-0.2-13.1,0-19.6C165,74.3,162.8,62.4,161.4,50.4z M117.2,43.3c9.1,0,18.4,0,27.5,0c1.3,0,1.9,0.6,2,1.9
				c0.1,1.3-0.6,2.1-1.9,2.2c-1.9,0.1-3.7,0.1-5.6,0.1c-2.7,0-5.6,0-8.3,0c-4.1,0-8.2,0-12.3,0c-0.5,0-1.4,0.2-1.7-0.1
				c-0.7-0.5-1.6-1.4-1.7-2.1C115.1,44,116,43.3,117.2,43.3z M108,97.7c-2.6-0.1-4.5-2.1-4.5-4.7c0-2.6,2-4.6,4.6-4.5
				c2.6,0,4.6,2,4.6,4.6C112.7,95.6,110.6,97.7,108,97.7z M131,76.7c-8,0-16,0-23.8,0c-3,0-3.9-0.9-3.6-3.8c0.8-6,1.7-12.1,2.6-18.1
				c0.4-2.6,1.4-3.4,4-3.4c14,0,27.8,0,41.8,0c2.7,0,3.6,0.6,4,3.4c0.9,6.1,1.8,12.2,2.6,18.3c0.3,2.8-0.5,3.7-3.5,3.7
				C146.9,76.7,139,76.7,131,76.7z M154,97.7c-2.5,0-4.6-2.1-4.6-4.6c0-2.6,2.1-4.7,4.8-4.6c2.6,0,4.5,2,4.5,4.7
				C158.6,95.7,156.5,97.7,154,97.7z"/>
			<path fill="#FFFFFF" d="M89.1,70c-2.5,2.6-5.1,5.2-7.8,7.9c-0.4,0.4-1,0.6-1.6,0.6c-2.6,0.1-5.1,0-7.8,0c-3.1,0-5.4,2.2-5.4,5.4
				s0,6.2,0,9.3c0,0.4,0,0.7,0,1.2c-2.2,0.4-2.2,0.4-2.5,3.1c-0.7,0-1.6,0-2.4,0c0,4.7,0,9.2,0,14c3,0,6,0,9.1,0c0,1.6,0,3,0,4.4
				c0,1.7,0.8,2.6,2.3,2.6c1.7,0,2.5-0.8,2.5-2.6c0-5.7,0-11.3,0-17c0-0.4,0-0.8,0-1.3c0.2,0,0.3-0.1,0.5-0.1c0.1,0.3,0.2,0.7,0.2,1
				c0,5.8,0,11.5,0,17.3c0,1.8,0.9,2.6,2.7,2.5c1-0.1,1.9-0.7,2-1.8c0.1-0.5,0.1-0.9,0.1-1.5c0-10.1,0-20.3,0-30.3
				c0-0.8,0.2-1.4,0.8-2c3.4-3.4,6.7-6.7,10.1-10.2c1-1,1.2-2.2,0.2-3.1C91.3,68.8,90,69,89.1,70z M68.9,97.5c-1.3,0-2.3,0-3.5,0
				c0-0.6,0-1.3,0-1.8c1.2,0,2.3,0,3.5,0C68.9,96.3,68.9,96.9,68.9,97.5z M70.5,97.6c-0.1-0.1-0.2-0.1-0.3-0.2c0-3.9,0-7.9,0-11.8
				c0-0.2,0.2-0.3,0.3-0.5c0.1,0.2,0.3,0.4,0.3,0.6c0,3.7,0,7.5,0,11.1C70.8,97.1,70.6,97.4,70.5,97.6z"/>
			<path fill="#FFFFFF" d="M75.9,77.5c2.3,0,4.2-1.9,4.1-4.2c0-2.3-1.9-4-4.1-4.1c-2.3,0-4.2,1.8-4.2,4.1
				C71.7,75.7,73.5,77.5,75.9,77.5z"/>
			<path fill="#FFFFFF" d="M58.8,97.5c-1,0-1.8,0.6-1.8,1.7c0,3.5,0,7,0,10.5c0,1,0.7,1.6,1.8,1.7c0.6,0,1.3,0,1.9,0
				c0-4.7,0-9.2,0-14C60,97.5,59.4,97.5,58.8,97.5z"/>
		</g>
	</g>
</g>
<g id="Layer_4">
</g>
<g id="Layer_3">
</g>
<g id="Layer_2">
</g>
</svg>
