<?xml version="1.0" encoding="utf-8"?>
<!-- Generator: Adobe Illustrator 18.0.0, SVG Export Plug-In . SVG Version: 6.00 Build 0)  -->
<!DOCTYPE svg PUBLIC "-//W3C//DTD SVG 1.0//EN" "http://www.w3.org/TR/2001/REC-SVG-20010904/DTD/svg10.dtd">
<svg version="1.0" xmlns="http://www.w3.org/2000/svg" xmlns:xlink="http://www.w3.org/1999/xlink" x="0px" y="0px"
	 viewBox="0 0 221.8 214.2" enable-background="new 0 0 221.8 214.2" xml:space="preserve">
<g id="Layer_5">
</g>
<g id="Layer_6">
	<rect x="45" y="128.4" fill="#FFFFFF" width="132.7" height="41.3"/>
</g>
<g id="Layer_1">
	<g>
		<g>
			<path fill="#EF413E" d="M93.7,147.6c-2.6,0-4.8,2.2-6.5,6.5v2.1h10.6v-4c0-1.6-0.3-2.7-1-3.4C96.1,148,95.1,147.6,93.7,147.6z"/>
			<path fill="#EF413E" d="M0.4,0v214.2h221.8V0H0.4z M166.6,140.8c0.2,0.3,0.4,0.6,0.4,1.1s-0.1,0.8-0.4,1.1
				c-0.2,0.3-0.6,0.4-1,0.4c-0.4,0-0.8-0.1-1-0.4c-0.3-0.3-0.4-0.6-0.4-1.1s0.1-0.9,0.4-1.1c0.3-0.3,0.6-0.4,1-0.4
				C166,140.4,166.3,140.6,166.6,140.8z M162.4,137.6c0.2-0.2,0.6-0.3,0.9-0.3c0.4,0,0.7,0.1,0.9,0.3c0.3,0.2,0.4,0.6,0.4,1.1
				c0,0.5-0.1,0.8-0.4,1.1c-0.3,0.2-0.6,0.3-0.9,0.3c-0.4,0-0.7-0.1-0.9-0.3c-0.2-0.2-0.4-0.6-0.4-1.1
				C162,138.2,162.2,137.8,162.4,137.6z M160.2,140.8c0.3-0.2,0.6-0.4,1-0.4c0.5,0,0.8,0.1,1,0.4c0.2,0.3,0.4,0.6,0.4,1.1
				s-0.1,0.8-0.4,1.1c-0.2,0.3-0.6,0.4-1,0.4c-0.4,0-0.7-0.1-1-0.4c-0.3-0.2-0.4-0.6-0.4-1.2C159.8,141.4,159.9,141,160.2,140.8z
				 M126.6,143.2c0.3-0.3,0.6-0.4,1-0.4c0.5,0,0.8,0.1,1,0.4c0.2,0.3,0.4,0.6,0.4,1.1s-0.1,0.8-0.4,1.1c-0.2,0.3-0.6,0.4-1,0.4
				c-0.4,0-0.8-0.1-1-0.4c-0.3-0.3-0.4-0.6-0.4-1.1S126.4,143.5,126.6,143.2z M92.4,140.8c0.3-0.3,0.6-0.4,1-0.4
				c0.5,0,0.8,0.1,1,0.4c0.2,0.3,0.4,0.6,0.4,1.1s-0.1,0.8-0.4,1.1c-0.2,0.3-0.6,0.4-1,0.4c-0.4,0-0.8-0.1-1-0.4
				c-0.3-0.3-0.4-0.6-0.4-1.1S92.2,141.1,92.4,140.8z M71.6,158.1h-6.8h-0.3h-2.7c-0.6,0-1.4-0.1-2.3-0.4c-0.9-0.3-1.7-0.6-2.4-1
				c-1.2,0.8-2,1.5-2.5,2.2c-0.5,0.7-0.7,1.4-0.7,2.2c0,1.1,0.3,1.9,0.9,2.4c0.6,0.5,1.6,0.8,2.9,0.8c0.7,0,1.3,0,1.9-0.1
				c0.6-0.1,1.2-0.2,1.8-0.3l0.3,1.7c-1.2,0.3-2.2,0.4-2.8,0.5s-1.4,0.1-2.1,0.1c-1.6,0-2.9-0.4-3.8-1.3c-0.9-0.9-1.4-2.1-1.4-3.6
				c0-1.1,0.3-2,0.9-3c0.6-0.9,1.6-1.9,2.9-2.8c-1.2-1.1-2.2-2.4-3-3.8c-0.8-1.4-1.3-2.7-1.5-3.9c0.9-0.9,2-1.5,3.1-2
				c1.2-0.5,2.3-0.7,3.5-0.7c1.1,0,2.1,0.2,3.2,0.5c1.1,0.3,2,0.8,2.8,1.3c0,1.6-0.4,3.2-1.2,4.7c-0.8,1.5-1.9,2.8-3.4,4
				c0.9,0.4,1.9,0.6,2.9,0.6h2.8h0.3h4.6v-10.3h2.2V158.1z M72.5,142.9c-0.1,0-0.4,0-0.9,0.1c-0.5,0-1.3,0.2-2.6,0.3l-1.4,0.2v-1.2
				l1.2-0.2c-0.6-0.4-0.9-0.9-0.9-1.6c0-0.7,0.2-1.3,0.7-1.7c0.5-0.4,1.1-0.6,1.9-0.6c0.7,0,1.2,0.1,1.7,0.4l-0.4,1.1
				c-0.3-0.2-0.8-0.3-1.3-0.3c-0.4,0-0.7,0.1-0.9,0.3s-0.4,0.5-0.4,1c0,0.3,0.1,0.5,0.2,0.7c0.1,0.2,0.3,0.4,0.5,0.5
				c0.2,0,0.6-0.1,1.2-0.2c0.6-0.1,1.1-0.1,1.3-0.1V142.9z M103,158.1H82.2h-0.2h-5.3v-19.2h2.2v17.2h3.1h0.2H85v-9.5h2.1v4.7
				c0.8-1.9,1.8-3.3,3-4.3s2.5-1.4,4-1.4c1.9,0,3.4,0.5,4.3,1.6c1,1,1.5,2.7,1.5,4.9v4.1h3.1h0.2h3.1v-10.3h2.2v12.3h-5.3H103z
				 M108.4,162.8c-0.2,0.3-0.6,0.4-1,0.4c-0.4,0-0.8-0.1-1-0.4c-0.3-0.3-0.4-0.6-0.4-1.1s0.1-0.9,0.4-1.1c0.3-0.3,0.6-0.4,1-0.4
				c0.5,0,0.8,0.1,1,0.4c0.2,0.3,0.4,0.6,0.4,1.1S108.7,162.5,108.4,162.8z M171.4,158.1h-3.7c-0.8,0-1.5-0.1-2.1-0.4
				s-1.3-0.7-2-1.4c-0.4,0.5-0.9,0.9-1.5,1.3c-0.6,0.3-1.4,0.5-2.2,0.5h-8.5h-0.2H137h-0.2h-2.5c0,2-0.5,3.5-1.6,4.5
				c-1,1-2.6,1.5-4.7,1.5h-1.8c-1.6,0-2.8-0.5-3.7-1.6c-0.9-1.1-1.4-2.6-1.4-4.5c0-2,0.3-3.9,1-5.6h2.1c-0.6,1.5-0.9,3.3-0.9,5.4
				c0,1.4,0.3,2.4,0.9,3.2s1.4,1.1,2.4,1.1h1.2c1.5,0,2.5-0.3,3.2-1s1-1.7,1-3v-12.3h2.1v10.3h2.5h0.2h10.6
				c-0.7-0.6-1.2-2.2-1.6-4.6c-0.2-1.4-0.6-2.4-1.1-3c-0.5-0.6-1.2-0.9-2.1-0.9c-1.2,0-2.4,0.3-3.7,1l-0.9-1.7
				c0.7-0.5,1.5-0.8,2.2-1s1.5-0.3,2.4-0.3c1,0,1.9,0.2,2.6,0.6c0.7,0.4,1.2,0.9,1.6,1.6c0.4,0.7,0.7,1.8,0.9,3.1
				c0.4,2.6,1,4.4,1.8,5.2h1.4h0.2h3.4v-8.3h2.1v8.3h2.7c0.8,0,1.4-0.3,1.9-0.8c0.5-0.5,0.7-1.2,0.7-2.1v-5.4h2.1v6.1l0,0.3
				c0.4,0.7,0.9,1.2,1.4,1.5c0.5,0.3,1.1,0.4,1.9,0.4h1.5v-10.3h2.1V158.1z"/>
			<path fill="#EF413E" d="M61.1,148c-1.2-0.6-2.4-0.9-3.6-0.9c-1.4,0-2.9,0.5-4.3,1.5c0.2,1,0.7,2,1.4,3.1c0.7,1.1,1.5,2,2.5,2.9
				c1.3-0.9,2.3-1.9,2.9-2.9S61,149.3,61.1,148z"/>
		</g>
		<g>
			<path fill="#FFFFFF" d="M123.7,63.5c-0.6-0.3-1.3-0.4-1.9-0.4s-1.4,0.1-2,0.4c-0.5,0.3-1,0.7-1.5,1.5c-0.3,0.6-0.5,1.4-0.5,2.1
				s0.2,1.6,0.5,2.1c0.4,0.5,0.8,0.9,1.6,1.4c0.6,0.3,1.3,0.4,1.9,0.4c0.5,0,1-0.1,1.6-0.3c0.4-0.2,0.8-0.4,1.3-0.8
				c0.7-0.7,1-1.7,1-2.7c0-0.7-0.2-1.6-0.5-2.1C124.8,64.1,124.3,63.7,123.7,63.5z"/>
			<path fill="#FFFFFF" d="M175.9,44.1c-0.1-2-0.5-2.4-2.5-2.5c-3.6-0.1-7.1-0.1-10.7-0.1c-22.8,0-45.6,0-68.3,0
				c-1.7,0-3.3,0.1-4.9,0.2c-1.9,0.1-2.3,0.5-2.3,2.5c0,2.8,0,5.8,0,8.6c0,12.9,0,25.8,0,38.7c0,0.5,0,1,0,1.7c29.6,0,59.2,0,88.7,0
				c0.1-3.6,0.2-7,0.3-10.6c0-11.7,0-23.4,0-35.1C176,46.4,175.9,45.3,175.9,44.1z M99.9,67.1c0.3,0.7,0.7,1.4,1.4,2
				c0.5,0.5,1.3,0.9,1.9,1.3c0.3,0.1,0.7,0.2,1,0.3c0.3,0.1,0.7,0.1,1,0.1c0.7,0,1.6-0.2,2.3-0.5c0.7-0.3,1.5-0.8,2.1-1.6h3.8
				c-0.4,0.8-0.8,1.8-1.7,2.4c-0.6,0.6-1.5,1.3-2.2,1.7c-0.7,0.4-1.6,0.6-2.4,0.8c-0.8,0.2-1.7,0.3-2.3,0.3c-0.7,0-1.6-0.1-2.3-0.3
				c-0.6-0.2-1.4-0.5-2.1-0.9c-1.4-0.7-2.3-1.9-3-3.3c-0.4-0.7-0.6-1.5-0.8-2.3c-0.2-0.8-0.3-1.8-0.3-2.6c0-0.8,0.2-1.8,0.5-2.8
				c0.4-0.9,0.9-2,1.8-2.8c0.7-0.8,1.8-1.7,2.8-2.2c1-0.5,2.4-0.8,3.9-0.8c0.7,0,1.7,0.1,2.4,0.3c0.8,0.2,1.7,0.5,2.4,1
				c0.7,0.4,1.5,0.9,2.1,1.7c0.5,0.6,0.9,1.5,1.4,2.2h-3.7c-1.4-1.5-2.8-2.2-4.6-2.2c-0.9,0-2,0.3-2.8,0.8c-0.8,0.5-1.7,1.4-2.2,2.2
				s-0.7,1.9-0.7,2.8C99.5,65.5,99.7,66.3,99.9,67.1z M128.7,73.4h-2.8v-1.8c-0.4,0.6-1,1.3-2,1.7c-0.9,0.4-1.8,0.6-2.5,0.6
				c-1.4,0-2.4-0.3-3.5-0.8c-0.9-0.6-1.8-1.5-2.3-2.5c-0.2-0.5-0.4-1-0.6-1.8c-0.1-0.6-0.2-1.3-0.2-2s0.1-1.5,0.2-2
				c0.2-0.6,0.4-1.3,0.7-1.8c0.6-0.9,1.5-1.8,2.4-2.3s2-0.7,3-0.7c0.4,0,0.9,0,1.5,0.1c0.4,0.1,0.8,0.2,1.4,0.4
				c0.8,0.4,1.5,0.8,1.8,1.7v-1.9h2.8v13.1L128.7,73.4L128.7,73.4z M137.1,62.9c-0.6,0.1-1.3,0.2-1.7,0.4c-0.4,0.2-0.6,0.5-0.8,0.9
				c-0.2,0.4-0.3,1-0.3,2v7.1h-3.1V60.1h2.8v1.3c0.3-0.5,0.7-0.9,1.4-1.3s1-0.4,1.9-0.4L137.1,62.9L137.1,62.9z M151.9,71.7
				c0,1-0.2,2.1-0.5,2.9c-0.3,0.8-0.8,1.7-1.6,2.2c-0.6,0.6-1.5,1-2.3,1.5c-0.8,0.3-1.8,0.4-2.6,0.4c-0.8,0-1.8-0.1-2.6-0.4
				c-0.8-0.3-1.7-0.7-2.3-1.5c-0.6-0.6-1.3-1.5-1.6-2.4h3.6c0.2,0.3,0.6,0.6,1.3,0.8c0.5,0.2,1,0.3,1.8,0.3c1,0,2-0.3,2.8-0.9
				c0.4-0.3,0.7-0.7,0.9-1.4c0.2-0.5,0.3-1,0.3-1.8c-0.5,0.7-1,1.4-1.9,1.7c-0.7,0.3-1.6,0.5-2.3,0.5c-1,0-2.1-0.3-3.1-0.8
				s-1.9-1.5-2.5-2.5c-0.6-1-0.9-2.4-0.9-3.8c0-0.6,0.1-1.4,0.2-1.9c0.2-0.5,0.4-1.3,0.7-1.7c0.6-0.9,1.5-1.8,2.5-2.3
				c0.9-0.5,2-0.7,3-0.7c0.9,0,1.8,0.2,2.5,0.5c0.7,0.4,1.4,0.9,1.7,1.7v-1.9h2.8v11.3h0.1V71.7z M167.2,69.6
				c-0.3,0.8-0.8,1.6-1.6,2.2c-0.6,0.6-1.5,1.3-2.3,1.6c-0.8,0.3-1.8,0.5-2.7,0.5c-1.4,0-2.4-0.3-3.6-0.9c-1-0.6-1.9-1.5-2.5-2.5
				c-0.3-0.5-0.5-1-0.7-1.8c-0.2-0.5-0.2-1.3-0.2-1.9c0-0.4,0-0.8,0.1-1.3s0.2-0.7,0.3-1.3c0.3-0.7,0.7-1.6,1.4-2.3
				c0.5-0.5,1-0.9,1.8-1.4c0.5-0.3,1.3-0.5,1.8-0.7c0.6-0.1,1.3-0.2,1.8-0.2c1.3,0,2.3,0.3,3.5,0.9c1,0.6,1.9,1.5,2.5,2.5
				c0.6,1,0.9,2.2,0.9,3.5C167.8,67.8,167.7,68.6,167.2,69.6z"/>
			<path fill="#FFFFFF" d="M147.9,64.1c-0.3-0.3-0.7-0.6-1.3-0.8c-0.4-0.2-0.9-0.3-1.6-0.3c-0.7,0-1.5,0.2-2.1,0.5
				c-0.5,0.3-0.9,0.8-1.4,1.5c-0.3,0.6-0.4,1.3-0.4,2c0,0.6,0.1,1.4,0.4,1.9c0.3,0.5,0.7,1,1.4,1.5c0.3,0.2,0.6,0.3,0.9,0.4
				c0.3,0.1,0.6,0.1,0.9,0.1c0.7,0,1.5-0.2,2.1-0.5c0.5-0.3,0.9-0.8,1.4-1.5c0.3-0.5,0.4-1.3,0.4-1.9c0-0.5-0.1-1-0.3-1.6
				C148.4,65,148.2,64.4,147.9,64.1z"/>
			<path fill="#FFFFFF" d="M163.5,64.1c-0.3-0.3-0.7-0.6-1.3-0.8c-0.4-0.2-0.9-0.3-1.6-0.3c-0.5,0-0.9,0.1-1.5,0.3
				c-0.4,0.2-0.8,0.4-1.3,0.8c-0.3,0.4-0.5,0.8-0.7,1.4C157,66,157,66.3,157,67c0,0.3,0,0.6,0.1,0.9c0.1,0.3,0.2,0.6,0.4,0.8
				c0.3,0.5,0.7,0.9,1.4,1.5c0.3,0.2,0.5,0.3,0.8,0.4c0.3,0.1,0.6,0.1,0.9,0.1s0.6,0,0.9-0.1s0.6-0.2,0.9-0.4
				c0.5-0.3,0.9-0.7,1.4-1.4c0.3-0.5,0.4-1.3,0.4-2c0-0.5-0.1-1-0.3-1.6C164,65,163.8,64.4,163.5,64.1z"/>
			<path fill="#FFFFFF" d="M167,102.5c0.1,0.3,0.7,0.4,1.3,0.4c2.6,0,5.2,0,8,0.1c0-2.3,0-4.5,0-6.8c-4.9,0-9.8,0-14.8,0
				C163.9,97.6,165.6,99.9,167,102.5z"/>
			<path fill="#FFFFFF" d="M125.1,96.1c-13.5,0-27.1,0-40.9,0c0-0.7,0-1.5,0-2.1c0.1-12.7,0.1-25.2,0.1-37.9c0-2-0.1-4-0.2-6
				c-0.1-1.7-0.3-2-2-2c-6.3-0.1-12.6,0-18.7-0.1c-0.6,0-0.8,0.3-1,0.9c-1.6,5.8-3,11.4-4.6,17.2c-0.2,0.9-0.6,1.3-1.7,1.4
				c-2.4,0-4.8,0.1-7.1,0.4c-2.1,0.2-2.4,0.8-2.4,2.9c0,8.5,0,17,0,25.3c0,1.7,0.2,3.1,0.2,4.8c0,1,0.7,1.6,1.7,1.8
				c0.8,0.1,1.8,0.3,2.4-0.8c2.2-4.1,5.5-6.8,10.4-7.5c5.5-0.6,11,2.3,13.2,7.3c0.4,0.8,0.8,1,1.7,1c14.2,0,28.6,0,42.7,0
				c0.7,0,1.3-0.2,1.6-0.8C121.4,99.7,123,97.9,125.1,96.1z M78.8,67.5c-6.4,0-12.8,0-19.2,0c0-0.3,0.1-0.4,0.1-0.6
				c1.5-5.1,2.8-10.4,4.2-15.6c0.2-0.9,0.8-0.9,1.6-0.9c3.8,0,7.5,0,11.2,0c1.7,0,2,0.2,2,2c0.1,3.9,0.1,7.9,0.2,11.7
				C79,65.1,78.9,66.2,78.8,67.5z"/>
			<path fill="#FFFFFF" d="M62.5,97.5c-6.2,0-10.6,4.3-10.6,10.5c0,6.1,4.4,10.5,10.5,10.5c6.3,0,10.7-4.3,10.7-10.4
				C73.2,101.9,68.8,97.5,62.5,97.5z M62.5,113.4c-3.1,0-5.2-2.1-5.2-5.1c0-2.9,2.2-5,5.2-5s5.2,2.2,5.1,5.1
				C67.7,111.3,65.6,113.4,62.5,113.4z"/>
			<path fill="#FFFFFF" d="M154.8,97.6c-6.2,0-10.6,4.4-10.6,10.4c0,6.1,4.4,10.5,10.7,10.5c6.3,0,10.7-4.3,10.6-10.5
				C165.5,101.9,161,97.6,154.8,97.6z M154.8,113.5c-3,0-5.2-2.1-5.2-4.9c0-3,2.1-5.1,5.2-5.1c3.1,0,5.4,2.1,5.4,5.1
				C160,111.4,157.8,113.5,154.8,113.5z"/>
			<path fill="#FFFFFF" d="M131.1,97.6c-5.8,0.3-9.9,4.9-9.7,10.7c0.3,6.5,4.8,10.4,11.5,10.1c6-0.3,9.9-4.9,9.6-11.4
				C142.3,101.3,137.5,97.3,131.1,97.6z M131.8,113.5c-3,0-5.2-2.2-5.1-5.1c0.1-2.9,2.2-5,5.2-5c3.1,0,5.2,2.1,5.2,5.1
				C137.3,111.4,135.1,113.5,131.8,113.5z"/>
			<path fill="#FFFFFF" d="M139.8,96.2c1,1,2.6,2.7,3.8,4c1-1.3,2.6-2.7,3.9-4C145,96.2,142,96.2,139.8,96.2z"/>
		</g>
	</g>
</g>
<g id="Layer_4">
</g>
<g id="Layer_3">
</g>
<g id="Layer_2">
</g>
</svg>
