<?xml version="1.0" encoding="utf-8"?>
<!-- Generator: Adobe Illustrator 18.0.0, SVG Export Plug-In . SVG Version: 6.00 Build 0)  -->
<!DOCTYPE svg PUBLIC "-//W3C//DTD SVG 1.0//EN" "http://www.w3.org/TR/2001/REC-SVG-20010904/DTD/svg10.dtd">
<svg version="1.0" xmlns="http://www.w3.org/2000/svg" xmlns:xlink="http://www.w3.org/1999/xlink" x="0px" y="0px"
	 viewBox="0 0 221.8 214.2" enable-background="new 0 0 221.8 214.2" xml:space="preserve">
<g id="Layer_5">
</g>
<g id="Layer_6">
	<rect x="25.6" y="128.7" fill="#FFFFFF" width="170.7" height="41.3"/>
</g>
<g id="Layer_1">
	<g>
		<g>
			<path fill="#D1A739" d="M0.4,0.3v214.2h221.8V0.3H0.4z M184.6,141.2c0.3-0.3,0.6-0.4,1-0.4c0.5,0,0.8,0.1,1,0.4
				c0.2,0.3,0.4,0.6,0.4,1.1s-0.1,0.8-0.4,1.1c-0.2,0.3-0.6,0.4-1,0.4c-0.4,0-0.8-0.1-1-0.4c-0.3-0.3-0.4-0.6-0.4-1.1
				S184.4,141.4,184.6,141.2z M145.5,139.6c0.3-0.3,0.6-0.4,1-0.4c0.5,0,0.8,0.1,1,0.4c0.2,0.3,0.4,0.6,0.4,1.1s-0.1,0.8-0.4,1.1
				c-0.2,0.3-0.6,0.4-1,0.4c-0.4,0-0.8-0.1-1-0.4c-0.3-0.3-0.4-0.6-0.4-1.1S145.2,139.9,145.5,139.6z M141.2,139.6
				c0.3-0.2,0.6-0.4,1-0.4c0.4,0,0.8,0.1,1,0.4s0.4,0.6,0.4,1.1c0,0.5-0.1,0.9-0.4,1.1c-0.3,0.3-0.6,0.4-1,0.4c-0.4,0-0.7-0.1-1-0.4
				c-0.3-0.2-0.4-0.6-0.4-1.2C140.7,140.2,140.9,139.8,141.2,139.6z M35.8,143.6c0.3-0.3,0.6-0.4,1-0.4c0.5,0,0.8,0.1,1,0.4
				c0.2,0.3,0.4,0.6,0.4,1.1s-0.1,0.8-0.4,1.1c-0.2,0.3-0.6,0.4-1,0.4c-0.4,0-0.8-0.1-1-0.4c-0.3-0.3-0.4-0.6-0.4-1.1
				S35.6,143.8,35.8,143.6z M43.4,158.5c0,2-0.5,3.5-1.6,4.5c-1,1-2.6,1.5-4.7,1.5h-1.8c-1.6,0-2.8-0.5-3.7-1.6
				c-0.9-1.1-1.4-2.6-1.4-4.5c0-2,0.3-3.9,1-5.6h2.1c-0.6,1.5-0.9,3.3-0.9,5.4c0,1.4,0.3,2.4,0.9,3.2c0.6,0.7,1.4,1.1,2.4,1.1H37
				c1.5,0,2.5-0.3,3.2-1s1-1.7,1-3v-12.3h2.1v10.3h2.5h0.2h4.6v-10.3H53v12.3h-6.8h-0.2H43.4z M48.6,163.1c-0.3,0.3-0.6,0.4-1,0.4
				c-0.4,0-0.7-0.1-1-0.4c-0.3-0.2-0.4-0.6-0.4-1.2c0-0.5,0.1-0.9,0.4-1.2s0.6-0.4,1-0.4c0.4,0,0.8,0.1,1,0.4
				c0.3,0.3,0.4,0.6,0.4,1.1C49,162.5,48.9,162.9,48.6,163.1z M53,163.1c-0.2,0.3-0.6,0.4-1,0.4c-0.4,0-0.8-0.1-1-0.4
				c-0.3-0.3-0.4-0.6-0.4-1.1s0.1-0.9,0.4-1.1c0.3-0.3,0.6-0.4,1-0.4c0.5,0,0.8,0.1,1,0.4c0.2,0.3,0.4,0.6,0.4,1.1
				S53.2,162.8,53,163.1z M61.6,159.1c0,1.7-0.4,3-1.2,4s-1.9,1.5-3.3,1.5c-0.8,0-1.7-0.2-2.6-0.7l0.7-1.7c0.4,0.2,0.7,0.3,1,0.4
				c0.3,0.1,0.6,0.1,0.9,0.1c0.8,0,1.3-0.3,1.8-0.9s0.6-1.4,0.6-2.4v-13h2.1V159.1z M61.4,143.4c-0.2,0.3-0.6,0.4-1,0.4
				c-0.4,0-0.8-0.1-1-0.4c-0.3-0.3-0.4-0.6-0.4-1.1s0.1-0.9,0.4-1.1c0.3-0.3,0.6-0.4,1-0.4c0.5,0,0.8,0.1,1,0.4
				c0.2,0.3,0.4,0.6,0.4,1.1S61.7,143.1,61.4,143.4z M97,163.1c-0.3,0.3-0.6,0.4-1,0.4c-0.4,0-0.7-0.1-1-0.4
				c-0.3-0.2-0.4-0.6-0.4-1.2c0-0.5,0.1-0.9,0.4-1.2c0.3-0.2,0.6-0.4,1-0.4c0.4,0,0.8,0.1,1,0.4c0.3,0.3,0.4,0.6,0.4,1.1
				C97.4,162.5,97.3,162.9,97,163.1z M101.4,163.1c-0.2,0.3-0.6,0.4-1,0.4c-0.4,0-0.8-0.1-1-0.4c-0.3-0.3-0.4-0.6-0.4-1.1
				s0.1-0.9,0.4-1.1c0.3-0.3,0.6-0.4,1-0.4c0.5,0,0.8,0.1,1,0.4c0.2,0.3,0.4,0.6,0.4,1.1S101.7,162.8,101.4,163.1z M117,158.5h-5.3
				h-0.3H103h-0.2h-9.6H93h-0.1c0,0,0,0,0,0c-0.8,0-1.5-0.1-2.1-0.4c-0.6-0.2-1.2-0.7-1.8-1.3c-0.5,0.6-1.2,1-1.9,1.2
				c-0.7,0.3-1.5,0.4-2.2,0.4h-7h-0.2h-1.8v0.6c0,1.7-0.5,3.1-1.5,4c-1,1-2.5,1.4-4.3,1.4c-1.7,0-3.2-0.4-4.6-1.3l1-1.7
				c0.5,0.3,1.1,0.5,1.7,0.7c0.6,0.2,1.2,0.3,1.9,0.3c1.1,0,2-0.3,2.7-0.9c0.6-0.6,1-1.4,1-2.4v-0.7h-2.5c-1.8,0-3.2-0.5-4.2-1.5
				c-1-1-1.5-2.4-1.5-4.3c0-2,0.6-3.6,1.9-4.7s2.9-1.8,5-1.8h3.3v10.3h1.8h0.2h2.9c-0.6-1.6-0.9-3.1-0.9-4.3c0-1.5,0.3-2.8,0.9-4
				c0.6-0.5,1.3-0.9,2.1-1.2c0.8-0.3,1.6-0.5,2.5-0.5c1.1,0,2,0.2,2.8,0.7s1.4,1.1,1.8,2c0.4,0.9,0.6,1.8,0.6,2.9
				c0,1.1-0.2,2.1-0.5,3c0.4,0.6,0.8,0.9,1.2,1.1c0.4,0.2,1,0.3,1.8,0.3h0.1H97v-10.3h2.2v10.3h3.5h0.2h3.1v-17.2h2.2v17.2h3h0.3
				h3.1v-17.2h2.2V158.5z M124.3,158.5H122v-19.2h2.2V158.5z M162.7,155.5c-0.5,1-1.2,1.7-2,2.2c-0.9,0.5-1.9,0.8-3,0.8h-7h-0.2h-7
				c-2,0-3.6-0.5-4.7-1.5s-1.7-2.5-1.7-4.3c0-2,0.6-3.6,1.9-4.7c1.3-1.1,2.9-1.7,5-1.7h1.7v-1.6h2.2v11.9h2.6h0.2h2.9
				c-0.6-1.6-0.9-3.1-0.9-4.3c0-1.5,0.3-2.8,0.9-4c0.6-0.5,1.3-0.9,2.1-1.2c0.8-0.3,1.6-0.5,2.5-0.5c1.1,0,2,0.2,2.8,0.7
				s1.4,1.1,1.8,2c0.4,0.9,0.6,1.8,0.6,2.9C163.4,153.4,163.2,154.5,162.7,155.5z M192.5,158.5h-12.9h-0.3h-13.1v-2h8.4
				c-0.3-2.3-1-4.2-1.9-5.8c-0.9-1.6-2.3-3-4-4.1l0.8-1.9c1.9,1,3.5,2.5,4.7,4.5c1.2,2,2,4.4,2.4,7.3h2.6h0.3h10.6
				c-0.6-0.6-1.1-2.2-1.6-4.6c-0.2-1.5-0.6-2.5-1.1-3.1c-0.5-0.6-1.2-0.9-2.1-0.9c-1.2,0-2.4,0.3-3.7,1l-0.9-1.7
				c0.7-0.5,1.5-0.8,2.2-1s1.5-0.3,2.4-0.3c1,0,1.9,0.2,2.6,0.6c0.7,0.4,1.2,0.9,1.6,1.6c0.4,0.7,0.7,1.8,0.9,3.1
				c0.2,1.5,0.5,2.7,0.8,3.5c0.3,0.8,0.7,1.4,1.1,1.8V158.5z"/>
			<path fill="#D1A739" d="M85.3,148.4c-0.5,0-1.1,0.1-1.6,0.3c-0.5,0.2-1,0.4-1.4,0.8c-0.1,0.4-0.2,0.7-0.3,1.1s0,0.8,0,1.2
				c0,0.8,0.1,1.5,0.2,2.3c0.1,0.8,0.4,1.6,0.8,2.4h1.8c1.1,0,2-0.4,2.6-1.1c0.6-0.8,0.9-1.9,0.9-3.3c0-1.1-0.3-1.9-0.9-2.6
				S86.1,148.4,85.3,148.4z"/>
			<path fill="#D1A739" d="M140.5,149.3c-0.8,0.8-1.2,1.9-1.2,3.3c0,1.3,0.4,2.2,1.1,2.9c0.7,0.7,1.7,1,3,1h2.2v-8.3H144
				C142.5,148.2,141.4,148.6,140.5,149.3z"/>
			<path fill="#D1A739" d="M69,149.4c-0.8,0.8-1.3,1.9-1.3,3.3c0,1.3,0.3,2.3,0.9,2.9c0.6,0.6,1.4,0.9,2.6,0.9h2.4v-8.3h-1.1
				C71,148.2,69.9,148.6,69,149.4z"/>
			<path fill="#D1A739" d="M158.2,148.4c-0.5,0-1.1,0.1-1.6,0.3c-0.5,0.2-1,0.4-1.4,0.8c-0.1,0.4-0.2,0.7-0.3,1.1c0,0.4,0,0.8,0,1.2
				c0,0.8,0.1,1.5,0.2,2.3c0.1,0.8,0.4,1.6,0.8,2.4h1.8c1.1,0,2-0.4,2.6-1.1c0.6-0.8,0.9-1.9,0.9-3.3c0-1.1-0.3-1.9-0.9-2.6
				S159,148.4,158.2,148.4z"/>
		</g>
		<g>
			<path fill="#FFFFFF" d="M76.3,67.5c-2-3.5-4.6-4.7-8.6-4.1c0,0.5,0.1,1,0.1,1.6c0.1,2,0.2,4.1,0.2,6.1c0,1.3-0.4,2.5-2,3
				c-0.2-2.3-0.5-4.5-0.7-6.7c-0.6,0-1.2,0-1.8,0c-0.2,2.3-0.5,4.5-0.7,6.9c-0.6-0.5-1.2-0.7-1.4-1.2c-1.5-3.1-0.4-6.5-0.3-9.8
				c-3.9-0.5-6.5,0.6-8.4,3.8c-0.7,1.3-1.4,2.7-1.8,4.1c-1.8,6.1-1.8,12.3-1.3,18.6c0.1,1.5,1.4,2.3,2.8,2.1
				c1.3-0.2,1.9-1.2,1.9-2.7c0.1-4,0-8,0.3-12c0.1-2,0.7-4,1.2-6c0.2,0,0.3,0.1,0.5,0.1c0,3.8,0,7.5,0,11.2c0,10.6,0,21.3,0,31.9
				c0,0.5,0,0.9,0.1,1.5c0.2,1.7,1.6,3,3.4,3.1c2.3,0.2,4-1.5,4-4c0-8.4,0-16.7,0-25.1c0-0.5,0-1,0-1.7c0.5,0,0.9,0.1,1.4,0.1
				c0,0.6,0,1.2,0,1.8c0,8.3,0,16.5,0,24.8c0,2.5,1.5,4.2,3.7,4.2c2.2,0,3.7-1.6,3.7-4.1c0-8.2,0-16.3,0-24.5c0-6.4,0-12.9,0-19.3
				c0.1,0,0.2,0,0.3,0c0.3,0.9,0.5,1.9,0.7,2.7c1.2,4.9,0.9,10,0.8,15c0,1.9,0.7,2.9,2.2,2.9c1.6,0.1,2.5-0.9,2.5-2.8
				c0-3.4,0.1-6.7,0-10.1C78.9,74.9,78.4,71,76.3,67.5z"/>
			<path fill="#FFFFFF" d="M56.8,51.6c1.5,0.1,1.2,0.9,0.9,1.8c-0.8,4.2,2.3,8,6.6,8c4.4,0,7.5-3.7,6.6-8.2
				c-0.1-0.8-0.2-1.4,0.8-1.6c0.4-0.1,0.9-0.9,0.9-1.4c-0.1-0.9-0.5-2-1-2.8c-3-4.5-10.9-4.8-14.3-0.5c-0.7,0.9-1,2.1-1.4,3.3
				C56,50.7,56.5,51.6,56.8,51.6z M63,48.7c2.8-0.1,5.8-0.4,8,2c-4.4-1.6-8.7-1.7-13,0C59,48.8,61.1,48.8,63,48.7z"/>
			<path fill="#FFFFFF" d="M64.5,66.8c0.5-0.8,1.2-1.3,1.2-1.7c-0.1-0.7,0.3-1.9-1.2-1.9c-1.5,0-0.9,1.3-1.2,2
				C63.2,65.6,63.8,66.1,64.5,66.8z"/>
			<path fill="#FFFFFF" d="M168.5,79.6c-1-0.8-2.1-1.8-3.1-2.7c-0.4-0.3-0.8-0.7-1.4-1.3c0.7,0,1.3,0,1.8,0c2.1-0.1,3.9-1.8,4.2-3.8
				c0.3-2-0.9-3.9-2.9-4.6c-1.4-0.5-2.7-0.4-4,0.2c-1.7,0.7-3.3,1.6-5,2.3c-0.3-0.6-0.5-1.2-0.8-1.6c-1.5-2.7-2.9-5.5-4.5-8.1
				c-1.9-3-4.8-4.6-8.5-4.6c-11.5,0-23.2,0-34.8,0c-3.4,0-6.3,1.3-8.2,4.1c-1.7,2.5-3.1,5.2-4.6,7.9c-0.4,0.7-0.7,1.6-1.2,2.4
				c-1.6-0.7-3.1-1.6-4.7-2.2c-0.9-0.4-2-0.6-3-0.6c-2.3,0-4.2,2.1-4.2,4.3c0,2.2,1.9,4.2,4.3,4.3c0.5,0,0.9,0,1.5,0
				c0,0.1,0.1,0.2,0.1,0.2c-0.2,0.1-0.4,0.2-0.5,0.4c-1.7,1.5-3.4,2.7-4.9,4.3c-1.9,1.8-3.3,4.1-3.3,6.7c-0.1,6,0,11.9,0,17.8
				c0,1.8,0.4,3.5,1.7,4.7c1.2,1.3,1.4,2.5,1.3,4.1c0,0.3,0,0.6,0,0.9c0,2.2,1.9,4.1,4.1,4.1c4.9,0,10,0,14.9,0
				c2.3,0,4.1-1.8,4.1-4.1c0-0.5,0-1,0-1.6c13.5,0,27,0,40.5,0c0,0.6,0,1,0,1.6c0,2.2,1.8,4.1,4.1,4.1c5,0,10,0,15,0
				c1.8,0,3.4-1.3,3.9-2.9c0.2-0.8,0.2-1.7,0.2-2.5c-0.1-1.4,0-2.5,1.2-3.5c0.2-0.1,0.3-0.4,0.4-0.6c0.4-1,0.8-2.2,1.4-3.4
				c0-6.6,0-13.1,0-19.7C172.1,83.8,170.7,81.4,168.5,79.6z M163.4,97.3c-0.7,1-1.7,1.6-2.9,1.6c-0.7,0-1.6,0-2.3,0s-1.5,0-2.3,0
				c-1.5,0-3,0-4.5,0c-0.7,0-1.3-0.2-1.5-0.9s0-1.5,0.6-1.9c1.3-0.8,2.5-1.6,3.9-2.4c1.6-0.9,3.1-1.9,4.7-2.8
				c1.5-0.9,3.1-0.6,4.2,0.8C164.4,93.2,164.4,95.6,163.4,97.3z M126.5,88.1c-0.7,0-1.4-0.6-1.4-1.4s0.6-1.4,1.4-1.4
				c0.7,0,1.4,0.6,1.4,1.4C127.9,87.5,127.2,88.1,126.5,88.1z M140.9,94.9c-0.2,1.2-0.5,2.2-0.8,3.4c-0.1,0.5-0.4,0.7-0.9,0.7
				c-8.3,0-16.6,0-24.9,0c-0.5,0-0.9-0.1-1-0.7c-0.3-1.3-0.6-2.5-0.8-3.8c-0.1-1,0.1-1.3,1.3-1.3c2.9,0,5.9,0,8.7,0
				c1.5,0,2.9,0,4.3,0c4.3,0,8.5,0,12.8,0C140.8,93.1,141.1,93.4,140.9,94.9z M90,91.4c1-1.3,2.6-1.6,4-0.6c2.8,1.7,5.7,3.5,8.5,5.1
				c0.7,0.4,0.9,1.2,0.8,1.9c-0.2,0.8-0.7,1-1.6,1c-1.5,0-3,0-4.5,0c-1.4,0-2.7,0-4.1,0c-2.3,0-3.7-1-4.1-3.4
				C88.7,93.9,89,92.5,90,91.4z M159.8,72.2c1.6-0.7,3.1-1.5,4.7-2.1c0.3-0.1,0.8-0.1,1.3,0c0.6,0.1,1.2,0.6,1.2,1.3
				c0,0.7-0.5,1.3-1.3,1.4c-0.6,0.1-1.3,0.1-1.9,0.1c-0.9,0-1.9,0-2.8,0c-0.4,0-0.7-0.2-1.2-0.4C159.8,72.3,159.8,72.2,159.8,72.2z
				 M97,72.5c1.4-2.6,2.7-5.4,4.1-8c0.5-1,1.3-2,1.9-2.9c1.5-2.2,3.7-3.1,6.3-3.1c11.4,0,22.9,0,34.3,0c2.5,0,4.7,0.8,6.1,3
				c1.7,2.7,3.1,5.6,4.7,8.3c0.5,0.8,0.9,1.8,1.4,2.6c0.6,1.2,0.4,2.2-0.8,2.7c-0.7,0.3-1.6,0.5-2.4,0.5c-8.7,0-17.4,0-26.1,0l0,0
				c-8.7,0-17.4,0-26.1,0c-1,0-2-0.1-2.8-0.8C96.7,74.2,96.6,73.3,97,72.5z M87.8,72.8c-0.7,0-1.4-0.3-1.7-1c-0.1-0.3,0-0.9,0.2-1.3
				c0.4-0.6,1.3-0.8,1.9-0.6c1.6,0.6,3.3,1.5,4.8,2.1c0,0.1,0,0.2,0,0.3c-0.3,0.1-0.6,0.4-0.9,0.4C90.7,72.8,89.2,72.8,87.8,72.8z
				 M165.8,110.2c-0.6,0.1-1.3,0.2-1.9,0.2c-24.8,0-49.7,0-74.4,0c-1,0-2.2-0.2-3.1-0.5c-1.8-0.6-2.7-2.1-3-3.8
				c1.4,0.4,2.7,1.2,4.1,1.4c2.1,0.2,4.3,0.1,6.4,0.1c23.2,0,46.5,0,69.7,0c2.2,0,4.2-0.4,6.1-1.8
				C169.5,108,167.9,109.8,165.8,110.2z"/>
		</g>
	</g>
</g>
<g id="Layer_4">
</g>
<g id="Layer_3">
</g>
<g id="Layer_2">
</g>
</svg>
