<?xml version="1.0" encoding="utf-8"?>
<!-- Generator: Adobe Illustrator 18.0.0, SVG Export Plug-In . SVG Version: 6.00 Build 0)  -->
<!DOCTYPE svg PUBLIC "-//W3C//DTD SVG 1.0//EN" "http://www.w3.org/TR/2001/REC-SVG-20010904/DTD/svg10.dtd">
<svg version="1.0" xmlns="http://www.w3.org/2000/svg" xmlns:xlink="http://www.w3.org/1999/xlink" x="0px" y="0px"
	 viewBox="0 0 136 161.5" enable-background="new 0 0 136 161.5" xml:space="preserve">
<g id="Layer_1">
</g>
<g id="Layer_2">
	<g>
		<path fill="#D4B02A" d="M114.2,63c-0.4-3.9-2.5-6.1-5.8-7.5c-0.8-0.3-1.5-0.7-2.3-0.9c-8.6-2.7-17.2-3.6-26.1-1.8
			c-3.9,0.8-7.7,1.5-11.1,3.5c-2.3,1.4-3.8,3.3-4,6c-0.3,2.7-0.8,5.4-1.1,8.1c-0.5,4.3-1.3,8.6-1.5,12.9c-0.3,8.4-0.1,16.8-0.1,25.1
			c0,0.5,0,1.1,0,1.7c1.6,0,2.9,0,4.5,0c0,1.5,0,2.8,0,4.1c0,2.7,1.5,4.3,3.9,4.4s4-1.6,4.1-4.3c0-1.4,0-2.7,0-4
			c9.9,0,19.6,0,29.4,0c0,1.5,0,2.7,0,4c0.1,2.7,1.6,4.3,4,4.3s4-1.7,4-4.4c0-1.4,0-2.7,0-4.1c1.6,0,3,0,4.5,0c0-0.7,0-1.3,0-1.9
			c0-5.3-0.2-10.7,0-16C117.1,82.4,115.3,72.8,114.2,63z M78.1,57.2c7.5,0,15,0,22.4,0c1,0,1.5,0.5,1.6,1.5c0.1,1-0.5,1.7-1.5,1.8
			c-1.5,0.1-3,0.1-4.5,0.1c-2.2,0-4.5,0-6.8,0c-3.3,0-6.7,0-10,0c-0.4,0-1.1,0.2-1.4-0.1c-0.6-0.4-1.3-1.1-1.4-1.7
			C76.4,57.8,77.1,57.2,78.1,57.2z M70.6,101.5c-2.1-0.1-3.7-1.7-3.7-3.9s1.6-3.8,3.8-3.7c2.1,0,3.8,1.6,3.8,3.8
			C74.4,99.8,72.7,101.5,70.6,101.5z M89.3,84.4c-6.5,0-13,0-19.4,0c-2.5,0-3.2-0.8-2.9-3.1c0.7-4.9,1.4-9.9,2.1-14.7
			c0.3-2.1,1.1-2.7,3.3-2.7c11.4,0,22.7,0,34.1,0c2.2,0,2.9,0.5,3.3,2.7c0.8,5,1.5,9.9,2.1,14.9c0.3,2.3-0.4,3-2.8,3
			C102.3,84.4,95.8,84.4,89.3,84.4z M108.1,101.5c-2.1,0-3.8-1.7-3.8-3.8c0-2.1,1.7-3.9,3.9-3.8c2.1,0,3.7,1.6,3.7,3.9
			C111.8,99.9,110.1,101.5,108.1,101.5z"/>
	</g>
	<g>
		<rect x="5.3" y="3.9" fill="#CCCCCC" width="1.6" height="153.6"/>
	</g>
	<g>
		<path fill="#D4B02A" d="M41.8,69.8v42.2l9.3-9.2c1-1.1,2-1.1,3-0.1c1,1,1,2-0.1,3l-12.9,12.9c-0.2,0.3-0.4,0.4-0.7,0.5
			c-0.5,0.2-1.1,0.2-1.6,0c-0.3-0.1-0.5-0.3-0.7-0.5l-12.9-12.9c-1.1-1-1.1-2-0.1-3c1-1,2-1,3,0.1l9.3,9.2V69.8
			c0-0.6,0.2-1.1,0.6-1.5s0.9-0.6,1.5-0.6c0.6,0,1.1,0.2,1.5,0.6S41.8,69.1,41.8,69.8z"/>
	</g>
</g>
</svg>
