<?xml version="1.0" encoding="utf-8"?>
<!-- Generator: Adobe Illustrator 18.0.0, SVG Export Plug-In . SVG Version: 6.00 Build 0)  -->
<!DOCTYPE svg PUBLIC "-//W3C//DTD SVG 1.0//EN" "http://www.w3.org/TR/2001/REC-SVG-20010904/DTD/svg10.dtd">
<svg version="1.0" id="Layer_1" xmlns="http://www.w3.org/2000/svg" xmlns:xlink="http://www.w3.org/1999/xlink" x="0px" y="0px"
	 viewBox="0 0 5.5 9.5" enable-background="new 0 0 5.5 9.5" xml:space="preserve">
<g>
	<path fill="#D2A837" d="M0,0.8c0-0.1,0-0.2,0.1-0.2l0.5-0.5C0.6,0,0.7,0,0.8,0C0.9,0,1,0,1,0.1l4.4,4.4c0.1,0.1,0.1,0.1,0.1,0.2
		s0,0.2-0.1,0.2L1,9.4C1,9.5,0.9,9.5,0.8,9.5s-0.2,0-0.2-0.1L0.1,8.9C0,8.9,0,8.8,0,8.7s0-0.2,0.1-0.2l3.7-3.7L0.1,1
		C0,1,0,0.9,0,0.8z"/>
</g>
</svg>
