<?xml version="1.0" encoding="utf-8"?>
<!-- Generator: Adobe Illustrator 18.0.0, SVG Export Plug-In . SVG Version: 6.00 Build 0)  -->
<!DOCTYPE svg PUBLIC "-//W3C//DTD SVG 1.0//EN" "http://www.w3.org/TR/2001/REC-SVG-20010904/DTD/svg10.dtd">
<svg version="1.0" id="Layer_1" xmlns="http://www.w3.org/2000/svg" xmlns:xlink="http://www.w3.org/1999/xlink" x="0px" y="0px"
	 viewBox="0 0 5.5 9.5" enable-background="new 0 0 5.5 9.5" xml:space="preserve">
<g>
	<path fill="#D2A837" d="M5.4,1L1.7,4.8l3.7,3.7c0.1,0.1,0.1,0.1,0.1,0.2s0,0.2-0.1,0.2L5,9.4C4.9,9.5,4.8,9.5,4.8,9.5
		s-0.2,0-0.2-0.1L0.1,5C0,4.9,0,4.8,0,4.8s0-0.2,0.1-0.2l4.4-4.4C4.6,0,4.7,0,4.8,0S4.9,0,5,0.1l0.5,0.5c0.1,0.1,0.1,0.1,0.1,0.2
		C5.5,0.9,5.5,1,5.4,1z"/>
</g>
</svg>
