<?xml version="1.0" encoding="utf-8"?>
<!-- Generator: Adobe Illustrator 18.0.0, SVG Export Plug-In . SVG Version: 6.00 Build 0)  -->
<!DOCTYPE svg PUBLIC "-//W3C//DTD SVG 1.0//EN" "http://www.w3.org/TR/2001/REC-SVG-20010904/DTD/svg10.dtd">
<svg version="1.0" xmlns="http://www.w3.org/2000/svg" xmlns:xlink="http://www.w3.org/1999/xlink" x="0px" y="0px"
	 viewBox="0 0 136 161.5" enable-background="new 0 0 136 161.5" xml:space="preserve">
<g id="Layer_1">
</g>
<g id="Layer_2">
	<g>
		<rect x="5.3" y="3.9" fill="#CCCCCC" width="1.6" height="153.6"/>
	</g>
	<g>
		<path fill="#D4B02A" d="M102.3,107.7c0,2.5-2.1,4.7-4.7,4.7H46.4c-2.5,0-4.7-2.1-4.7-4.7V61.1c0-2.5,2.1-4.7,4.7-4.7h4.7V53
			c0-3.2,2.6-5.8,5.8-5.8h2.3c3.2,0,5.8,2.6,5.8,5.8v3.5h14V53c0-3.2,2.6-5.8,5.8-5.8h2.3c3.2,0,5.8,2.6,5.8,5.8v3.5h4.7
			c2.5,0,4.7,2.1,4.7,4.7V107.7z M56.9,80.9V70.4H46.4v10.5H56.9z M56.9,94.9V83.2H46.4v11.6H56.9z M56.9,107.7V97.2H46.4v10.5H56.9
			z M60.4,53c0-0.6-0.5-1.2-1.2-1.2h-2.3c-0.6,0-1.2,0.5-1.2,1.2v10.5c0,0.6,0.5,1.2,1.2,1.2h2.3c0.6,0,1.2-0.5,1.2-1.2V53z
			 M70.8,80.9V70.4H59.2v10.5H70.8z M70.8,94.9V83.2H59.2v11.6H70.8z M70.8,107.7V97.2H59.2v10.5H70.8z M84.8,80.9V70.4H73.2v10.5
			H84.8z M84.8,94.9V83.2H73.2v11.6H84.8z M84.8,107.7V97.2H73.2v10.5H84.8z M88.3,53c0-0.6-0.5-1.2-1.2-1.2h-2.3
			c-0.6,0-1.2,0.5-1.2,1.2v10.5c0,0.6,0.5,1.2,1.2,1.2h2.3c0.6,0,1.2-0.5,1.2-1.2V53z M97.6,80.9V70.4H87.1v10.5H97.6z M97.6,94.9
			V83.2H87.1v11.6H97.6z M97.6,107.7V97.2H87.1v10.5H97.6z"/>
	</g>
</g>
</svg>
