<?xml version="1.0" encoding="utf-8"?>
<!-- Generator: Adobe Illustrator 18.0.0, SVG Export Plug-In . SVG Version: 6.00 Build 0)  -->
<!DOCTYPE svg PUBLIC "-//W3C//DTD SVG 1.0//EN" "http://www.w3.org/TR/2001/REC-SVG-20010904/DTD/svg10.dtd">
<svg version="1.0" xmlns="http://www.w3.org/2000/svg" xmlns:xlink="http://www.w3.org/1999/xlink" x="0px" y="0px"
	 viewBox="0 0 63.5 63.5" enable-background="new 0 0 63.5 63.5" xml:space="preserve">
<g id="Layer_5">
</g>
<g id="Layer_1">
	<g>
		<path fill="#D4B02A" d="M43.4,40.6c0,3.1-2.5,5.6-5.6,5.6H21.4c-3.1,0-5.6-2.5-5.6-5.6V24.3c0-3.1,2.5-5.6,5.6-5.6h16.3
			c0.8,0,1.6,0.2,2.3,0.5c0.2,0.1,0.3,0.3,0.4,0.5c0,0.2,0,0.4-0.2,0.6l-1,1c-0.2,0.2-0.4,0.2-0.6,0.2c-0.3-0.1-0.6-0.1-0.9-0.1
			H21.4c-1.7,0-3.1,1.4-3.1,3.1v16.3c0,1.7,1.4,3.1,3.1,3.1h16.3c1.7,0,3.1-1.4,3.1-3.1v-2.5c0-0.2,0.1-0.3,0.2-0.4l1.3-1.3
			c0.2-0.2,0.5-0.2,0.7-0.1c0.2,0.1,0.4,0.3,0.4,0.6V40.6z M47.2,28.1L34,41.2h-5.6v-5.6l13.2-13.2L47.2,28.1z M35.5,37.1l-3-3
			l-2.3,2.3v1.1h1.9v1.9h1.1L35.5,37.1z M41.2,25.3l-6.9,6.9c-0.2,0.2-0.2,0.5,0,0.6c0.2,0.2,0.5,0.2,0.6,0l6.9-6.9
			c0.2-0.2,0.2-0.5,0-0.6C41.6,25.1,41.3,25.1,41.2,25.3z M48.4,26.8l-5.6-5.6l1.8-1.8c0.7-0.7,1.9-0.7,2.7,0l3,3
			c0.7,0.7,0.7,1.9,0,2.7L48.4,26.8z"/>
	</g>
	<g>
		<g>
			<path fill="#D2A837" d="M31.8,0C14.2,0,0,14.2,0,31.8s14.2,31.8,31.8,31.8s31.8-14.2,31.8-31.8S49.3,0,31.8,0z M31.8,59.5
				C16.4,59.5,4,47.1,4,31.8S16.4,4,31.8,4s27.8,12.5,27.8,27.8S47.1,59.5,31.8,59.5z"/>
		</g>
	</g>
</g>
<g id="Layer_4">
</g>
<g id="Layer_3">
</g>
<g id="Layer_2">
</g>
</svg>
