<?xml version="1.0" encoding="utf-8"?>
<!-- Generator: Adobe Illustrator 18.0.0, SVG Export Plug-In . SVG Version: 6.00 Build 0)  -->
<!DOCTYPE svg PUBLIC "-//W3C//DTD SVG 1.0//EN" "http://www.w3.org/TR/2001/REC-SVG-20010904/DTD/svg10.dtd">
<svg version="1.0" xmlns="http://www.w3.org/2000/svg" xmlns:xlink="http://www.w3.org/1999/xlink" x="0px" y="0px"
	 viewBox="0 0 221.8 214.2" enable-background="new 0 0 221.8 214.2" xml:space="preserve">
<g id="Layer_5">
</g>
<g id="Layer_6">
	<rect x="43" y="135.4" fill="#FFFFFF" width="137.9" height="33.6"/>
</g>
<g id="Layer_1">
	<g>
		<path fill="#63A4D9" d="M84.7,147.6c-1.1,0-1.9,0.4-2.4,1.3c-0.5,0.9-0.8,1.9-0.8,3.2v0.3c0,1.3,0.3,2.4,0.8,3.3
			c0.5,0.8,1.3,1.3,2.4,1.3c1.1,0,1.9-0.4,2.4-1.3c0.5-0.8,0.8-1.9,0.8-3.3v-0.3c0-1.3-0.3-2.4-0.8-3.2
			C86.6,148.1,85.8,147.6,84.7,147.6z"/>
		<path fill="#63A4D9" d="M117,153.7c-0.5,0.4-0.8,1-0.8,1.6c0,0.5,0.2,0.9,0.5,1.3c0.3,0.3,0.8,0.5,1.5,0.5c0.8,0,1.5-0.2,2.1-0.6
			c0.6-0.4,1-0.8,1.2-1.3v-2h-2.5C118.2,153,117.5,153.2,117,153.7z"/>
		<path fill="#63A4D9" d="M69.9,147.6c-1.1,0-1.9,0.4-2.4,1.3c-0.5,0.9-0.8,1.9-0.8,3.2v0.3c0,1.3,0.3,2.4,0.8,3.3
			c0.5,0.8,1.3,1.3,2.4,1.3c1.1,0,1.9-0.4,2.4-1.3c0.5-0.8,0.8-1.9,0.8-3.3v-0.3c0-1.3-0.3-2.4-0.8-3.2
			C71.8,148.1,71,147.6,69.9,147.6z"/>
		<path fill="#63A4D9" d="M56.7,147.8c0.6-0.5,0.8-1.1,0.8-1.9c0-0.9-0.3-1.6-0.9-2c-0.6-0.4-1.4-0.7-2.6-0.7H51v5.3h3.4
			C55.4,148.5,56.2,148.2,56.7,147.8z"/>
		<path fill="#63A4D9" d="M-2.3-2v219.2h226.8V-2H-2.3z M59.6,157.8c-1.1,0.9-2.7,1.4-4.7,1.4h-7v-18.5h6.1c2,0,3.6,0.4,4.8,1.3
			c1.2,0.8,1.7,2.1,1.7,3.8c0,0.8-0.2,1.6-0.7,2.2s-1.2,1.2-2,1.5c1.1,0.2,1.9,0.8,2.5,1.6s0.9,1.8,0.9,2.8
			C61.3,155.6,60.8,156.9,59.6,157.8z M76.3,152.4c0,2.1-0.6,3.7-1.7,5.1c-1.1,1.3-2.7,1.9-4.6,1.9c-2,0-3.5-0.7-4.6-2
			c-1.1-1.3-1.7-3-1.7-5v-0.3c0-2,0.6-3.7,1.7-5c1.1-1.3,2.7-2,4.6-2c2,0,3.5,0.7,4.6,2c1.1,1.3,1.7,3,1.7,5V152.4z M91,152.4
			c0,2.1-0.6,3.7-1.7,5.1c-1.1,1.3-2.7,1.9-4.6,1.9c-2,0-3.5-0.7-4.6-2c-1.1-1.3-1.7-3-1.7-5v-0.3c0-2,0.6-3.7,1.7-5
			c1.1-1.3,2.7-2,4.6-2c2,0,3.5,0.7,4.6,2c1.1,1.3,1.7,3,1.7,5V152.4z M102.2,159.2l-4.1-6h-1.4v6h-3.1v-19.8h3.1v11.3H98l3.5-5.3
			h3.6l-4.5,6.2l5.2,7.5H102.2z M122,159.2c-0.1-0.3-0.2-0.7-0.3-1c-0.1-0.3-0.1-0.7-0.1-1c-0.4,0.6-1,1.2-1.7,1.6
			c-0.7,0.4-1.5,0.7-2.3,0.7c-1.4,0-2.5-0.4-3.3-1.1c-0.8-0.7-1.1-1.7-1.1-3c0-1.3,0.5-2.4,1.6-3.1c1-0.7,2.5-1.1,4.4-1.1h2.4v-1.2
			c0-0.7-0.2-1.3-0.6-1.7s-1-0.6-1.8-0.6c-0.7,0-1.3,0.2-1.7,0.5s-0.6,0.8-0.6,1.3h-3l0-0.1c-0.1-1.1,0.4-2,1.5-2.9
			c1-0.8,2.4-1.3,4-1.3c1.6,0,2.9,0.4,3.9,1.2s1.5,2,1.5,3.5v6.1c0,0.6,0,1.1,0.1,1.6c0.1,0.5,0.2,1,0.4,1.5H122z M147.4,143.1h-5.6
			v16h-3.1v-16h-5.6v-2.5h14.3V143.1z M155.4,148.2l-1.3-0.1c-0.6,0-1.1,0.1-1.5,0.4c-0.4,0.3-0.7,0.6-0.9,1.1v9.5h-3.1v-13.7h2.8
			l0.2,2c0.3-0.7,0.8-1.3,1.3-1.7c0.5-0.4,1.2-0.6,1.9-0.6c0.2,0,0.4,0,0.5,0c0.2,0,0.3,0.1,0.4,0.1L155.4,148.2z M160.8,159.2h-3.1
			v-13.7h3.1V159.2z M160.8,142.1h-3.1v-2.7h3.1V142.1z M176.3,152.7c0,2-0.5,3.6-1.4,4.8s-2.2,1.8-3.9,1.8c-0.8,0-1.5-0.1-2.1-0.4
			s-1.1-0.7-1.5-1.2v6.7h-3.1v-19h2.6l0.3,1.7c0.4-0.6,1-1.1,1.6-1.5c0.6-0.3,1.3-0.5,2.2-0.5c1.7,0,3,0.7,4,2
			c0.9,1.3,1.4,3.1,1.4,5.3V152.7z"/>
		<path fill="#63A4D9" d="M170.1,147.7c-0.6,0-1.2,0.1-1.6,0.4s-0.8,0.7-1.1,1.1v6.2c0.3,0.5,0.6,0.9,1.1,1.1s1,0.4,1.7,0.4
			c1,0,1.8-0.4,2.4-1.2c0.5-0.8,0.8-1.8,0.8-3v-0.3c0-1.4-0.3-2.5-0.8-3.4C171.9,148.1,171.1,147.7,170.1,147.7z"/>
		<path fill="#63A4D9" d="M55.3,150.7H51v5.9h3.9c1.1,0,1.9-0.2,2.5-0.7s0.9-1.2,0.9-2.1c0-1-0.2-1.7-0.7-2.3
			C57.1,151,56.3,150.7,55.3,150.7z"/>
	</g>
	<g>
		<path fill="#FFFFFF" d="M162.3,51.7c-0.5-4.7-3-7.5-7.1-9.1c-0.9-0.4-1.9-0.8-2.8-1c-10.5-3.3-21.1-4.4-32-2.2
			c-4.7,0.9-9.4,1.9-13.6,4.3c-2.8,1.7-4.6,4-4.9,7.3c-0.3,3.4-0.9,6.6-1.4,9.9c-0.6,5.2-1.6,10.5-1.8,15.9
			c-0.3,10.3-0.1,20.6-0.1,30.8c0,0.6,0,1.4,0,2.1c2,0,3.6,0,5.6,0c0,1.9,0,3.5,0,5c0,3.3,1.9,5.2,4.8,5.4c2.9,0.1,4.9-2,5-5.2
			c0-1.7,0-3.3,0-4.9c12.2,0,24,0,36,0c0,1.8,0,3.4,0,4.9c0.1,3.3,2,5.2,4.9,5.2s4.9-2.1,4.9-5.4c0-1.7,0-3.3,0-5c2,0,3.7,0,5.6,0
			c0-0.8,0-1.6,0-2.3c0-6.5-0.2-13.1,0-19.6C165.8,75.6,163.6,63.7,162.3,51.7z M118.1,44.6c9.1,0,18.4,0,27.5,0
			c1.3,0,1.9,0.6,2,1.9c0.1,1.3-0.6,2.1-1.9,2.2c-1.9,0.1-3.7,0.1-5.6,0.1c-2.7,0-5.6,0-8.3,0c-4.1,0-8.2,0-12.3,0
			c-0.5,0-1.4,0.2-1.7-0.1c-0.7-0.5-1.6-1.4-1.7-2.1C116,45.3,116.8,44.6,118.1,44.6z M108.8,99c-2.6-0.1-4.5-2.1-4.5-4.7
			s2-4.6,4.6-4.5c2.6,0,4.6,2,4.6,4.6C113.6,96.9,111.5,99,108.8,99z M131.8,78c-8,0-16,0-23.8,0c-3,0-3.9-0.9-3.6-3.8
			c0.8-6,1.7-12.1,2.6-18.1c0.4-2.6,1.4-3.4,4-3.4c14,0,27.8,0,41.8,0c2.7,0,3.6,0.6,4,3.4c0.9,6.1,1.8,12.2,2.6,18.3
			c0.3,2.8-0.5,3.7-3.5,3.7C147.8,78,139.8,78,131.8,78z M154.8,99c-2.5,0-4.6-2.1-4.6-4.6c0-2.6,2.1-4.7,4.8-4.6
			c2.6,0,4.5,2,4.5,4.7C159.4,97,157.3,99,154.8,99z"/>
		<path fill="#FFFFFF" d="M89.9,71.2c-2.5,2.6-5.1,5.2-7.8,7.9c-0.4,0.4-1,0.6-1.6,0.6c-2.6,0.1-5.1,0-7.8,0c-3.1,0-5.4,2.2-5.4,5.4
			c0,3.1,0,6.2,0,9.3c0,0.4,0,0.7,0,1.2C65.3,96,65.3,96,65,98.8c-0.7,0-1.6,0-2.4,0c0,4.7,0,9.2,0,14c3,0,6,0,9.1,0
			c0,1.6,0,3,0,4.4c0,1.7,0.8,2.6,2.3,2.6c1.7,0,2.5-0.8,2.5-2.6c0-5.7,0-11.3,0-17c0-0.4,0-0.8,0-1.3c0.2,0,0.3-0.1,0.5-0.1
			c0.1,0.3,0.2,0.7,0.2,1c0,5.8,0,11.5,0,17.3c0,1.8,0.9,2.6,2.7,2.5c1-0.1,1.9-0.7,2-1.8c0.1-0.5,0.1-0.9,0.1-1.5
			c0-10.1,0-20.3,0-30.3c0-0.8,0.2-1.4,0.8-2c3.4-3.4,6.7-6.7,10.1-10.2c1-1,1.2-2.2,0.2-3.1C92.1,70.1,90.9,70.3,89.9,71.2z
			 M69.8,98.8c-1.3,0-2.3,0-3.5,0c0-0.6,0-1.3,0-1.8c1.2,0,2.3,0,3.5,0C69.8,97.6,69.8,98.1,69.8,98.8z M71.4,98.9
			c-0.1-0.1-0.2-0.1-0.3-0.2c0-3.9,0-7.9,0-11.8c0-0.2,0.2-0.3,0.3-0.5c0.1,0.2,0.3,0.4,0.3,0.6c0,3.7,0,7.5,0,11.1
			C71.7,98.3,71.5,98.7,71.4,98.9z"/>
		<path fill="#FFFFFF" d="M76.7,78.8c2.3,0,4.2-1.9,4.1-4.2c0-2.3-1.9-4-4.1-4.1c-2.3,0-4.2,1.8-4.2,4.1
			C72.5,77,74.4,78.8,76.7,78.8z"/>
		<path fill="#FFFFFF" d="M59.7,98.8c-1,0-1.8,0.6-1.8,1.7c0,3.5,0,7,0,10.5c0,1,0.7,1.6,1.8,1.7c0.6,0,1.3,0,1.9,0
			c0-4.7,0-9.2,0-14C60.9,98.8,60.2,98.8,59.7,98.8z"/>
	</g>
</g>
<g id="Layer_4">
</g>
<g id="Layer_3">
</g>
<g id="Layer_2">
</g>
</svg>
