<?xml version="1.0" encoding="utf-8"?>
<!-- Generator: Adobe Illustrator 18.0.0, SVG Export Plug-In . SVG Version: 6.00 Build 0)  -->
<!DOCTYPE svg PUBLIC "-//W3C//DTD SVG 1.0//EN" "http://www.w3.org/TR/2001/REC-SVG-20010904/DTD/svg10.dtd">
<svg version="1.0" xmlns="http://www.w3.org/2000/svg" xmlns:xlink="http://www.w3.org/1999/xlink" x="0px" y="0px"
	 viewBox="0 0 221.8 214.2" enable-background="new 0 0 221.8 214.2" xml:space="preserve">
<g id="Layer_5">
</g>
<g id="Layer_6">
	<rect x="45.5" y="138.4" fill="#FFFFFF" width="130" height="25.6"/>
</g>
<g id="Layer_1">
	<g>
		<path fill="#356FA1" d="M113.7,153.8c-0.5,0.4-0.8,1-0.8,1.6c0,0.5,0.2,0.9,0.5,1.3c0.3,0.3,0.8,0.5,1.5,0.5
			c0.8,0,1.5-0.2,2.1-0.6c0.6-0.4,1-0.8,1.2-1.3v-2h-2.5C114.9,153.1,114.2,153.4,113.7,153.8z"/>
		<path fill="#356FA1" d="M140.2,147.9c0.6-0.5,0.8-1.1,0.8-1.9c0-0.9-0.3-1.6-0.9-2c-0.6-0.4-1.4-0.7-2.6-0.7h-3.1v5.3h3.4
			C138.8,148.6,139.6,148.4,140.2,147.9z"/>
		<path fill="#356FA1" d="M138.7,150.9h-4.2v5.9h3.9c1.1,0,1.9-0.2,2.5-0.7s0.9-1.2,0.9-2.1c0-1-0.2-1.7-0.7-2.3
			C140.5,151.2,139.7,150.9,138.7,150.9z"/>
		<path fill="#356FA1" d="M56.4,143.3h-3.7v5.9h3.6c1.2,0,2.1-0.2,2.7-0.7s0.9-1.2,0.9-2.2c0-0.9-0.3-1.7-0.8-2.2
			C58.4,143.6,57.5,143.3,56.4,143.3z"/>
		<path fill="#356FA1" d="M71.9,147.8c-0.8,0-1.4,0.3-1.9,0.9c-0.5,0.6-0.8,1.4-0.9,2.3l0,0.1h5.4v-0.3c0-0.9-0.2-1.6-0.7-2.1
			C73.5,148.1,72.8,147.8,71.9,147.8z"/>
		<path fill="#356FA1" d="M-2-2v218.2h225.8V-2H-2z M63.8,159.3h-3.2c-0.3-0.3-0.6-0.7-0.7-1.3c-0.1-0.6-0.1-1.2-0.1-1.8v-1.5
			c0-0.9-0.3-1.7-0.8-2.3s-1.3-0.8-2.2-0.8h-4.1v7.7h-3.1v-18.5h6.8c2.1,0,3.7,0.5,4.8,1.4s1.7,2.3,1.7,4c0,1-0.2,1.8-0.7,2.5
			c-0.5,0.7-1.2,1.2-2.2,1.7c1,0.3,1.8,0.9,2.2,1.6c0.5,0.8,0.7,1.7,0.7,2.8v1.5c0,0.5,0.1,1.1,0.2,1.6s0.4,0.9,0.7,1.2V159.3z
			 M77.7,153.3h-8.6l0,0.1c0.1,1.1,0.4,2,1,2.7c0.6,0.7,1.4,1,2.4,1c0.8,0,1.5-0.1,2.1-0.3s1.2-0.5,1.7-0.9l1,2
			c-0.5,0.5-1.2,0.8-2.1,1.2c-0.9,0.3-1.8,0.5-3,0.5c-1.9,0-3.5-0.6-4.7-1.9c-1.2-1.3-1.7-2.9-1.7-4.9v-0.5c0-2,0.6-3.7,1.7-5
			c1.1-1.3,2.6-2,4.3-2c1.9,0,3.3,0.6,4.3,1.7c1,1.1,1.5,2.6,1.5,4.5V153.3z M91.7,159.3h-3.1v-8.6c0-1-0.2-1.8-0.6-2.2
			c-0.4-0.4-1.1-0.7-1.9-0.7c-0.6,0-1.1,0.1-1.6,0.4c-0.5,0.3-0.9,0.6-1.2,1.1v10h-3.1v-13.7h2.8l0.2,2c0.4-0.7,1-1.3,1.7-1.6
			c0.7-0.4,1.4-0.6,2.3-0.6c1.4,0,2.5,0.4,3.3,1.3c0.8,0.9,1.2,2.2,1.2,4.1V159.3z M100.4,159.4c-0.4,0.1-0.7,0.1-1.1,0.1
			c-1.1,0-2-0.3-2.7-1c-0.6-0.7-1-1.7-1-3.1v-7.6h-2.1v-2.3h2.1v-3.3h3.1v3.3h2.5v2.3h-2.5v7.6c0,0.6,0.1,1,0.4,1.2
			c0.2,0.2,0.6,0.4,1,0.4c0.2,0,0.3,0,0.5,0c0.2,0,0.3-0.1,0.5-0.1l0.3,2.3C101.1,159.2,100.8,159.4,100.4,159.4z M118.7,159.3
			c-0.1-0.3-0.2-0.7-0.3-1c-0.1-0.3-0.1-0.7-0.1-1c-0.4,0.6-1,1.2-1.7,1.6c-0.7,0.4-1.5,0.7-2.3,0.7c-1.4,0-2.5-0.4-3.3-1.1
			c-0.8-0.7-1.1-1.7-1.1-3c0-1.3,0.5-2.4,1.6-3.1c1-0.7,2.5-1.1,4.4-1.1h2.4V150c0-0.7-0.2-1.3-0.6-1.7s-1-0.6-1.8-0.6
			c-0.7,0-1.3,0.2-1.7,0.5s-0.6,0.8-0.6,1.3h-3l0-0.1c-0.1-1.1,0.4-2,1.5-2.9c1-0.8,2.4-1.3,4-1.3c1.6,0,2.9,0.4,3.9,1.2
			s1.5,2,1.5,3.5v6.1c0,0.6,0,1.1,0.1,1.6c0.1,0.5,0.2,1,0.4,1.5H118.7z M143.1,157.9c-1.1,0.9-2.7,1.4-4.7,1.4h-7v-18.5h6.1
			c2,0,3.6,0.4,4.8,1.3c1.2,0.8,1.7,2.1,1.7,3.8c0,0.8-0.2,1.6-0.7,2.2s-1.2,1.2-2,1.5c1.1,0.2,1.9,0.8,2.5,1.6s0.9,1.8,0.9,2.8
			C144.8,155.7,144.2,157,143.1,157.9z M159.2,159.3h-2.7l-0.3-2c-0.4,0.7-1,1.3-1.6,1.7c-0.7,0.4-1.4,0.6-2.3,0.6
			c-1.5,0-2.6-0.5-3.5-1.4s-1.2-2.4-1.2-4.4v-8.2h3.1v8.2c0,1.2,0.2,2,0.6,2.5s1,0.7,1.8,0.7c0.7,0,1.4-0.1,1.9-0.4
			c0.5-0.3,0.9-0.7,1.2-1.2v-9.9h3.1V159.3z M171.6,158.4c-1,0.8-2.4,1.2-4,1.2c-1.8,0-3.2-0.5-4.2-1.4s-1.5-2-1.5-3.1l0-0.1h2.9
			c0,0.8,0.3,1.4,0.9,1.7s1.2,0.5,2,0.5c0.8,0,1.4-0.2,1.8-0.5s0.6-0.7,0.6-1.2c0-0.5-0.2-0.9-0.6-1.2s-1.2-0.6-2.3-0.8
			c-1.6-0.3-2.9-0.8-3.7-1.5c-0.8-0.6-1.3-1.5-1.3-2.6c0-1.2,0.5-2.1,1.5-2.9s2.3-1.2,3.8-1.2c1.7,0,3,0.4,4,1.2
			c1,0.8,1.5,1.8,1.4,3.1l0,0.1h-3c0-0.6-0.2-1.1-0.6-1.5s-1-0.6-1.8-0.6c-0.7,0-1.3,0.2-1.7,0.5c-0.4,0.3-0.6,0.7-0.6,1.2
			s0.2,0.9,0.6,1.1c0.4,0.3,1.1,0.5,2.2,0.8c1.7,0.4,3,0.9,3.8,1.5c0.8,0.6,1.3,1.5,1.3,2.6C173.1,156.6,172.6,157.6,171.6,158.4z"
			/>
	</g>
	<g>
		<path fill="#FFFFFF" d="M136.2,48.9c0.9,0,1.8,0,2.8,0c1,0,1.7-0.8,1.7-1.7s-0.7-1.6-1.7-1.7c-0.2,0-0.3,0-0.6,0
			c-9,0-17.9,0-26.7,0c-1.6,0-2.5,0.6-2.4,1.7c0,1,0.9,1.7,2.4,1.7c4.5,0,8.8,0,13.3,0l0,0C128.7,48.9,132.4,48.9,136.2,48.9z"/>
		<path fill="#FFFFFF" d="M138.7,41.6c0.6,0,1.1-0.3,1.6-0.7c0.5-0.5,0.5-1,0.2-1.7c-0.3-0.7-1-1-1.7-1c-1.7,0-3.3,0-5,0
			c-1.6,0-3.3,0-4.9,0c-1.3,0-2,0.7-2,1.7s0.7,1.7,1.8,1.7C132.1,41.6,135.4,41.6,138.7,41.6z"/>
		<path fill="#FFFFFF" d="M140,77c-2,0-4,0.3-5.9,0.9c-2.8,0.8-5.4,2-8.1,2.9c-0.7,0.2-1,0.8-0.7,1.3c0.3,0.6,0.8,0.5,1.4,0.2
			c4.9-2.2,9.9-4,15.5-3.8c3.9,0.1,7.7-1.1,11.5-1.8c-0.1-0.6-0.2-1-0.3-1.6c-0.5,0.1-0.8,0.1-1.3,0.2C148.1,76.3,144.1,77.1,140,77
			z"/>
		<path fill="#FFFFFF" d="M163.3,79.3c-0.2-1.4-1.5-2.4-3-2.3c-1.6,0.2-3.1,0.6-4.7,0.9c0.5,2,0.8,3.7,1.1,5.6
			c1.6-0.3,3.1-0.6,4.5-0.9C162.8,82.3,163.6,80.9,163.3,79.3z"/>
		<path fill="#FFFFFF" d="M114,93.4v0.1c13.8-3,27.5-5.9,41.3-8.8c-0.5-2.4-0.9-4.6-1.5-6.9c0-0.1-0.5-0.3-0.7-0.3
			c-1.4,0.2-2.6,0.6-4,0.8c-10.1,2.2-20.3,4.4-30.4,6.4c-1.6,0.3-3.1,0.7-4.7,1c-0.2-4.7-0.8-9.5-1.4-14.2c0.2,0,0.5,0,0.7,0
			c2.5,0,5,0,7.5,0c1.4,0,2.1-0.7,2.1-1.7s-0.8-1.6-2.1-1.6c-4,0-3.1,0-7,0l0,0c-0.8,0-1.4,0-1.6,0c-0.2-1.6-0.5-3.2-0.6-4.9
			c2.1,0,4.1,0,6.1,0c6.9,0,13.8,0,20.5,0c1.5,0,2.3-0.6,2.4-1.7c0-1.1-0.8-1.7-2.4-1.7c-9.2,0-18.2,0-27.4,0
			c-0.6-1.5-1.6-2.6-2.9-3.6c3.2,0,6.4,0,9.6,0l0,0c6.9,0,13.8,0,20.7,0c0.5,0,0.9-0.1,1.4-0.2c0.7-0.2,0.9-0.8,1-1.5
			c0-0.7-0.3-1.3-0.9-1.5c-0.3-0.1-0.8-0.2-1.3-0.2c-13.2,0-26.4,0-39.5,0c-3.4-0.8-6.9-1.4-10.3-1.5v-9.6c0,0,0.7,0,1,0
			c4.6,0,9.1,0,13.7,0c1.3,0,1.6-0.3,1.6-1.6c0-4.9,0-9.8,0-14.7c0-0.3,0-0.6,0-0.9c14,0,27.9,0,41.9,0c0,16.9,0,33.6,0,50.5
			c1.3-0.2,2.3-0.5,3.6-0.7c0-0.3,0-0.6,0-0.9c0-16.6,0-33.4,0-50c0-1.1-0.3-2-1.3-2.5c-15.1,0-30.3,0-45.4,0
			c-0.7,0.5-1.4,0.8-2,1.4c-5.3,5.6-10.6,11.1-15.8,16.8c-0.6,0.7-0.9,2.3-0.9,2.3s0,4.2,0,10.2c-2.8,0.1-5.6,0.3-8.4,0.9
			c-3.9,0.8-7.8,1.6-11.4,3.6c-2.4,1.4-3.8,3.3-4.1,6.1c-0.3,2.8-0.8,5.5-1,8.3c-0.6,4.4-1.4,8.7-1.5,13.1c-0.2,8.5-0.1,17-0.1,25.6
			c0,0.6,0,1.1,0,1.7c1.6,0,3,0,4.6,0c0,1.5,0,2.9,0,4.1c0,2.6,1.6,4.4,4,4.5c2.5,0,4.1-1.7,4.1-4.4c0-1.4,0-2.8,0-4.1
			c10.1,0,20,0,29.8,0c0,1.5,0,2.8,0,4.1c0.1,2.6,1.6,4.4,4,4.4c2.5,0,4.1-1.7,4.1-4.5c0-1.4,0-2.8,0-4.2c1.7,0,3.1,0,4.6,0
			c0-0.7,0-1.3,0-1.8c0-1.4,0-2.8,0-4.1c11.7,0,23.4,0,35.1,0c1-0.6,1.3-1.4,1.3-2.5c0-4.5,0-9,0-13.4c0-0.3,0-0.6,0-0.9
			c-0.9,0.2-1.8,0.5-2.6,0.6c-0.7,0.1-0.9,0.3-0.9,1.1c0,3.7,0,7.2,0,10.9c0,0.3,0,0.6,0,0.9c-8.8,0-21.6,0-32.9,0
			C113.9,98.4,113.9,95.9,114,93.4z M117.6,86.5c11.5-2.4,23-4.8,34.3-7.3c0.6-0.1,1-0.1,0.9,0.8c-12.7,2.8-25.6,5.4-38.4,8.1
			c-0.1-0.3-0.1-0.6-0.1-0.9C115.4,87,116.5,86.7,117.6,86.5z M74.9,56.5c7.6,0,15.3,0,22.8,0c1,0,1.6,0.6,1.6,1.5
			c0.1,1-0.5,1.7-1.4,1.8c-0.2,0-0.5,0-0.7,0c-0.2,0-0.5,0-0.7,0.1c-1.1,0-2.2,0-3.3,0c-2.3,0-4.6,0-6.9,0c-3.4,0-6.8,0-10.2,0
			c-0.5,0-1.1,0.1-1.4-0.1c-0.6-0.5-1.3-1.1-1.4-1.7C73.2,57.2,73.9,56.5,74.9,56.5z M67.2,101.7c-2.2,0-3.8-1.7-3.8-3.9
			S65,94,67.3,94c2.2,0,3.8,1.6,3.9,3.8C71.1,99.9,69.4,101.8,67.2,101.7z M86.3,84.3c-6.7,0-13.2,0-19.9,0c-2.5,0-3.2-0.8-3-3.2
			c0.7-5,1.4-10,2.2-14.9c0.3-2.2,1.1-2.9,3.3-2.9c9.2,0,18.4,0,27.4,0c0.2,0,0.5,0.1,0.8,0.1c2.5,0,4.9,0,7.5,0
			c1.4,0.2,2,0.9,2.3,2.8c0.8,5,1.5,10.1,2.2,15.1c0.3,2.3-0.5,3-2.9,3.1C99.6,84.3,92.9,84.3,86.3,84.3z M105.3,101.7
			c-2.1,0-3.8-1.7-3.9-3.9c0-2.2,1.7-3.9,4-3.9c2.2,0,3.8,1.7,3.8,3.9C109.1,100,107.5,101.7,105.3,101.7z"/>
	</g>
</g>
<g id="Layer_4">
</g>
<g id="Layer_3">
</g>
<g id="Layer_2">
</g>
</svg>
