<?xml version="1.0" encoding="utf-8"?>
<!-- Generator: Adobe Illustrator 18.0.0, SVG Export Plug-In . SVG Version: 6.00 Build 0)  -->
<!DOCTYPE svg PUBLIC "-//W3C//DTD SVG 1.0//EN" "http://www.w3.org/TR/2001/REC-SVG-20010904/DTD/svg10.dtd">
<svg version="1.0" xmlns="http://www.w3.org/2000/svg" xmlns:xlink="http://www.w3.org/1999/xlink" x="0px" y="0px"
	 viewBox="0 0 221.8 214.2" enable-background="new 0 0 221.8 214.2" xml:space="preserve">
<g id="Layer_5">
</g>
<g id="Layer_6">
	<rect x="52.2" y="135.9" fill="#FFFFFF" width="117.5" height="59.1"/>
</g>
<g id="Layer_1">
	<g>
		<path fill="#EF413E" d="M124.9,148.1c-0.5-0.3-1-0.4-1.6-0.4c-1.1,0-1.8,0.4-2.4,1.3c-0.5,0.9-0.8,2-0.8,3.5v0.3
			c0,1.3,0.3,2.3,0.8,3c0.5,0.8,1.3,1.1,2.3,1.1c0.7,0,1.2-0.1,1.7-0.4c0.5-0.3,0.8-0.7,1.1-1.2v-6
			C125.8,148.8,125.4,148.4,124.9,148.1z"/>
		<path fill="#EF413E" d="M136.9,178.8c-0.8,0-1.4,0.3-1.9,0.9c-0.5,0.6-0.8,1.4-0.9,2.3l0,0.1h5.4v-0.3c0-0.9-0.2-1.6-0.7-2.1
			C138.5,179.1,137.8,178.8,136.9,178.8z"/>
		<path fill="#EF413E" d="M97.8,153.7c-0.5,0.4-0.8,1-0.8,1.6c0,0.5,0.2,0.9,0.5,1.3c0.3,0.3,0.8,0.5,1.5,0.5c0.8,0,1.5-0.2,2.1-0.6
			c0.6-0.4,1-0.8,1.2-1.3v-2h-2.5C99,153,98.3,153.2,97.8,153.7z"/>
		<path fill="#EF413E" d="M138.1,147.6c-1.1,0-1.9,0.4-2.4,1.3c-0.5,0.9-0.8,1.9-0.8,3.2v0.3c0,1.3,0.3,2.4,0.8,3.3
			c0.5,0.8,1.3,1.3,2.4,1.3c1.1,0,1.9-0.4,2.4-1.3c0.5-0.8,0.8-1.9,0.8-3.3v-0.3c0-1.3-0.3-2.4-0.8-3.2
			C140,148.1,139.2,147.6,138.1,147.6z"/>
		<path fill="#EF413E" d="M99.8,178.9c-0.6,0-1.2,0.1-1.6,0.4s-0.8,0.7-1.1,1.1v6.2c0.3,0.5,0.6,0.9,1.1,1.1s1,0.4,1.7,0.4
			c1,0,1.8-0.4,2.4-1.2c0.5-0.8,0.8-1.8,0.8-3v-0.3c0-1.4-0.3-2.5-0.8-3.4C101.7,179.3,100.9,178.9,99.8,178.9z"/>
		<path fill="#EF413E" d="M-3-2.1V217h227.8V-2.1H-3z M67.9,189.3c-1.2,0.9-2.9,1.4-4.9,1.4c-1.9,0-3.6-0.5-5.1-1.5
			c-1.5-1-2.2-2.4-2.1-4.2l0-0.1h3c0,1.1,0.4,2,1.2,2.5c0.8,0.6,1.8,0.8,3,0.8c1.1,0,2-0.2,2.7-0.7s1-1.1,1-1.9
			c0-0.8-0.3-1.4-0.9-1.9c-0.6-0.5-1.6-0.9-3-1.3c-2.1-0.5-3.7-1.3-4.8-2.2c-1.1-0.9-1.7-2.1-1.7-3.5c0-1.5,0.6-2.7,1.8-3.7
			c1.2-1,2.8-1.4,4.8-1.4c2,0,3.7,0.5,4.9,1.6c1.2,1.1,1.8,2.4,1.8,3.9l0,0.1h-3c0-0.9-0.3-1.7-1-2.3c-0.6-0.6-1.6-0.9-2.8-0.9
			c-1.1,0-2,0.2-2.6,0.7c-0.6,0.5-0.9,1.1-0.9,1.9c0,0.7,0.3,1.3,1,1.7c0.7,0.5,1.7,0.9,3.3,1.3c2,0.5,3.5,1.3,4.5,2.2
			s1.5,2.1,1.5,3.6C69.7,187.1,69.1,188.3,67.9,189.3z M84.1,190.4H81V182c0-1.1-0.2-1.9-0.6-2.3s-1.1-0.7-1.9-0.7
			c-0.6,0-1.1,0.1-1.6,0.4c-0.5,0.3-0.9,0.6-1.2,1v10.1h-3.1v-19.8h3.1v7.8c0.5-0.6,1-1.1,1.7-1.5c0.7-0.4,1.4-0.5,2.2-0.5
			c1.5,0,2.6,0.5,3.4,1.4c0.8,0.9,1.2,2.3,1.2,4.2V190.4z M90.6,190.4h-3.1v-13.7h3.1V190.4z M90.6,173.3h-3.1v-2.7h3.1V173.3z
			 M81.9,155.4c0.8,1,1.8,1.5,3.1,1.5c1.3,0,2.2-0.3,2.9-1c0.7-0.7,1-1.6,1-2.9h3l0,0.1c0,1.9-0.6,3.4-1.8,4.6
			c-1.2,1.2-2.9,1.8-5.1,1.8c-2.2,0-3.9-0.7-5.3-2.2c-1.4-1.5-2-3.3-2-5.6v-3.5c0-2.3,0.7-4.1,2-5.6c1.3-1.5,3.1-2.2,5.2-2.2
			c2.2,0,3.9,0.6,5.2,1.7c1.3,1.1,1.9,2.7,1.8,4.6l0,0.1h-3c0-1.2-0.3-2.2-1-2.9c-0.7-0.7-1.7-1-3-1c-1.3,0-2.3,0.5-3,1.5
			c-0.7,1-1.1,2.2-1.1,3.8v3.5C80.8,153.2,81.2,154.5,81.9,155.4z M101.7,148.2c-0.4-0.4-1-0.6-1.8-0.6c-0.7,0-1.3,0.2-1.7,0.5
			s-0.6,0.8-0.6,1.3h-3l0-0.1c-0.1-1.1,0.4-2,1.5-2.9c1-0.8,2.4-1.3,4-1.3c1.6,0,2.9,0.4,3.9,1.2s1.5,2,1.5,3.5v6.1
			c0,0.6,0,1.1,0.1,1.6c0.1,0.5,0.2,1,0.4,1.5h-3.1c-0.1-0.3-0.2-0.7-0.3-1c-0.1-0.3-0.1-0.7-0.1-1c-0.4,0.6-1,1.2-1.7,1.6
			c-0.7,0.4-1.5,0.7-2.3,0.7c-1.4,0-2.5-0.4-3.3-1.1c-0.8-0.7-1.1-1.7-1.1-3c0-1.3,0.5-2.4,1.6-3.1c1-0.7,2.5-1.1,4.4-1.1h2.4v-1.2
			C102.3,149.1,102.1,148.6,101.7,148.2z M106.1,183.9c0,2-0.5,3.6-1.4,4.8s-2.2,1.8-3.9,1.8c-0.8,0-1.5-0.1-2.1-0.4
			s-1.1-0.7-1.5-1.2v6.7H94v-19h2.6l0.3,1.7c0.4-0.6,1-1.1,1.6-1.5c0.6-0.3,1.3-0.5,2.2-0.5c1.7,0,3,0.7,4,2
			c0.9,1.3,1.4,3.1,1.4,5.3V183.9z M108.7,145.4h2.8l0.2,2c0.3-0.7,0.8-1.3,1.3-1.7c0.5-0.4,1.2-0.6,1.9-0.6c0.2,0,0.4,0,0.5,0
			c0.2,0,0.3,0.1,0.4,0.1l-0.4,2.9l-1.3-0.1c-0.6,0-1.1,0.1-1.5,0.4c-0.4,0.3-0.7,0.6-0.9,1.1v9.5h-3.1V145.4z M128.1,190.4H125
			v-8.3c0-1.2-0.2-2-0.6-2.5c-0.4-0.5-1-0.7-1.8-0.7c-0.7,0-1.2,0.2-1.7,0.5s-0.8,0.8-1,1.4c0,0.1,0,0.2,0,0.3s0,0.2,0,0.3v8.9h-3.1
			v-8.3c0-1.1-0.2-1.9-0.6-2.4c-0.4-0.5-1-0.7-1.8-0.7c-0.6,0-1.2,0.1-1.6,0.4c-0.4,0.2-0.8,0.6-1,1v10.1h-3.1v-13.7h2.8l0.2,1.8
			c0.4-0.7,1-1.2,1.7-1.5s1.5-0.5,2.3-0.5c0.9,0,1.7,0.2,2.3,0.6s1.1,1,1.4,1.8c0.4-0.8,1-1.4,1.7-1.8s1.5-0.6,2.4-0.6
			c1.4,0,2.5,0.5,3.3,1.4c0.8,0.9,1.2,2.4,1.2,4.3V190.4z M129.1,159.2c0,1.8-0.5,3.1-1.6,4.1s-2.6,1.4-4.6,1.4
			c-0.7,0-1.4-0.1-2.2-0.3c-0.8-0.2-1.5-0.4-2.1-0.8l0.7-2.4c0.5,0.3,1.1,0.5,1.7,0.6c0.6,0.1,1.2,0.2,1.9,0.2
			c1.1,0,1.9-0.2,2.5-0.7c0.5-0.5,0.8-1.2,0.8-2.2v-1.4c-0.4,0.5-0.9,1-1.5,1.3c-0.6,0.3-1.3,0.4-2,0.4c-1.7,0-3-0.6-4-1.8
			s-1.4-2.8-1.4-4.8v-0.3c0-2.2,0.5-3.9,1.4-5.3s2.3-2,4-2c0.8,0,1.5,0.2,2.2,0.5c0.6,0.4,1.1,0.9,1.6,1.5l0.3-1.8h2.6V159.2z
			 M142.6,184.4h-8.6l0,0.1c0.1,1.1,0.4,2,1,2.7c0.6,0.7,1.4,1,2.4,1c0.8,0,1.5-0.1,2.1-0.3s1.2-0.5,1.7-0.9l1,2
			c-0.5,0.5-1.2,0.8-2.1,1.2c-0.9,0.3-1.8,0.5-3,0.5c-1.9,0-3.5-0.6-4.7-1.9c-1.2-1.3-1.7-2.9-1.7-4.9v-0.5c0-2,0.6-3.7,1.7-5
			c1.1-1.3,2.6-2,4.3-2c1.9,0,3.3,0.6,4.3,1.7c1,1.1,1.5,2.6,1.5,4.5V184.4z M144.4,152.4c0,2.1-0.6,3.7-1.7,5.1
			c-1.1,1.3-2.7,1.9-4.6,1.9c-2,0-3.5-0.7-4.6-2c-1.1-1.3-1.7-3-1.7-5v-0.3c0-2,0.6-3.7,1.7-5c1.1-1.3,2.7-2,4.6-2
			c2,0,3.5,0.7,4.6,2c1.1,1.3,1.7,3,1.7,5V152.4z M156.6,190.4h-3.1v-8.6c0-1-0.2-1.8-0.6-2.2c-0.4-0.4-1.1-0.7-1.9-0.7
			c-0.6,0-1.1,0.1-1.6,0.4c-0.5,0.3-0.9,0.6-1.2,1.1v10h-3.1v-13.7h2.8l0.2,2c0.4-0.7,1-1.3,1.7-1.6c0.7-0.4,1.4-0.6,2.3-0.6
			c1.4,0,2.5,0.4,3.3,1.3c0.8,0.9,1.2,2.2,1.2,4.1V190.4z M165.4,190.5c-0.4,0.1-0.7,0.1-1.1,0.1c-1.1,0-2-0.3-2.7-1
			c-0.6-0.7-1-1.7-1-3.1v-7.6h-2.1v-2.3h2.1v-3.3h3.1v3.3h2.5v2.3h-2.5v7.6c0,0.6,0.1,1,0.4,1.2c0.2,0.2,0.6,0.4,1,0.4
			c0.2,0,0.3,0,0.5,0c0.2,0,0.3-0.1,0.5-0.1l0.3,2.3C166,190.3,165.7,190.4,165.4,190.5z"/>
	</g>
	<g>
		<path fill="#FFFFFF" d="M123.3,63.3c-0.6-0.3-1.3-0.4-1.9-0.4s-1.4,0.1-2,0.4c-0.5,0.3-1,0.7-1.5,1.5c-0.3,0.6-0.5,1.4-0.5,2.1
			s0.2,1.6,0.5,2.1c0.4,0.5,0.8,0.9,1.6,1.4c0.6,0.3,1.3,0.4,1.9,0.4c0.5,0,1-0.1,1.6-0.3c0.4-0.2,0.8-0.4,1.3-0.8
			c0.7-0.7,1-1.7,1-2.7c0-0.7-0.2-1.6-0.5-2.1C124.4,64,123.9,63.6,123.3,63.3z"/>
		<path fill="#FFFFFF" d="M175.5,43.9c-0.1-2-0.5-2.4-2.5-2.5c-3.6-0.1-7.1-0.1-10.7-0.1c-22.8,0-45.6,0-68.3,0
			c-1.7,0-3.3,0.1-4.9,0.2c-1.9,0.1-2.3,0.5-2.3,2.5c0,2.8,0,5.8,0,8.6c0,12.9,0,25.8,0,38.7c0,0.5,0,1,0,1.7c29.6,0,59.2,0,88.7,0
			c0.1-3.6,0.2-7,0.3-10.6c0-11.7,0-23.4,0-35.1C175.6,46.2,175.5,45.2,175.5,43.9z M99.5,66.9c0.3,0.7,0.7,1.4,1.4,2
			c0.5,0.5,1.3,0.9,1.9,1.3c0.3,0.1,0.7,0.2,1,0.3c0.3,0.1,0.7,0.1,1,0.1c0.7,0,1.6-0.2,2.3-0.5c0.7-0.3,1.5-0.8,2.1-1.6h3.8
			c-0.4,0.8-0.8,1.8-1.7,2.4c-0.6,0.6-1.5,1.3-2.2,1.7c-0.7,0.4-1.6,0.6-2.4,0.8s-1.7,0.3-2.3,0.3c-0.7,0-1.6-0.1-2.3-0.3
			c-0.6-0.2-1.4-0.5-2.1-0.9c-1.4-0.7-2.3-1.9-3-3.3c-0.4-0.7-0.6-1.5-0.8-2.3c-0.2-0.8-0.3-1.8-0.3-2.6c0-0.8,0.2-1.8,0.5-2.8
			c0.4-0.9,0.9-2,1.8-2.8c0.7-0.8,1.8-1.7,2.8-2.2c1-0.5,2.4-0.8,3.9-0.8c0.7,0,1.7,0.1,2.4,0.3c0.8,0.2,1.7,0.5,2.4,1
			c0.7,0.4,1.5,0.9,2.1,1.7c0.5,0.6,0.9,1.5,1.4,2.2h-3.7c-1.4-1.5-2.8-2.2-4.6-2.2c-0.9,0-2,0.3-2.8,0.8c-0.8,0.5-1.7,1.4-2.2,2.2
			s-0.7,1.9-0.7,2.8C99.1,65.3,99.3,66.2,99.5,66.9z M128.2,73.2h-2.8v-1.8c-0.4,0.6-1,1.3-2,1.7s-1.8,0.6-2.5,0.6
			c-1.4,0-2.4-0.3-3.5-0.8c-0.9-0.6-1.8-1.5-2.3-2.5c-0.2-0.5-0.4-1-0.6-1.8c-0.1-0.6-0.2-1.3-0.2-2s0.1-1.5,0.2-2
			c0.2-0.6,0.4-1.3,0.7-1.8c0.6-0.9,1.5-1.8,2.4-2.3c0.9-0.5,2-0.7,3-0.7c0.4,0,0.9,0,1.5,0.1c0.4,0.1,0.8,0.2,1.4,0.4
			c0.8,0.4,1.5,0.8,1.8,1.7v-1.9h2.8v13.1L128.2,73.2L128.2,73.2z M136.6,62.7c-0.6,0.1-1.3,0.2-1.7,0.4s-0.6,0.5-0.8,0.9
			c-0.2,0.4-0.3,1-0.3,2v7.1h-3.1V60h2.8v1.3c0.3-0.5,0.7-0.9,1.4-1.3c0.6-0.3,1-0.4,1.9-0.4L136.6,62.7L136.6,62.7z M151.4,71.5
			c0,1-0.2,2.1-0.5,2.9c-0.3,0.8-0.8,1.7-1.6,2.2c-0.6,0.6-1.5,1-2.3,1.5c-0.8,0.3-1.8,0.4-2.6,0.4c-0.8,0-1.8-0.1-2.6-0.4
			s-1.7-0.7-2.3-1.5c-0.6-0.6-1.3-1.5-1.6-2.4h3.6c0.2,0.3,0.6,0.6,1.3,0.8c0.5,0.2,1,0.3,1.8,0.3c1,0,2-0.3,2.8-0.9
			c0.4-0.3,0.7-0.7,0.9-1.4c0.2-0.5,0.3-1,0.3-1.8c-0.5,0.7-1,1.4-1.9,1.7c-0.7,0.3-1.6,0.5-2.3,0.5c-1,0-2.1-0.3-3.1-0.8
			s-1.9-1.5-2.5-2.5c-0.6-1-0.9-2.4-0.9-3.8c0-0.6,0.1-1.4,0.2-1.9c0.2-0.5,0.4-1.3,0.7-1.7c0.6-0.9,1.5-1.8,2.5-2.3
			c0.9-0.5,2-0.7,3-0.7c0.9,0,1.8,0.2,2.5,0.5c0.7,0.4,1.4,0.9,1.7,1.7v-1.9h2.8v11.3h0.1V71.5z M166.8,69.4
			c-0.3,0.8-0.8,1.6-1.6,2.2c-0.6,0.6-1.5,1.3-2.3,1.6c-0.8,0.3-1.8,0.5-2.7,0.5c-1.4,0-2.4-0.3-3.6-0.9c-1-0.6-1.9-1.5-2.5-2.5
			c-0.3-0.5-0.5-1-0.7-1.8c-0.2-0.5-0.2-1.3-0.2-1.9c0-0.4,0-0.8,0.1-1.3c0.1-0.4,0.2-0.7,0.3-1.3c0.3-0.7,0.7-1.6,1.4-2.3
			c0.5-0.5,1-0.9,1.8-1.4c0.5-0.3,1.3-0.5,1.8-0.7c0.6-0.1,1.3-0.2,1.8-0.2c1.3,0,2.3,0.3,3.5,0.9c1,0.6,1.9,1.5,2.5,2.5
			c0.6,1,0.9,2.2,0.9,3.5C167.4,67.7,167.3,68.5,166.8,69.4z"/>
		<path fill="#FFFFFF" d="M147.5,64c-0.3-0.3-0.7-0.6-1.3-0.8c-0.4-0.2-0.9-0.3-1.6-0.3c-0.7,0-1.5,0.2-2.1,0.5
			c-0.5,0.3-0.9,0.8-1.4,1.5c-0.3,0.6-0.4,1.3-0.4,2c0,0.6,0.1,1.4,0.4,1.9c0.3,0.5,0.7,1,1.4,1.5c0.3,0.2,0.6,0.3,0.9,0.4
			c0.3,0.1,0.6,0.1,0.9,0.1c0.7,0,1.5-0.2,2.1-0.5c0.5-0.3,0.9-0.8,1.4-1.5c0.3-0.5,0.4-1.3,0.4-1.9c0-0.5-0.1-1-0.3-1.6
			C148,64.8,147.8,64.3,147.5,64z"/>
		<path fill="#FFFFFF" d="M163.1,64c-0.3-0.3-0.7-0.6-1.3-0.8c-0.4-0.2-0.9-0.3-1.6-0.3c-0.5,0-0.9,0.1-1.5,0.3
			c-0.4,0.2-0.8,0.4-1.3,0.8c-0.3,0.4-0.5,0.8-0.7,1.4c-0.2,0.5-0.2,0.8-0.2,1.5c0,0.3,0,0.6,0.1,0.9c0.1,0.3,0.2,0.6,0.4,0.8
			c0.3,0.5,0.7,0.9,1.4,1.5c0.3,0.2,0.5,0.3,0.8,0.4c0.3,0.1,0.6,0.1,0.9,0.1c0.3,0,0.6,0,0.9-0.1c0.3-0.1,0.6-0.2,0.9-0.4
			c0.5-0.3,0.9-0.7,1.4-1.4c0.3-0.5,0.4-1.3,0.4-2c0-0.5-0.1-1-0.3-1.6C163.6,64.8,163.4,64.3,163.1,64z"/>
		<path fill="#FFFFFF" d="M166.6,102.4c0.1,0.3,0.7,0.4,1.3,0.4c2.6,0,5.2,0,8,0.1c0-2.3,0-4.5,0-6.8c-4.9,0-9.8,0-14.8,0
			C163.5,97.5,165.2,99.8,166.6,102.4z"/>
		<path fill="#FFFFFF" d="M124.7,96c-13.5,0-27.1,0-40.9,0c0-0.7,0-1.5,0-2.1c0.1-12.7,0.1-25.2,0.1-37.9c0-2-0.1-4-0.2-6
			c-0.1-1.7-0.3-2-2-2c-6.3-0.1-12.6,0-18.7-0.1c-0.6,0-0.8,0.3-1,0.9c-1.6,5.8-3,11.4-4.6,17.2c-0.2,0.9-0.6,1.3-1.7,1.4
			c-2.4,0-4.8,0.1-7.1,0.4c-2.1,0.2-2.4,0.8-2.4,2.9c0,8.5,0,17,0,25.3c0,1.7,0.2,3.1,0.2,4.8c0,1,0.7,1.6,1.7,1.8
			c0.8,0.1,1.8,0.3,2.4-0.8c2.2-4.1,5.5-6.8,10.4-7.5c5.5-0.6,11,2.3,13.2,7.3c0.4,0.8,0.8,1,1.7,1c14.2,0,28.6,0,42.7,0
			c0.7,0,1.3-0.2,1.6-0.8C121,99.6,122.6,97.8,124.7,96z M78.4,67.3c-6.4,0-12.8,0-19.2,0c0-0.3,0.1-0.4,0.1-0.6
			c1.5-5.1,2.8-10.4,4.2-15.6c0.2-0.9,0.8-0.9,1.6-0.9c3.8,0,7.5,0,11.2,0c1.7,0,2,0.2,2,2c0.1,3.9,0.1,7.9,0.2,11.7
			C78.6,64.9,78.5,66.1,78.4,67.3z"/>
		<path fill="#FFFFFF" d="M62.1,97.4c-6.2,0-10.6,4.3-10.6,10.5c0,6.1,4.4,10.5,10.5,10.5c6.3,0,10.7-4.3,10.7-10.4
			C72.8,101.8,68.4,97.4,62.1,97.4z M62.1,113.2c-3.1,0-5.2-2.1-5.2-5.1c0-2.9,2.2-5,5.2-5c3,0,5.2,2.2,5.1,5.1
			C67.2,111.1,65.1,113.2,62.1,113.2z"/>
		<path fill="#FFFFFF" d="M154.4,97.5c-6.2,0-10.6,4.4-10.6,10.4c0,6.1,4.4,10.5,10.7,10.5c6.3,0,10.7-4.3,10.6-10.5
			C165.1,101.8,160.6,97.5,154.4,97.5z M154.4,113.3c-3,0-5.2-2.1-5.2-4.9c0-3,2.1-5.1,5.2-5.1c3.1,0,5.4,2.1,5.4,5.1
			C159.6,111.2,157.4,113.3,154.4,113.3z"/>
		<path fill="#FFFFFF" d="M130.7,97.5c-5.8,0.3-9.9,4.9-9.7,10.7c0.3,6.5,4.8,10.4,11.5,10.1c6-0.3,9.9-4.9,9.6-11.4
			C141.9,101.1,137.1,97.2,130.7,97.5z M131.4,113.3c-3,0-5.2-2.2-5.1-5.1c0.1-2.9,2.2-5,5.2-5c3.1,0,5.2,2.1,5.2,5.1
			C136.9,111.2,134.6,113.3,131.4,113.3z"/>
		<path fill="#FFFFFF" d="M139.4,96.1c1,1,2.6,2.7,3.8,4c1-1.3,2.6-2.7,3.9-4C144.6,96.1,141.6,96.1,139.4,96.1z"/>
	</g>
</g>
<g id="Layer_4">
</g>
<g id="Layer_3">
</g>
<g id="Layer_2">
</g>
</svg>
