<?xml version="1.0" encoding="utf-8"?>
<!-- Generator: Adobe Illustrator 18.0.0, SVG Export Plug-In . SVG Version: 6.00 Build 0)  -->
<!DOCTYPE svg PUBLIC "-//W3C//DTD SVG 1.0//EN" "http://www.w3.org/TR/2001/REC-SVG-20010904/DTD/svg10.dtd">
<svg version="1.0" xmlns="http://www.w3.org/2000/svg" xmlns:xlink="http://www.w3.org/1999/xlink" x="0px" y="0px"
	 viewBox="0 0 221.8 214.2" enable-background="new 0 0 221.8 214.2" xml:space="preserve">
<g id="Layer_5">
</g>
<g id="Layer_6">
	<rect x="47" y="137.4" fill="#FFFFFF" width="125.1" height="56.1"/>
</g>
<g id="Layer_1">
	<g>
		<path fill="#D1A739" d="M90.7,178.8c-0.8,0-1.4,0.3-1.9,0.9c-0.5,0.6-0.8,1.4-0.9,2.3l0,0.1h5.4v-0.3c0-0.9-0.2-1.6-0.7-2.1
			C92.3,179.1,91.6,178.8,90.7,178.8z"/>
		<path fill="#D1A739" d="M100.5,147.6c-1.1,0-1.9,0.4-2.4,1.3c-0.5,0.9-0.8,1.9-0.8,3.2v0.3c0,1.3,0.3,2.4,0.8,3.3
			c0.5,0.8,1.3,1.3,2.4,1.3c1.1,0,1.9-0.4,2.4-1.3c0.5-0.8,0.8-1.9,0.8-3.3v-0.3c0-1.3-0.3-2.4-0.8-3.2
			C102.4,148.1,101.6,147.6,100.5,147.6z"/>
		<path fill="#D1A739" d="M147.3,178.8c-0.8,0-1.4,0.3-1.9,0.9c-0.5,0.6-0.8,1.4-0.9,2.3l0,0.1h5.4v-0.3c0-0.9-0.2-1.6-0.7-2.1
			C148.9,179.1,148.2,178.8,147.3,178.8z"/>
		<path fill="#D1A739" d="M-2.4-2.1V216h226.8V-2.1H-2.4z M65.6,139.3h3.1v2.7h-3.1V139.3z M63.3,159.2H51.8v-18.5h3.1v16h8.5V159.2
			z M65.6,145.4h3.1v13.7h-3.1V145.4z M80.5,189.3c-1.2,0.9-2.9,1.4-4.9,1.4c-1.9,0-3.6-0.5-5.1-1.5c-1.5-1-2.2-2.4-2.1-4.2l0-0.1h3
			c0,1.1,0.4,2,1.2,2.5c0.8,0.6,1.8,0.8,3,0.8c1.1,0,2-0.2,2.7-0.7s1-1.1,1-1.9c0-0.8-0.3-1.4-0.9-1.9c-0.6-0.5-1.6-0.9-3-1.3
			c-2.1-0.5-3.7-1.3-4.8-2.2c-1.1-0.9-1.7-2.1-1.7-3.5c0-1.5,0.6-2.7,1.8-3.7c1.2-1,2.8-1.4,4.8-1.4c2,0,3.7,0.5,4.9,1.6
			c1.2,1.1,1.8,2.4,1.8,3.9l0,0.1h-3c0-0.9-0.3-1.7-1-2.3c-0.6-0.6-1.6-0.9-2.8-0.9c-1.1,0-2,0.2-2.6,0.7c-0.6,0.5-0.9,1.1-0.9,1.9
			c0,0.7,0.3,1.3,1,1.7c0.7,0.5,1.7,0.9,3.3,1.3c2,0.5,3.5,1.3,4.5,2.2s1.5,2.1,1.5,3.6C82.3,187.1,81.7,188.3,80.5,189.3z
			 M83.4,150c0,0.1,0,0.2,0,0.3v8.9h-3.1v-8.3c0-1.1-0.2-1.9-0.6-2.4c-0.4-0.5-1-0.7-1.8-0.7c-0.6,0-1.2,0.1-1.6,0.4
			c-0.4,0.2-0.8,0.6-1,1v10.1h-3.1v-13.7H75l0.2,1.8c0.4-0.7,1-1.2,1.7-1.5s1.5-0.5,2.3-0.5c0.9,0,1.7,0.2,2.3,0.6s1.1,1,1.4,1.8
			c0.4-0.8,1-1.4,1.7-1.8s1.5-0.6,2.4-0.6c1.4,0,2.5,0.5,3.3,1.4c0.8,0.9,1.2,2.4,1.2,4.3v8.3h-3.1v-8.3c0-1.2-0.2-2-0.6-2.5
			c-0.4-0.5-1-0.7-1.8-0.7c-0.7,0-1.2,0.2-1.7,0.5s-0.8,0.8-1,1.4C83.4,149.8,83.4,149.9,83.4,150z M96.4,184.4h-8.6l0,0.1
			c0.1,1.1,0.4,2,1,2.7c0.6,0.7,1.4,1,2.4,1c0.8,0,1.5-0.1,2.1-0.3s1.2-0.5,1.7-0.9l1,2c-0.5,0.5-1.2,0.8-2.1,1.2
			c-0.9,0.3-1.8,0.5-3,0.5c-1.9,0-3.5-0.6-4.7-1.9c-1.2-1.3-1.7-2.9-1.7-4.9v-0.5c0-2,0.6-3.7,1.7-5c1.1-1.3,2.6-2,4.3-2
			c1.9,0,3.3,0.6,4.3,1.7c1,1.1,1.5,2.6,1.5,4.5V184.4z M105.8,179.4l-1.3-0.1c-0.6,0-1.1,0.1-1.5,0.4c-0.4,0.3-0.7,0.6-0.9,1.1v9.5
			h-3.1v-13.7h2.8l0.2,2c0.3-0.7,0.8-1.3,1.3-1.7c0.5-0.4,1.2-0.6,1.9-0.6c0.2,0,0.4,0,0.5,0c0.2,0,0.3,0.1,0.4,0.1L105.8,179.4z
			 M106.8,152.4c0,2.1-0.6,3.7-1.7,5.1c-1.1,1.3-2.7,1.9-4.6,1.9c-2,0-3.5-0.7-4.6-2c-1.1-1.3-1.7-3-1.7-5v-0.3c0-2,0.6-3.7,1.7-5
			c1.1-1.3,2.7-2,4.6-2c2,0,3.5,0.7,4.6,2c1.1,1.3,1.7,3,1.7,5V152.4z M114.6,190.4h-2.7l-4.9-13.7h3.2l2.8,9.1l0.2,1.1h0.1l0.2-1.1
			l2.7-9.1h3.2L114.6,190.4z M121,159.2h-2.7l-0.3-2c-0.4,0.7-1,1.3-1.6,1.7c-0.7,0.4-1.4,0.6-2.3,0.6c-1.5,0-2.6-0.5-3.5-1.4
			s-1.2-2.4-1.2-4.4v-8.2h3.1v8.2c0,1.2,0.2,2,0.6,2.5s1,0.7,1.8,0.7c0.7,0,1.4-0.1,1.9-0.4c0.5-0.3,0.9-0.7,1.2-1.2v-9.9h3.1V159.2
			z M124.7,190.4h-3.1v-13.7h3.1V190.4z M124.7,173.3h-3.1v-2.7h3.1V173.3z M123.7,154.9L123.7,154.9l2.9-0.1c0,0.8,0.3,1.4,0.9,1.7
			s1.2,0.5,2,0.5c0.8,0,1.4-0.2,1.8-0.5s0.6-0.7,0.6-1.2c0-0.5-0.2-0.9-0.6-1.2s-1.2-0.6-2.3-0.8c-1.6-0.3-2.9-0.8-3.7-1.5
			c-0.8-0.6-1.3-1.5-1.3-2.6c0-1.2,0.5-2.1,1.5-2.9s2.3-1.2,3.8-1.2c1.7,0,3,0.4,4,1.2c1,0.8,1.5,1.8,1.4,3.1l0,0.1h-3
			c0-0.6-0.2-1.1-0.6-1.5s-1-0.6-1.8-0.6c-0.7,0-1.3,0.2-1.7,0.5c-0.4,0.3-0.6,0.7-0.6,1.2s0.2,0.9,0.6,1.1c0.4,0.3,1.1,0.5,2.2,0.8
			c1.7,0.4,3,0.9,3.8,1.5c0.8,0.6,1.3,1.5,1.3,2.6c0,1.2-0.5,2.2-1.5,3c-1,0.8-2.4,1.2-4,1.2c-1.8,0-3.2-0.5-4.2-1.4
			S123.7,156.1,123.7,154.9z M131.3,186.9c0.5,0.8,1.3,1.2,2.5,1.2c0.8,0,1.4-0.2,1.9-0.7c0.5-0.4,0.8-1,0.8-1.7h2.8l0,0.1
			c0,1.3-0.5,2.4-1.6,3.3c-1.1,0.9-2.4,1.4-3.9,1.4c-2,0-3.6-0.7-4.7-2c-1.1-1.3-1.6-3-1.6-5v-0.4c0-2,0.5-3.6,1.6-4.9
			c1.1-1.3,2.6-2,4.7-2c1.7,0,3,0.5,4,1.4c1,1,1.5,2.2,1.5,3.7l0,0.1h-2.8c0-0.8-0.2-1.4-0.7-1.9c-0.5-0.5-1.1-0.8-1.9-0.8
			c-1.2,0-2,0.4-2.5,1.3s-0.7,1.9-0.7,3.2v0.4C130.6,185,130.8,186.1,131.3,186.9z M141,159.2H138v-13.7h3.1V159.2z M141,142.1H138
			v-2.7h3.1V142.1z M153,184.4h-8.6l0,0.1c0.1,1.1,0.4,2,1,2.7c0.6,0.7,1.4,1,2.4,1c0.8,0,1.5-0.1,2.1-0.3s1.2-0.5,1.7-0.9l1,2
			c-0.5,0.5-1.2,0.8-2.1,1.2c-0.9,0.3-1.8,0.5-3,0.5c-1.9,0-3.5-0.6-4.7-1.9c-1.2-1.3-1.7-2.9-1.7-4.9v-0.5c0-2,0.6-3.7,1.7-5
			c1.1-1.3,2.6-2,4.3-2c1.9,0,3.3,0.6,4.3,1.7c1,1.1,1.5,2.6,1.5,4.5V184.4z M156,159.2h-3.1v-8.6c0-1-0.2-1.8-0.6-2.2
			c-0.4-0.4-1.1-0.7-1.9-0.7c-0.6,0-1.1,0.1-1.6,0.4c-0.5,0.3-0.9,0.6-1.2,1.1v10h-3.1v-13.7h2.8l0.2,2c0.4-0.7,1-1.3,1.7-1.6
			c0.7-0.4,1.4-0.6,2.3-0.6c1.4,0,2.5,0.4,3.3,1.3c0.8,0.9,1.2,2.2,1.2,4.1V159.2z M170.5,153.2h-8.6l0,0.1c0.1,1.1,0.4,2,1,2.7
			c0.6,0.7,1.4,1,2.4,1c0.8,0,1.5-0.1,2.1-0.3s1.2-0.5,1.7-0.9l1,2c-0.5,0.5-1.2,0.8-2.1,1.2c-0.9,0.3-1.8,0.5-3,0.5
			c-1.9,0-3.5-0.6-4.7-1.9c-1.2-1.3-1.7-2.9-1.7-4.9v-0.5c0-2,0.6-3.7,1.7-5c1.1-1.3,2.6-2,4.3-2c1.9,0,3.3,0.6,4.3,1.7
			c1,1.1,1.5,2.6,1.5,4.5V153.2z"/>
		<path fill="#D1A739" d="M164.8,147.6c-0.8,0-1.4,0.3-1.9,0.9c-0.5,0.6-0.8,1.4-0.9,2.3l0,0.1h5.4v-0.3c0-0.9-0.2-1.6-0.7-2.1
			C166.3,147.9,165.6,147.6,164.8,147.6z"/>
	</g>
	<g>
		<path fill="#FFFFFF" d="M75.5,67c-2-3.5-4.6-4.7-8.6-4.1c0,0.5,0.1,1,0.1,1.6c0.1,2,0.2,4.1,0.2,6.1c0,1.3-0.4,2.5-2,3
			c-0.2-2.3-0.5-4.5-0.7-6.7c-0.6,0-1.2,0-1.8,0c-0.2,2.3-0.5,4.5-0.7,6.9c-0.6-0.5-1.2-0.7-1.4-1.2c-1.5-3.1-0.4-6.5-0.3-9.8
			c-3.9-0.5-6.5,0.6-8.4,3.8c-0.7,1.3-1.4,2.7-1.8,4.1c-1.8,6.1-1.8,12.3-1.3,18.6c0.1,1.5,1.4,2.3,2.8,2.1c1.3-0.2,1.9-1.2,1.9-2.7
			c0.1-4,0-8,0.3-12c0.1-2,0.7-4,1.2-6c0.2,0,0.3,0.1,0.5,0.1c0,3.8,0,7.5,0,11.2c0,10.6,0,21.3,0,31.9c0,0.5,0,0.9,0.1,1.5
			c0.2,1.7,1.6,3,3.4,3.1c2.3,0.2,4-1.5,4-4c0-8.4,0-16.7,0-25.1c0-0.5,0-1,0-1.7c0.5,0,0.9,0.1,1.4,0.1c0,0.6,0,1.2,0,1.8
			c0,8.3,0,16.5,0,24.8c0,2.5,1.5,4.2,3.7,4.2c2.2,0,3.7-1.6,3.7-4.1c0-8.2,0-16.3,0-24.5c0-6.4,0-12.9,0-19.3c0.1,0,0.2,0,0.3,0
			c0.3,0.9,0.5,1.9,0.7,2.7c1.2,4.9,0.9,10,0.8,15c0,1.9,0.7,2.9,2.2,2.9c1.6,0.1,2.5-0.9,2.5-2.8c0-3.4,0.1-6.7,0-10.1
			C78.1,74.4,77.6,70.6,75.5,67z"/>
		<path fill="#FFFFFF" d="M56,51.1c1.5,0.1,1.2,0.9,0.9,1.8c-0.8,4.2,2.3,8,6.6,8c4.4,0,7.5-3.7,6.6-8.2c-0.1-0.8-0.2-1.4,0.8-1.6
			c0.4-0.1,0.9-0.9,0.9-1.4c-0.1-0.9-0.5-2-1-2.8c-3-4.5-10.9-4.8-14.3-0.5c-0.7,0.9-1,2.1-1.4,3.3C55.2,50.2,55.7,51.1,56,51.1z
			 M62.2,48.2c2.8-0.1,5.8-0.4,8,2c-4.4-1.6-8.7-1.7-13,0C58.2,48.3,60.3,48.3,62.2,48.2z"/>
		<path fill="#FFFFFF" d="M63.7,66.4c0.5-0.8,1.2-1.3,1.2-1.7c-0.1-0.7,0.3-1.9-1.2-1.9c-1.5,0-0.9,1.3-1.2,2
			C62.4,65.1,63,65.6,63.7,66.4z"/>
		<path fill="#FFFFFF" d="M167.7,79.2c-1-0.8-2.1-1.8-3.1-2.7c-0.4-0.3-0.8-0.7-1.4-1.3c0.7,0,1.3,0,1.8,0c2.1-0.1,3.9-1.8,4.2-3.8
			c0.3-2-0.9-3.9-2.9-4.6c-1.4-0.5-2.7-0.4-4,0.2c-1.7,0.7-3.3,1.6-5,2.3c-0.3-0.6-0.5-1.2-0.8-1.6c-1.5-2.7-2.9-5.5-4.5-8.1
			c-1.9-3-4.8-4.6-8.5-4.6c-11.5,0-23.2,0-34.8,0c-3.4,0-6.3,1.3-8.2,4.1c-1.7,2.5-3.1,5.2-4.6,7.9c-0.4,0.7-0.7,1.6-1.2,2.4
			c-1.6-0.7-3.1-1.6-4.7-2.2c-0.9-0.4-2-0.6-3-0.6c-2.3,0-4.2,2.1-4.2,4.3c0,2.2,1.9,4.2,4.3,4.3c0.5,0,0.9,0,1.5,0
			c0,0.1,0.1,0.2,0.1,0.2c-0.2,0.1-0.4,0.2-0.5,0.4c-1.7,1.5-3.4,2.7-4.9,4.3c-1.9,1.8-3.3,4.1-3.3,6.7c-0.1,6,0,11.9,0,17.8
			c0,1.8,0.4,3.5,1.7,4.7c1.2,1.3,1.4,2.5,1.3,4.1c0,0.3,0,0.6,0,0.9c0,2.2,1.9,4.1,4.1,4.1c4.9,0,10,0,14.9,0
			c2.3,0,4.1-1.8,4.1-4.1c0-0.5,0-1,0-1.6c13.5,0,27,0,40.5,0c0,0.6,0,1,0,1.6c0,2.2,1.8,4.1,4.1,4.1c5,0,10,0,15,0
			c1.8,0,3.4-1.3,3.9-2.9c0.2-0.8,0.2-1.7,0.2-2.5c-0.1-1.4,0-2.5,1.2-3.5c0.2-0.1,0.3-0.4,0.4-0.6c0.4-1,0.8-2.2,1.4-3.4
			c0-6.6,0-13.1,0-19.7C171.3,83.4,169.9,80.9,167.7,79.2z M162.6,96.8c-0.7,1-1.7,1.6-2.9,1.6c-0.7,0-1.6,0-2.3,0
			c-0.7,0-1.5,0-2.3,0c-1.5,0-3,0-4.5,0c-0.7,0-1.3-0.2-1.5-0.9c-0.2-0.7,0-1.5,0.6-1.9c1.3-0.8,2.5-1.6,3.9-2.4
			c1.6-0.9,3.1-1.9,4.7-2.8c1.5-0.9,3.1-0.6,4.2,0.8C163.6,92.7,163.6,95.1,162.6,96.8z M125.7,87.7c-0.7,0-1.4-0.6-1.4-1.4
			c0-0.7,0.6-1.4,1.4-1.4c0.7,0,1.4,0.6,1.4,1.4S126.4,87.7,125.7,87.7z M140.1,94.4c-0.2,1.2-0.5,2.2-0.8,3.4
			c-0.1,0.5-0.4,0.7-0.9,0.7c-8.3,0-16.6,0-24.9,0c-0.5,0-0.9-0.1-1-0.7c-0.3-1.3-0.6-2.5-0.8-3.8c-0.1-1,0.1-1.3,1.3-1.3
			c2.9,0,5.9,0,8.7,0c1.5,0,2.9,0,4.3,0c4.3,0,8.5,0,12.8,0C140,92.6,140.3,92.9,140.1,94.4z M89.2,90.9c1-1.3,2.6-1.6,4-0.6
			c2.8,1.7,5.7,3.5,8.5,5.1c0.7,0.4,0.9,1.2,0.8,1.9c-0.2,0.8-0.7,1-1.6,1c-1.5,0-3,0-4.5,0c-1.4,0-2.7,0-4.1,0
			c-2.3,0-3.7-1-4.1-3.4C87.9,93.4,88.2,92.1,89.2,90.9z M159,71.7c1.6-0.7,3.1-1.5,4.7-2.1c0.3-0.1,0.8-0.1,1.3,0
			c0.6,0.1,1.2,0.6,1.2,1.3c0,0.7-0.5,1.3-1.3,1.4c-0.6,0.1-1.3,0.1-1.9,0.1c-0.9,0-1.9,0-2.8,0c-0.4,0-0.7-0.2-1.2-0.4
			C159,71.8,159,71.7,159,71.7z M96.2,72c1.4-2.6,2.7-5.4,4.1-8c0.5-1,1.3-2,1.9-2.9c1.5-2.2,3.7-3.1,6.3-3.1c11.4,0,22.9,0,34.3,0
			c2.5,0,4.7,0.8,6.1,3c1.7,2.7,3.1,5.6,4.7,8.3c0.5,0.8,0.9,1.8,1.4,2.6c0.6,1.2,0.4,2.2-0.8,2.7c-0.7,0.3-1.6,0.5-2.4,0.5
			c-8.7,0-17.4,0-26.1,0l0,0c-8.7,0-17.4,0-26.1,0c-1,0-2-0.1-2.8-0.8C95.9,73.7,95.8,72.9,96.2,72z M87,72.3c-0.7,0-1.4-0.3-1.7-1
			c-0.1-0.3,0-0.9,0.2-1.3c0.4-0.6,1.3-0.8,1.9-0.6c1.6,0.6,3.3,1.5,4.8,2.1c0,0.1,0,0.2,0,0.3c-0.3,0.1-0.6,0.4-0.9,0.4
			C89.9,72.3,88.4,72.3,87,72.3z M165,109.7c-0.6,0.1-1.3,0.2-1.9,0.2c-24.8,0-49.7,0-74.4,0c-1,0-2.2-0.2-3.1-0.5
			c-1.8-0.6-2.7-2.1-3-3.8c1.4,0.4,2.7,1.2,4.1,1.4c2.1,0.2,4.3,0.1,6.4,0.1c23.2,0,46.5,0,69.7,0c2.2,0,4.2-0.4,6.1-1.8
			C168.8,107.5,167.1,109.3,165,109.7z"/>
	</g>
</g>
<g id="Layer_4">
</g>
<g id="Layer_3">
</g>
<g id="Layer_2">
</g>
</svg>
