<?xml version="1.0" encoding="utf-8"?>
<!-- Generator: Adobe Illustrator 18.0.0, SVG Export Plug-In . SVG Version: 6.00 Build 0)  -->
<!DOCTYPE svg PUBLIC "-//W3C//DTD SVG 1.0//EN" "http://www.w3.org/TR/2001/REC-SVG-20010904/DTD/svg10.dtd">
<svg version="1.0" xmlns="http://www.w3.org/2000/svg" xmlns:xlink="http://www.w3.org/1999/xlink" x="0px" y="0px"
	 viewBox="0 0 63.5 63.5" enable-background="new 0 0 63.5 63.5" xml:space="preserve">
<g id="Layer_5">
</g>
<g id="Layer_1">
	<g>
		<path fill="#D4B02A" d="M52.5,26.9L43.2,36l2.2,12.8c0,0.2,0,0.3,0,0.5c0,0.7-0.3,1.3-1.1,1.3c-0.4,0-0.7-0.1-1-0.3l-11.5-6.1
			l-11.5,6.1c-0.3,0.2-0.7,0.3-1,0.3c-0.7,0-1.1-0.6-1.1-1.3c0-0.2,0-0.3,0.1-0.5L20.4,36l-9.3-9.1c-0.3-0.3-0.6-0.8-0.6-1.2
			c0-0.8,0.8-1.1,1.4-1.2l12.9-1.9l5.8-11.7c0.2-0.5,0.7-1.1,1.3-1.1c0.6,0,1,0.6,1.3,1.1l5.8,11.7l12.9,1.9
			c0.6,0.1,1.4,0.4,1.4,1.2C53.2,26.1,52.8,26.5,52.5,26.9z"/>
	</g>
</g>
<g id="Layer_4">
</g>
<g id="Layer_3">
</g>
<g id="Layer_2">
</g>
</svg>
