<?xml version="1.0" encoding="utf-8"?>
<!-- Generator: Adobe Illustrator 18.0.0, SVG Export Plug-In . SVG Version: 6.00 Build 0)  -->
<!DOCTYPE svg PUBLIC "-//W3C//DTD SVG 1.0//EN" "http://www.w3.org/TR/2001/REC-SVG-20010904/DTD/svg10.dtd">
<svg version="1.0" xmlns="http://www.w3.org/2000/svg" xmlns:xlink="http://www.w3.org/1999/xlink" x="0px" y="0px"
	 viewBox="0 0 63.5 63.5" enable-background="new 0 0 63.5 63.5" xml:space="preserve">
<g id="Layer_5">
</g>
<g id="Layer_1">
	<g>
		<path fill="#D4B02A" d="M55.5,51.4h-3.9v3.9c0,2.2-1.7,3.9-3.9,3.9c-2.2,0-3.9-1.7-3.9-3.9v-3.9H20.3v3.9c0,2.2-1.7,3.9-3.9,3.9
			s-3.9-1.7-3.9-3.9v-3.9H8.5V32.9c0-2.5,0.2-4.4,0.8-6.8l3.2-13.9C13,7.3,21.6,4.4,32,4.4s19,2.9,19.6,7.8l3.2,13.9
			c0.6,2.4,0.7,4.3,0.7,6.8V51.4z M16.4,37.7c-2.2,0-3.9,1.7-3.9,3.9c0,2.2,1.7,3.9,3.9,3.9s3.9-1.7,3.9-3.9
			C20.3,39.4,18.5,37.7,16.4,37.7z M48,17.7c-0.2-0.9-1-1.6-1.9-1.6H18c-0.9,0-1.7,0.7-1.9,1.6l-2.2,11.8c-0.2,1.2,0.7,2.3,1.9,2.3
			h32.5c1.2,0,2.1-1.1,1.9-2.3L48,17.7z M41.8,9.3H22.2c-0.8,0-1.5,0.6-1.5,1.5s0.7,1.5,1.5,1.5h19.6c0.8,0,1.5-0.6,1.5-1.5
			S42.6,9.3,41.8,9.3z M47.7,37.7c-2.2,0-3.9,1.7-3.9,3.9c0,2.2,1.7,3.9,3.9,3.9c2.2,0,3.9-1.7,3.9-3.9
			C51.6,39.4,49.9,37.7,47.7,37.7z"/>
	</g>
</g>
<g id="Layer_4">
</g>
<g id="Layer_3">
</g>
<g id="Layer_2">
</g>
</svg>
