<svg xmlns="http://www.w3.org/2000/svg" xmlns:xlink="http://www.w3.org/1999/xlink" x="0" y="0" version="1.1" viewBox="0 0 50 50" width="100" height="100"><g fill="none" stroke="none" stroke-width="1" stroke-linecap="butt" stroke-linejoin="miter" stroke-miterlimit="10" stroke-dasharray="" stroke-dashoffset="0" font-family="sans-serif" font-weight="normal" font-size="12" text-anchor="start" mix-blend-mode="normal"><g><g><path d="M0,50l0,-50l50,0l0,50z" fill="none"/><path d="M7.14,48.5c-3.11489,0 -5.64,-2.52511 -5.64,-5.64l0,-35.72c0,-3.11489 2.52511,-5.64 5.64,-5.64l35.72,0c3.11489,0 5.64,2.52511 5.64,5.64l0,35.72c0,3.11489 -2.52511,5.64 -5.64,5.64z" fill="#8e8e93"/><g fill="#ffffff"><path d="M41.54188,11.07l-33.08375,0c-1.9206,0 -3.4825,1.5619 -3.4825,3.4825l0,20.895c0,1.9206 1.5619,3.4825 3.4825,3.4825l33.08375,0c1.9206,0 3.4825,-1.5619 3.4825,-3.4825l0,-20.895c0,-1.9206 -1.5619,-3.4825 -3.4825,-3.4825z M10.19938,32.83563c0.21069,-3.50601 4.7214,-2.99495 5.397,-4.81369c0.05572,-0.6225 0,-1.05607 0,-1.62459c-0.28208,-0.14801 -1.07,-0.94811 -1.19189,-1.83876c0,0 -0.63817,-0.30298 -0.67299,-1.26241c-0.01828,-0.50844 0.33867,-0.86888 0.33867,-0.86888c-0.66516,-2.5518 -0.37698,-5.20024 3.03935,-5.26293c0.85408,0 1.4966,0.41268 1.75257,0.86366c2.37681,0 1.75953,3.31621 1.39909,4.40014c0.13321,0.13408 0.29775,0.50061 0.29775,0.99687c0,0.70956 -0.67299,1.13442 -0.67299,1.13442c-0.12798,0.90458 -0.76528,1.65245 -1.15445,1.83876c0,0.56852 -0.05572,1.00296 0,1.62459c0.67648,1.81786 5.18718,1.30681 5.39788,4.81282z M38.93,30.22375l-10.4475,0c-0.48146,0 -0.87062,-0.38917 -0.87062,-0.87062c0,-0.48146 0.38917,-0.87063 0.87062,-0.87063l10.4475,0c0.48146,0 0.87063,0.38917 0.87063,0.87063c0,0.48146 -0.38917,0.87062 -0.87063,0.87062z M38.93,25.87063l-10.4475,0c-0.48146,0 -0.87062,-0.39004 -0.87062,-0.87063c0,-0.48058 0.38917,-0.87062 0.87062,-0.87062l10.4475,0c0.48146,0 0.87063,0.39004 0.87063,0.87062c0,0.48059 -0.38917,0.87063 -0.87063,0.87063z M38.93,21.5175l-10.4475,0c-0.48146,0 -0.87062,-0.39004 -0.87062,-0.87062c0,-0.48058 0.38917,-0.87062 0.87062,-0.87062l10.4475,0c0.48146,0 0.87063,0.39004 0.87063,0.87062c0,0.48058 -0.38917,0.87062 -0.87063,0.87062z"/></g></g></g></g></svg>