<?xml version="1.0" encoding="utf-8"?>
<!-- Generator: Adobe Illustrator 18.0.0, SVG Export Plug-In . SVG Version: 6.00 Build 0)  -->
<!DOCTYPE svg PUBLIC "-//W3C//DTD SVG 1.0//EN" "http://www.w3.org/TR/2001/REC-SVG-20010904/DTD/svg10.dtd">
<svg version="1.0" id="Layer_1" xmlns="http://www.w3.org/2000/svg" xmlns:xlink="http://www.w3.org/1999/xlink" x="0px" y="0px"
	 viewBox="0 0 128 128" enable-background="new 0 0 128 128" xml:space="preserve">
<g>
	<g>
		<path fill="#D1A738" d="M64,0C28.7,0,0,28.7,0,64s28.7,64,64,64s64-28.7,64-64S99.3,0,64,0z M64,120C33.1,120,8,94.9,8,64
			S33.1,8,64,8s56,25.1,56,56S94.9,120,64,120z"/>
	</g>
</g>
<g>
	<g>
		<path fill="#D1A738" d="M64,48c-4.4,0-8,3.6-8,8v40c0,4.4,3.6,8,8,8s8-3.6,8-8V56C72,51.6,68.4,48,64,48z M64,40c4.4,0,8-3.6,8-8
			s-3.6-8-8-8s-8,3.6-8,8S59.6,40,64,40z"/>
	</g>
</g>
</svg>
