<?xml version="1.0" encoding="utf-8"?>
<!-- Generator: Adobe Illustrator 18.0.0, SVG Export Plug-In . SVG Version: 6.00 Build 0)  -->
<!DOCTYPE svg PUBLIC "-//W3C//DTD SVG 1.0//EN" "http://www.w3.org/TR/2001/REC-SVG-20010904/DTD/svg10.dtd">
<svg version="1.0" xmlns="http://www.w3.org/2000/svg" xmlns:xlink="http://www.w3.org/1999/xlink" x="0px" y="0px"
	 viewBox="0 0 63.5 63.5" enable-background="new 0 0 63.5 63.5" xml:space="preserve">
<g id="Layer_5">
</g>
<g id="Layer_1">
	<g>
		<g>
			<g>
				<path fill="#D4B02A" d="M40.4,61c-0.8-0.8-1.6-1.7-2.5-2.5c-0.9-0.9-1.8-1.8-2.8-2.7c-0.3-0.3-0.4-0.6-0.4-1.1
					c0-7.4,0-14.7,0-22.1c0-0.9-0.2-1.4-1.1-1.9c-3.6-2.1-5.9-5.2-6.7-9.3C25.4,14,30.6,6.4,38,5.2c7-1.1,13.4,2.7,15.6,9.4
					c2,6.1-0.4,12.8-6.5,16.2c-0.8,0.4-1,0.9-0.9,1.7c0,2.9,0,5.8,0,8.7c0,0.3-0.1,0.6-0.3,0.7c-1,1-2,2-3.1,3.1
					c1.2,1.1,2.4,2.2,3.5,3.4c-1.2,1.2-2.3,2.3-3.5,3.4c1.2,1.2,2.3,2.3,3.5,3.4c-2,2-3.9,3.9-5.8,5.8C40.4,61,40.4,61,40.4,61z
					 M45.3,13c0-2.7-2.2-4.9-4.9-4.9c-2.6,0-4.9,2.2-4.9,4.8c0,2.6,2.2,4.9,4.8,4.9C43,17.9,45.3,15.7,45.3,13z M35.9,54.6
					c0.7,0,1.3,0,1.9,0c0-7.6,0-15.1,0-22.6c-0.7,0-1.3,0-1.9,0C35.9,39.5,35.9,47,35.9,54.6z"/>
				<path fill="#D4B02A" d="M21.8,40.6c0,0.9,0,1.7,0,2.5c0,0.8,0,1.6,0,2.4c-1.6,0-3.2,0-4.8,0c0,1.6,0,3.2,0,4.8
					c-2.7,0-5.4,0-8.1,0c0-0.2,0-0.4,0-0.5c0-2.4,0-4.7,0-7.1c0-0.2,0.1-0.5,0.3-0.7c5.3-5.3,10.6-10.7,16-16
					c0.1-0.1,0.2-0.1,0.3-0.2c0.1,0.2,0.1,0.4,0.2,0.5c0.3,0.4,0.1,0.7-0.2,1.1c-2.2,2.1-4.3,4.3-6.5,6.5c-2.8,2.8-5.6,5.6-8.4,8.4
					c-0.1,0.1-0.3,0.2-0.5,0.3c0.6,0.6,1,1,1.5,1.5c5.1-5.1,10.2-10.2,15.3-15.3c0.3,0.4,0.5,0.7,0.8,1c1.2,1.5,2.7,2.6,4.3,3.6
					c0.3,0.2,0.4,0.3,0.4,0.7c0.1,0.8-0.2,1.3-0.7,1.8c-1.6,1.5-3.1,3.1-4.7,4.7c-0.3,0.3-0.5,0.4-0.9,0.4
					C24.8,40.6,23.4,40.6,21.8,40.6z"/>
			</g>
		</g>
	</g>
</g>
<g id="Layer_4">
</g>
<g id="Layer_3">
</g>
<g id="Layer_2">
</g>
</svg>
