<?xml version="1.0" encoding="utf-8"?>
<!-- Generator: Adobe Illustrator 18.0.0, SVG Export Plug-In . SVG Version: 6.00 Build 0)  -->
<!DOCTYPE svg PUBLIC "-//W3C//DTD SVG 1.0//EN" "http://www.w3.org/TR/2001/REC-SVG-20010904/DTD/svg10.dtd">
<svg version="1.0" xmlns="http://www.w3.org/2000/svg" xmlns:xlink="http://www.w3.org/1999/xlink" x="0px" y="0px"
	 viewBox="0 0 63.5 63.5" enable-background="new 0 0 63.5 63.5" xml:space="preserve">
<g id="Layer_5">
</g>
<g id="Layer_1">
	<g>
		<path fill="#D4B02A" d="M48.4,40.3L33.8,55c-0.7,0.7-1.7,1.1-2.7,1.1c-1,0-2-0.4-2.7-1.1L7,33.6c-1.5-1.5-2.7-4.4-2.7-6.5V14.6
			c0-2.1,1.7-3.8,3.8-3.8h12.4c2.1,0,5,1.2,6.5,2.7l21.4,21.3c0.7,0.7,1.1,1.7,1.1,2.7S49.1,39.6,48.4,40.3z M13.8,16.5
			c-2.1,0-3.8,1.7-3.8,3.8s1.7,3.8,3.8,3.8s3.8-1.7,3.8-3.8S16,16.5,13.8,16.5z M59.9,40.3L45.3,55c-0.7,0.7-1.7,1.1-2.7,1.1
			c-1.6,0-2.3-0.7-3.3-1.8l14-14c0.7-0.7,1.1-1.7,1.1-2.7s-0.4-2-1.1-2.7L31.9,13.5c-1.5-1.5-4.4-2.7-6.5-2.7H32
			c2.1,0,5,1.2,6.5,2.7l21.4,21.3c0.7,0.7,1.1,1.7,1.1,2.7S60.6,39.6,59.9,40.3z"/>
	</g>
</g>
<g id="Layer_4">
</g>
<g id="Layer_3">
</g>
<g id="Layer_2">
</g>
</svg>
