<?xml version="1.0" encoding="utf-8"?>
<!-- Generator: Adobe Illustrator 18.0.0, SVG Export Plug-In . SVG Version: 6.00 Build 0)  -->
<!DOCTYPE svg PUBLIC "-//W3C//DTD SVG 1.0//EN" "http://www.w3.org/TR/2001/REC-SVG-20010904/DTD/svg10.dtd">
<svg version="1.0" xmlns="http://www.w3.org/2000/svg" xmlns:xlink="http://www.w3.org/1999/xlink" x="0px" y="0px"
	 viewBox="0 0 136 161.5" enable-background="new 0 0 136 161.5" xml:space="preserve">
<g id="Layer_1">
</g>
<g id="Layer_2">
	<g>
		<rect x="5.3" y="3.9" fill="#CCCCCC" width="1.6" height="153.6"/>
	</g>
	<g>
		<g>
			<path fill="#D4B02A" d="M75.2,92.4c-0.4,0.1-0.8,0.2-1.1,0.3c-2.1,0.5-3.2,1.9-3.5,4c-0.2,1.4-0.2,2.8-0.2,4.1
				c-0.1,3.3-0.2,6.7-0.2,10c0,2.4,2,3.8,4.1,2.9c1.1-0.5,1.5-1.4,1.4-2.6c-0.2-1.8-0.5-3.6-0.5-5.4c0-4.6,2.4-7.1,7-7.7
				c3.8-0.5,7.6,0,11.3,0.6c2.2,0.3,1.6,0.6,2.6-1.3c3.1-5.9,6.1-11.8,9.1-17.7c1.1-2.2,0.8-5.3-0.9-7.1c-0.5-0.6-0.9-0.8-1.7-0.4
				c-1.7,1-3.7,1.1-5.6,0.7c-0.7-0.2-1.1,0.1-1.5,0.6c-3.2,3.4-5.1,7.7-7.3,11.7c-0.4,0.7-0.8,1-1.6,1c-3,0.2-6,0.6-9.1,0.7
				C74.3,86.9,72.9,89.7,75.2,92.4z"/>
			<path fill="#D4B02A" d="M31.6,92.4c-3.4,0.9-4.4,1.9-4.6,5.3c-0.2,4.4-0.3,8.9-0.3,13.4c0,2.2,2.1,3.5,4.1,2.6
				c1.1-0.5,1.5-1.4,1.4-2.6c-0.2-1.7-0.5-3.5-0.5-5.3c0-4.6,2.5-7.2,7.1-7.8c3.8-0.5,7.6,0,11.3,0.6c1.2,0.2,1.9,0.1,2.5-1.2
				c3-6,6.2-12,9.2-18c1.1-2.2,0.6-5.4-1.1-7.2c-0.4-0.5-0.8-0.6-1.4-0.2c-1.8,1-3.8,1.2-5.8,0.7c-0.7-0.1-1,0.1-1.5,0.6
				c-3.2,3.4-5,7.6-7.2,11.6c-0.4,0.8-0.9,1.1-1.9,1.2c-2.8,0.2-5.7,0.6-8.5,0.6C31,86.8,29.2,89.3,31.6,92.4z"/>
			<path fill="#D4B02A" d="M89,113.3c2.8,0,5.7,0,8.5,0c1.5,0,2.4-0.7,2.4-2c0-1.3-0.9-2.1-2.4-2.1c-4.9,0-9.8,0-14.6,0
				c-0.9,0-1.3-0.2-1.3-1.2c0-0.6-0.1-1.2-0.1-1.8c0-1.7,0.1-1.8,1.8-2c3.7-0.4,7.3,0.2,10.9,0.9c2.9,0.5,5.3-0.5,6.6-3.1
				c4.4-8.6,8.8-17.1,13.2-25.7c0.7-1.3,0.4-2.5-0.7-3.1c-1.1-0.6-2.2-0.1-2.9,1.2c-4.3,8.4-8.6,16.7-12.9,25.1
				c-0.9,1.7-1.1,1.7-3,1.4c-3.8-0.6-7.6-1.2-11.5-0.8c-0.8,0.1-1.6,0.2-2.4,0.5c-1.8,0.6-2.8,1.7-3.1,3.6c-0.4,2.6,0,5.1,0.6,7.6
				c0.2,1,1.1,1.4,2.1,1.4C83.1,113.3,86,113.3,89,113.3C89,113.3,89,113.3,89,113.3z"/>
			<path fill="#D4B02A" d="M45.5,113.3c2.7,0,5.3,0,8,0c2,0,2.9-0.6,2.9-2c0-1.4-0.9-2.1-2.8-2.1c-4.7,0-9.4,0-14.2,0
				c-0.9,0-1.4-0.2-1.3-1.2c0-0.1,0-0.2,0-0.3c-0.3-3.4-0.3-3.6,3.2-3.5c3.1,0.1,6.3,0.5,9.4,1c2.9,0.4,5.2-0.4,6.6-3.1
				c2.1-4,4.2-8.1,6.3-12.2c2.3-4.5,4.7-9.1,7-13.6c0.6-1.1,0.4-2.1-0.5-2.8c-0.8-0.6-1.9-0.5-2.6,0.2c-0.3,0.3-0.5,0.7-0.7,1.1
				c-4.2,8.1-8.3,16.2-12.5,24.2c-0.2,0.3-0.4,0.7-0.5,1c-0.5,1-1.3,1.3-2.4,1.1c-2.8-0.4-5.5-0.8-8.3-1c-1.5-0.1-3,0-4.5,0.2
				c-3.4,0.6-4.7,2-4.7,5.5c0,2,0.4,4,0.7,5.9c0.2,1.1,1,1.6,2.3,1.6c1.5,0,2.9,0,4.4,0C42.6,113.3,44,113.3,45.5,113.3
				C45.5,113.3,45.5,113.3,45.5,113.3z"/>
			<path fill="#D4B02A" d="M55.3,70.6c3.7,0,6.7-3,6.6-6.7c0-3.7-3.1-6.6-6.7-6.6c-3.7,0-6.6,3.1-6.6,6.8
				C48.7,67.8,51.7,70.7,55.3,70.6z"/>
			<path fill="#D4B02A" d="M98.9,70.6c3.7,0,6.6-3,6.6-6.7c0-3.7-2.9-6.6-6.6-6.6c-3.7,0-6.7,2.9-6.7,6.7
				C92.2,67.7,95.1,70.7,98.9,70.6z"/>
		</g>
	</g>
</g>
</svg>
