<?xml version="1.0" encoding="utf-8"?>
<!-- Generator: Adobe Illustrator 18.0.0, SVG Export Plug-In . SVG Version: 6.00 Build 0)  -->
<!DOCTYPE svg PUBLIC "-//W3C//DTD SVG 1.0//EN" "http://www.w3.org/TR/2001/REC-SVG-20010904/DTD/svg10.dtd">
<svg version="1.0" xmlns="http://www.w3.org/2000/svg" xmlns:xlink="http://www.w3.org/1999/xlink" x="0px" y="0px"
	 viewBox="0 0 63.5 63.5" enable-background="new 0 0 63.5 63.5" xml:space="preserve">
<g id="Layer_5">
</g>
<g id="Layer_1">
</g>
<g id="Layer_4">
</g>
<g id="Layer_3">
</g>
<g id="Layer_2">
	<g>
		<path d="M16.5,30.3V10.8c0-0.1,0-0.4,0.3-0.6c0.2-0.2,0.5-0.3,0.6-0.3h24.4v2.3c0,0.7,0.3,1.5,0.8,2c0.6,0.6,1.3,0.8,2,0.8h2.3
			v15.2h2V15.1v0l-7.2-7.2H17.3c-0.7,0-1.5,0.3-2,0.8c-0.6,0.6-0.8,1.3-0.8,2v19.5H16.5z"/>
		<g>
			<path d="M44.1,27.8c0,0.4-0.3,0.7-0.7,0.7H19.9c-0.4,0-0.7-0.3-0.7-0.7l0,0c0-0.4,0.3-0.7,0.7-0.7h23.5
				C43.8,27.1,44.1,27.5,44.1,27.8L44.1,27.8z"/>
			<path d="M44.1,24c0,0.4-0.3,0.7-0.7,0.7H19.9c-0.4,0-0.7-0.3-0.7-0.7l0,0c0-0.4,0.3-0.7,0.7-0.7h23.5
				C43.8,23.3,44.1,23.6,44.1,24L44.1,24z"/>
			<path d="M44.1,20.1c0,0.4-0.3,0.7-0.7,0.7H19.9c-0.4,0-0.7-0.3-0.7-0.7l0,0c0-0.4,0.3-0.7,0.7-0.7h23.5
				C43.8,19.4,44.1,19.7,44.1,20.1L44.1,20.1z"/>
			<path d="M39.5,16.2c0,0.4-0.3,0.7-0.7,0.7H19.9c-0.4,0-0.7-0.3-0.7-0.7l0,0c0-0.4,0.3-0.7,0.7-0.7h18.9
				C39.2,15.5,39.5,15.8,39.5,16.2L39.5,16.2z"/>
		</g>
		<path d="M58.2,22.2c-1.4-1.4-3.2-2.1-5.1-2.1h-2.3v11.3c0,0.2-0.1,0.4-0.3,0.6c-0.2,0.2-0.4,0.3-0.6,0.3H13.3
			c-0.2,0-0.4-0.1-0.6-0.3c-0.2-0.2-0.3-0.4-0.3-0.6V20.1h-2.3c-1.8,0-3.7,0.7-5.1,2.1C3.7,23.6,3,25.4,3,27.3v19.5
			c0,0.5,0.2,1,0.6,1.4C4,48.6,4.5,48.8,5,48.8h10.3v-4.3c0-0.2,0.1-0.4,0.3-0.6c0.2-0.2,0.4-0.3,0.6-0.3h1.1v9.5
			c0,0.7,0.3,1.5,0.8,2c0.6,0.6,1.3,0.8,2,0.8h22.9c0.7,0,1.5-0.3,2-0.8c0.6-0.6,0.8-1.3,0.8-2v-9.5h1.1c0.2,0,0.4,0.1,0.6,0.3
			s0.3,0.4,0.3,0.6v4.3h10.3c0.5,0,1-0.2,1.4-0.6c0.4-0.4,0.6-0.9,0.6-1.4V27.3C60.3,25.4,59.6,23.6,58.2,22.2z M44,53.1
			c0,0.1,0,0.4-0.3,0.6c-0.2,0.2-0.5,0.3-0.6,0.3H20.2c-0.1,0-0.4,0-0.6-0.3c-0.2-0.2-0.3-0.5-0.3-0.6v-9.5H44V53.1z M56.3,45h-1.4
			c-0.4,0-0.7-0.3-0.7-0.7c0-0.4,0.3-0.7,0.7-0.7h1.4c0.4,0,0.7,0.3,0.7,0.7C57,44.7,56.7,45,56.3,45z M55.6,29.8
			c-0.8,0-1.4-0.6-1.4-1.4c0-0.8,0.6-1.4,1.4-1.4c0.8,0,1.4,0.6,1.4,1.4C57,29.2,56.4,29.8,55.6,29.8z"/>
	</g>
</g>
</svg>
