<?xml version="1.0" encoding="utf-8"?>
<!-- Generator: Adobe Illustrator 18.0.0, SVG Export Plug-In . SVG Version: 6.00 Build 0)  -->
<!DOCTYPE svg PUBLIC "-//W3C//DTD SVG 1.0//EN" "http://www.w3.org/TR/2001/REC-SVG-20010904/DTD/svg10.dtd">
<svg version="1.0" xmlns="http://www.w3.org/2000/svg" xmlns:xlink="http://www.w3.org/1999/xlink" x="0px" y="0px"
	 viewBox="0 0 63.5 63.5" enable-background="new 0 0 63.5 63.5" xml:space="preserve">
<g id="Layer_5">
</g>
<g id="Layer_1">
	<g>
		<path fill="#D4B02A" d="M54,55.2c0,2-1.7,3.7-3.7,3.7H13.5c-2,0-3.7-1.7-3.7-3.7V33.1c0-2,1.7-3.7,3.7-3.7h1.2V22
			c0-9.4,7.8-17.2,17.2-17.2S49.1,12.6,49.1,22v7.4h1.2c2,0,3.7,1.7,3.7,3.7V55.2z M41.7,29.4V22c0-5.4-4.4-9.8-9.8-9.8
			s-9.8,4.4-9.8,9.8v7.4H41.7z"/>
	</g>
</g>
<g id="Layer_4">
</g>
<g id="Layer_3">
</g>
<g id="Layer_2">
</g>
</svg>
