<?xml version="1.0" encoding="utf-8"?>
<!-- Generator: Adobe Illustrator 18.0.0, SVG Export Plug-In . SVG Version: 6.00 Build 0)  -->
<!DOCTYPE svg PUBLIC "-//W3C//DTD SVG 1.0//EN" "http://www.w3.org/TR/2001/REC-SVG-20010904/DTD/svg10.dtd">
<svg version="1.0" id="Layer_1" xmlns="http://www.w3.org/2000/svg" xmlns:xlink="http://www.w3.org/1999/xlink" x="0px" y="0px"
	 viewBox="0 0 58 19.6" enable-background="new 0 0 58 19.6" xml:space="preserve">
<g>
	<g>
		<path fill="#C5AA2F" d="M40.4,4.4c-0.2,0.8-0.5,1.5-0.7,2.3c0.1,0,0.1,0,0.2,0c0.2,0,0.5,0,0.7,0c0.2,0,0.1,0,0.2-0.1
			c0.2-0.6,0.4-1.3,0.6-1.9c0,0,0-0.1,0-0.1c0-0.1,0-0.1,0.1-0.1c0.6,0,1.2,0,1.9,0c0,0,0,0,0,0c0,0.1,0,0.1,0,0.1
			c-0.3,1-0.6,2-0.9,3c-0.1,0.2,0,0.2-0.2,0.2c-2.9,0-5.8,0-8.7,0c-0.3,0-0.6,0-0.9-0.1c-0.2-0.1-0.4-0.1-0.6-0.3
			c-0.3-0.3-0.5-0.7-0.3-1.1c0.2-0.5,0.3-1,0.5-1.5c0.2-0.7,0.5-1.5,0.7-2.2c0-0.1,0-0.1,0.1-0.1c0.6,0,1.2,0,1.8,0c0,0,0,0,0.1,0
			c0,0.1,0,0.1,0,0.2C34.4,3.8,34,5,33.7,6.3c0,0,0,0,0,0.1c-0.1,0.2,0,0.3,0.2,0.3c0.2,0,0.5,0,0.7,0c0.1,0,0.1,0,0.2-0.1
			c0.2-0.7,0.4-1.3,0.6-2c0,0,0-0.1,0-0.1c0-0.1,0-0.1,0.1-0.1c0,0,0,0,0,0c0.6,0,1.2,0,1.8,0c0,0,0,0,0.1,0
			c-0.2,0.8-0.4,1.5-0.7,2.2c0,0,0.1,0,0.1,0c0.3,0,0.5,0,0.8,0c0.1,0,0.1,0,0.2-0.1c0.2-0.7,0.4-1.3,0.6-2c0.1-0.2,0-0.1,0.2-0.1
			c0.6,0,1.1,0,1.7,0C40.3,4.4,40.3,4.4,40.4,4.4z"/>
		<path fill="#C5AA2F" d="M6.5,9.2C6.4,9.5,6.3,9.7,6.2,10c0,0.1-0.1,0.1-0.1,0.1c-0.3,0-0.6,0-0.9,0c-0.1,0-0.1,0-0.2,0
			c-0.1,0-0.2,0.1-0.2,0.3c0,0.1,0,0.2,0.2,0.2c0.3,0.1,0.6,0.2,0.9,0.2C6.3,10.9,6.6,11,7,11.1c0.1,0.1,0.3,0.1,0.4,0.3
			c0.1,0.1,0.2,0.3,0.1,0.5c-0.1,0.3-0.2,0.7-0.3,1C7.2,13,7.1,13,7,13c-1.8,0-3.6,0-5.4,0c0,0,0,0-0.1,0c0,0,0-0.1,0-0.1
			c0.1-0.3,0.2-0.5,0.2-0.8c0-0.2,0-0.1,0.2-0.1c1,0,1.9,0,2.9,0C4.9,12,5,12,5,12c0,0,0.1,0,0.1-0.1c0-0.1,0-0.1-0.1-0.2
			c-0.1,0-0.1-0.1-0.2-0.1c-0.3-0.1-0.5-0.1-0.8-0.2c-0.3-0.1-0.7-0.2-1-0.3C3,11,2.8,11,2.7,10.8c-0.2-0.2-0.3-0.5-0.2-0.8
			c0.1-0.2,0.2-0.3,0.3-0.4c0.3-0.2,0.6-0.3,0.9-0.4c0.2,0,0.4-0.1,0.7-0.1c0.7,0,1.3,0,2,0C6.4,9.2,6.4,9.2,6.5,9.2z"/>
		<path fill="#C5AA2F" d="M35.3,9.2C35.3,9.3,35.3,9.3,35.3,9.2c-0.1,0.3-0.2,0.6-0.3,0.8c0,0.1-0.1,0.1-0.2,0.1c-0.3,0-0.6,0-1,0
			c-0.5,0-0.9,0-1.4,0.2c-0.2,0.1-0.4,0.1-0.5,0.2c-0.3,0.2-0.5,0.5-0.6,0.8c0,0.1-0.1,0.3-0.1,0.4c0,0.1,0,0.1,0.1,0.1
			c0,0,0.1,0,0.1,0c0.9,0,1.9,0,2.8,0c0.1,0,0.1,0,0.2,0c0,0.1,0,0.1,0,0.2c-0.1,0.3-0.2,0.6-0.3,0.8C34,13,34,13,33.9,13
			c-0.4,0-0.8,0-1.3,0c-1.2,0-2.4,0-3.6,0c-0.1,0-0.1,0-0.2,0c0,0,0-0.1,0-0.1c0.2-0.6,0.3-1.1,0.5-1.7c0.1-0.4,0.3-0.6,0.6-0.9
			c0.4-0.4,0.9-0.6,1.4-0.8c0.6-0.2,1.3-0.3,2-0.4C34,9.2,34.6,9.2,35.3,9.2C35.3,9.2,35.3,9.2,35.3,9.2z"/>
		<path fill="#C5AA2F" d="M27.4,9.2c0,0.1,0,0.1,0,0.2c-0.2,0.8-0.5,1.7-0.8,2.5c-0.1,0.3-0.2,0.7-0.3,1c0,0.1-0.1,0.1-0.1,0.1
			c-0.6,0-1.2,0-1.8,0c0,0,0,0,0,0c0.3-0.9,0.6-1.9,0.9-2.8c-0.7,0-1.3,0-2,0c0-0.1,0-0.1,0-0.1c0.1-0.3,0.2-0.5,0.3-0.8
			c0-0.1,0.1-0.1,0.2-0.1C24.9,9.2,26.1,9.2,27.4,9.2C27.4,9.2,27.4,9.2,27.4,9.2z"/>
		<path fill="#C5AA2F" d="M39.2,16c0,0.1-0.1,0.2-0.1,0.3c0,0,0,0.1,0,0.1c0.1,0,0.1,0,0.2,0c0.1,0,0.3,0,0.4,0c0,0,0.1,0,0.1-0.1
			c0-0.2,0.1-0.3,0.2-0.4c0,0.1,0,0.2,0,0.2c0,0.1,0,0.1,0,0.2c0,0.1,0,0.1,0.1,0.1c0,0,0,0,0,0c0.2,0,0.2,0,0.2-0.2
			c0,0,0-0.1,0-0.1c0.1-0.1,0.1-0.2,0.2-0.3c0,0.1,0,0.2,0,0.3c0,0,0,0,0,0.1c0,0.2,0,0.2,0.1,0.2c0.2,0,0.3,0,0.5,0
			c0.1,0,0.2,0,0.1-0.2c0-0.2,0-0.4-0.1-0.5c0-0.1,0-0.2,0-0.3c0-0.1,0-0.2-0.1-0.2c0,0,0,0,0-0.1c0.1-0.1,0.1-0.2,0.2-0.4
			c0.1,0.2,0.3,0.3,0.5,0.4c-0.1,0.1-0.1,0.2-0.2,0.3c0,0.1-0.1,0.1-0.1,0.2c0,0.2,0,0.3,0.1,0.5c0,0.2,0,0.4-0.1,0.6
			c0,0,0,0.1-0.1,0.1c0,0-0.1,0-0.1,0c-0.2,0-0.4,0-0.5,0c-0.1,0-0.2,0-0.3-0.1c0,0.1-0.1,0.1-0.2,0.1c-0.1,0-0.1,0-0.2,0
			c-0.1,0-0.2,0-0.2-0.1c-0.1,0.1-0.2,0.1-0.3,0.1c-0.1,0-0.3,0-0.4,0c-0.1,0-0.2,0-0.2-0.1c-0.1,0.1-0.2,0.1-0.3,0.1
			c-0.1,0-0.2,0-0.2,0c-0.1,0-0.2,0-0.2-0.1c-0.1,0,0,0.1-0.1,0.1c-0.1,0.2-0.2,0.5-0.4,0.7c-0.1,0.1-0.3,0.2-0.5,0.1
			c-0.2-0.1-0.3-0.1-0.5-0.2c0,0-0.1,0-0.1-0.1c0.1,0,0.1,0,0.2,0c0.2,0.1,0.4,0.1,0.6-0.1c0.2-0.1,0.3-0.2,0.4-0.4
			c0.1-0.1,0.1-0.2,0-0.4c0,0,0,0,0,0c-0.2-0.1-0.1-0.3,0-0.4c0,0,0-0.1,0.1-0.1c0.1,0.1,0.1,0.2,0.2,0.2c0.1,0.2,0.3,0.3,0.5,0.3
			c0.1,0,0.2,0,0.3,0c0.1,0,0.1,0,0.1-0.1c0-0.2,0.1-0.3,0.2-0.4C39.3,15.9,39.3,16,39.2,16z"/>
		<path fill="#C5AA2F" d="M4.9,16.1C4.7,16,4.5,16,4.2,16c-0.1,0-0.2,0-0.2,0.1c0.1,0.2,0.2,0.2,0.3,0.3c0,0,0.1,0,0.1,0
			c0.3,0,0.5,0,0.8,0c-0.1,0.1-0.1,0.2-0.2,0.4c0,0.1-0.1,0.1-0.1,0.1c-0.3,0-0.7,0-1,0c-0.1,0-0.2,0-0.4,0c-0.1,0-0.2,0-0.2,0.1
			c0,0.1-0.1,0.2-0.2,0.3c-0.1,0.1-0.2,0.2-0.3,0.2c-0.2,0.1-0.4,0.1-0.6,0.2c-0.2,0-0.4,0-0.5-0.1c-0.2-0.1-0.2-0.2-0.2-0.4
			c0-0.2,0-0.3,0.1-0.4c0,0,0,0,0-0.1l0,0c0,0,0,0,0,0c0,0,0,0,0,0c0,0,0,0,0,0l0,0c0,0,0,0,0-0.1l0,0c0,0,0,0,0,0l0,0
			c0,0,0,0,0-0.1l0,0c0,0,0,0,0,0l0,0c0,0,0,0,0,0l0,0c0.1,0,0.1,0,0,0.1l0,0c0,0,0,0,0,0l0,0c0,0,0,0,0,0.1l0,0c0,0,0,0,0,0l0,0
			c0,0,0,0,0,0.1l0,0c0,0,0,0,0,0.1c0,0,0,0,0,0c0,0,0,0.1,0,0.1c0,0.3,0.2,0.5,0.5,0.5c0.3,0,0.6-0.1,0.8-0.1
			C3,17,2.9,16.9,2.7,16.9c-0.1,0-0.2,0-0.3,0c0-0.1,0.1-0.2,0.2-0.4c0-0.1,0.1,0,0.1,0c0.3,0,0.6,0,0.8,0c0.1,0,0.1,0,0.1-0.1
			c0-0.1,0.1-0.2,0.1-0.3c0.1-0.1,0.2-0.3,0.4-0.4c0.1-0.1,0.3-0.1,0.4,0C4.8,15.8,4.9,15.9,4.9,16.1C5,16.1,5,16.1,4.9,16.1z"/>
		<path fill="#C5AA2F" d="M27.7,10.2c0-0.1,0-0.1,0-0.2c0.1-0.2,0.1-0.5,0.2-0.7c0-0.1,0-0.1,0.1-0.1c0.5,0,1,0,1.5,0c0,0,0,0,0,0
			c0,0,0,0.1,0,0.1c-0.1,0.3-0.2,0.5-0.3,0.8c0,0.1-0.1,0.1-0.1,0.1C28.7,10.2,28.2,10.2,27.7,10.2C27.7,10.2,27.7,10.2,27.7,10.2z"
			/>
		<path fill="#C5AA2F" d="M26.3,2.4c0,0.1-0.1,0.2-0.1,0.3C26.1,2.9,26,3.1,26,3.3c0,0,0,0.1-0.1,0.1c-0.3,0-0.7,0-1,0
			c0,0,0-0.1,0-0.1C25,3,25.1,2.8,25.2,2.5c0-0.1,0-0.1,0.1-0.1C25.6,2.4,25.9,2.4,26.3,2.4C26.2,2.4,26.2,2.4,26.3,2.4z"/>
		<path fill="#C5AA2F" d="M27.9,2.4c-0.1,0.2-0.1,0.4-0.2,0.7c0,0.1-0.1,0.2-0.1,0.2c0,0,0,0.1-0.1,0.1c-0.3,0-0.7,0-1,0
			c0,0,0-0.1,0-0.1c0.1-0.3,0.2-0.5,0.3-0.8c0-0.1,0-0.1,0.1-0.1C27.2,2.4,27.6,2.4,27.9,2.4C27.9,2.4,27.9,2.4,27.9,2.4z"/>
		<path fill="#C5AA2F" d="M24.3,16.5c0-0.2-0.1-0.3-0.2-0.4c0,0,0,0-0.1-0.1c-0.2-0.1-0.2-0.1-0.1-0.3c0-0.1,0-0.1,0.1-0.2
			c0.3,0.2,0.5,0.4,0.5,0.8c0,0.1,0,0.3,0,0.4c0,0.1-0.1,0.2-0.2,0.2c-0.2,0-0.5,0-0.7,0c-0.1,0-0.1,0-0.1-0.1c0-0.1,0-0.1,0-0.2
			c0-0.1,0-0.1,0.1-0.1C23.8,16.5,24,16.5,24.3,16.5C24.2,16.5,24.3,16.5,24.3,16.5z"/>
		<path fill="#C5AA2F" d="M11.9,16.9c0-0.2,0-0.4-0.1-0.6c0-0.3-0.1-0.5-0.1-0.8c0-0.1,0-0.2,0-0.2c0.1-0.1,0.1-0.2,0.2-0.4
			c0,0.2,0.1,0.4,0.1,0.6c0,0.3,0,0.5,0,0.8c0,0.2,0,0.3-0.1,0.5C11.9,16.8,11.9,16.9,11.9,16.9C11.9,16.9,11.9,16.9,11.9,16.9z"/>
		<path fill="#C5AA2F" d="M42.4,14.9c0.1,0.5,0.1,0.9,0.1,1.4c0,0.2,0,0.3-0.1,0.5c0,0.1,0,0.1-0.1,0.2c0-0.1,0-0.2-0.1-0.4
			c0-0.4-0.1-0.7-0.1-1.1c0-0.1,0-0.2,0-0.2C42.3,15.1,42.3,15,42.4,14.9z"/>
		<path fill="#C5AA2F" d="M31.4,14.9c0.1,0.1,0.1,0.3,0.1,0.4c0,0.3,0.1,0.7,0,1c0,0.2,0,0.4-0.1,0.5c0,0,0,0,0,0.1c0,0,0,0,0,0
			c0-0.1,0-0.3-0.1-0.4c0-0.3-0.1-0.7-0.1-1c0-0.1,0-0.2,0.1-0.3C31.3,15.1,31.3,15,31.4,14.9z"/>
		<path fill="#C5AA2F" d="M22.1,17.6c0.1-0.1,0.1-0.2,0.2-0.3c0.1,0,0.1,0.1,0.2,0.1c0.1,0.1,0.1,0.1,0.2,0c0,0,0.1-0.1,0.1-0.1
			c0.1,0.1,0.2,0.1,0.3,0.2c0,0,0,0,0,0.1c-0.1,0.2-0.1,0.2-0.4,0.1c-0.1-0.1-0.1-0.1-0.2,0c-0.1,0.1-0.1,0.1-0.2,0
			C22.2,17.6,22.2,17.6,22.1,17.6C22.1,17.6,22.1,17.6,22.1,17.6z"/>
		<path fill="#C5AA2F" d="M15.2,15.2C15.2,15.2,15.2,15.2,15.2,15.2c0.1-0.1,0.1-0.2,0.2-0.2c0.1,0,0.1,0.1,0.2,0.1
			c0.1,0.1,0.1,0.1,0.2,0c0.1-0.1,0.1-0.1,0.2,0c0.1,0,0.1,0.1,0.1,0.1c0,0,0,0,0,0c-0.1,0.1-0.1,0.2-0.2,0.2
			c-0.1,0-0.2-0.1-0.2-0.1c-0.1,0-0.1-0.1-0.2,0c-0.1,0.1-0.1,0.1-0.2,0C15.3,15.3,15.3,15.3,15.2,15.2z"/>
		<path fill="#C5AA2F" d="M33.3,15c0,0.1-0.1,0.1-0.1,0.2c0,0-0.1,0-0.1,0c-0.1,0-0.1-0.1-0.2-0.1c-0.1,0-0.1,0-0.1,0
			c0,0-0.1,0.1-0.1,0.1c-0.1,0-0.1-0.1-0.2-0.1c0,0,0,0,0,0c0.1-0.1,0.1-0.1,0.2-0.2c0,0,0,0,0.1,0c0,0,0.1,0,0.1,0.1
			c0.1,0,0.1,0,0.2,0c0.1-0.1,0.1-0.1,0.2,0C33.2,14.9,33.2,14.9,33.3,15z"/>
		<path fill="#C5AA2F" d="M21.5,15C21.5,15,21.5,15,21.5,15c-0.2,0.2-0.2,0.2-0.4,0.1c-0.1,0-0.1,0-0.2,0c-0.1,0.1-0.1,0.1-0.2,0
			c0,0-0.1,0-0.1,0c0,0-0.1-0.1,0-0.1c0,0,0,0,0,0c0.1-0.1,0.1-0.1,0.2,0c0.1,0.1,0.2,0.1,0.2,0c0-0.1,0.1-0.1,0.1,0
			C21.4,14.9,21.5,14.9,21.5,15z"/>
		<path fill="#C5AA2F" d="M1.8,18.1C1.8,18,1.8,18,1.8,18.1C2,17.9,2,17.9,2.1,18c0.1,0,0.1,0,0.1,0c0,0,0,0,0.1-0.1
			c0,0,0.1,0,0.1,0C2.5,18,2.6,18,2.6,18c0,0,0,0,0,0.1c-0.1,0.1-0.1,0.1-0.3,0c-0.1,0-0.1-0.1-0.2,0c-0.1,0.1-0.1,0.1-0.2,0
			C1.9,18.1,1.8,18.1,1.8,18.1z"/>
		<path fill="#C5AA2F" d="M17.1,15C17.1,15,17.1,15,17.1,15c0.1,0.1,0.2,0.2,0.3,0.2c0,0,0,0.1,0,0.1c-0.1,0.1-0.1,0.1-0.2,0.2
			c0,0,0,0,0,0c0,0-0.3-0.2-0.3-0.2c0,0,0,0,0,0C16.8,15.2,17,15,17.1,15z"/>
		<path fill="#C5AA2F" d="M9.3,17.5c0,0.1-0.1,0.1-0.1,0.2c0,0.1-0.1,0.1-0.2,0c-0.3-0.2-0.2-0.1,0-0.3c0,0,0.1,0,0.1,0
			C9.2,17.4,9.3,17.4,9.3,17.5z"/>
		<path fill="#C5AA2F" d="M39.9,15.4c0.1-0.2,0.1-0.2,0.3-0.1c0,0,0.1,0,0.1,0.1c-0.1,0.2-0.1,0.2-0.4,0.1
			C39.9,15.5,39.9,15.5,39.9,15.4C39.9,15.4,39.9,15.4,39.9,15.4z"/>
		<path fill="#C5AA2F" d="M39.9,15.4C39.9,15.4,39.9,15.4,39.9,15.4c-0.1,0.1-0.1,0.1-0.2,0.2c-0.1,0.1-0.1,0.1-0.2,0
			c-0.2-0.1-0.2-0.1,0-0.3c0,0,0.1,0,0.1,0C39.7,15.3,39.8,15.4,39.9,15.4z"/>
		<path fill="#C5AA2F" d="M39.8,15.2c-0.2-0.2-0.2-0.1,0-0.3c0.1,0.1,0.1,0.1,0.2,0.2C40,15.1,39.9,15.2,39.8,15.2z"/>
		<path fill="#C5AA2F" d="M1.9,16.4C1.9,16.4,1.9,16.4,1.9,16.4c0-0.1,0-0.2,0.1-0.2C2,16.3,1.9,16.3,1.9,16.4z"/>
		<path fill="#C5AA2F" d="M39.2,16c0,0,0-0.1,0-0.1c0,0,0,0,0,0c0,0,0,0,0,0C39.3,16,39.3,16,39.2,16z"/>
		<path fill="#C5AA2F" d="M13.3,16.3C13.3,16.3,13.3,16.2,13.3,16.3c0-0.1,0-0.1,0-0.1C13.3,16.2,13.3,16.2,13.3,16.3
			C13.3,16.3,13.3,16.3,13.3,16.3z"/>
		<path fill="#C5AA2F" d="M29,16C29,16,29,16,29,16C29,16,29,15.9,29,16C29.1,16,29.1,16,29,16z"/>
		<path fill="#C5AA2F" d="M4.9,16.1C5,16.1,5,16.1,4.9,16.1C5,16.1,5,16.1,4.9,16.1C5,16.2,5,16.1,4.9,16.1z"/>
		<path fill="#C5AA2F" d="M1.7,16.8C1.7,16.7,1.7,16.7,1.7,16.8C1.7,16.7,1.7,16.7,1.7,16.8z"/>
		<path fill="#C5AA2F" d="M1.8,16.4C1.8,16.4,1.8,16.5,1.8,16.4C1.8,16.4,1.8,16.4,1.8,16.4z"/>
		<path fill="#C5AA2F" d="M1.8,16.5C1.8,16.5,1.8,16.4,1.8,16.5C1.9,16.5,1.9,16.5,1.8,16.5z"/>
		<path fill="#C5AA2F" d="M1.7,16.5C1.7,16.5,1.7,16.5,1.7,16.5C1.7,16.5,1.7,16.5,1.7,16.5z"/>
		<path fill="#C5AA2F" d="M1.8,16.6C1.8,16.6,1.8,16.5,1.8,16.6C1.8,16.6,1.8,16.6,1.8,16.6z"/>
		<path fill="#C5AA2F" d="M1.7,16.7C1.7,16.6,1.7,16.6,1.7,16.7C1.8,16.6,1.8,16.6,1.7,16.7z"/>
		<path fill="#C5AA2F" d="M1.6,16.6C1.6,16.7,1.6,16.7,1.6,16.6C1.6,16.7,1.6,16.7,1.6,16.6z"/>
		<path fill="#C5AA2F" d="M1.9,16.3C1.9,16.4,1.8,16.4,1.9,16.3C1.8,16.4,1.8,16.3,1.9,16.3z"/>
		<path fill="#C5AA2F" d="M1.8,16.4C1.8,16.4,1.8,16.4,1.8,16.4C1.8,16.4,1.8,16.4,1.8,16.4z"/>
		<path fill="#C5AA2F" d="M1.9,16.4C1.9,16.4,1.9,16.4,1.9,16.4C1.9,16.4,1.9,16.4,1.9,16.4z"/>
		<path fill="#C5AA2F" d="M1.8,16.5C1.8,16.5,1.7,16.5,1.8,16.5C1.7,16.5,1.7,16.5,1.8,16.5z"/>
		<path fill="#C5AA2F" d="M1.8,16.5C1.8,16.5,1.8,16.5,1.8,16.5C1.8,16.5,1.8,16.5,1.8,16.5z"/>
		<path fill="#C5AA2F" d="M1.7,16.6C1.7,16.6,1.7,16.6,1.7,16.6C1.7,16.6,1.7,16.6,1.7,16.6z"/>
		<path fill="#C5AA2F" d="M1.7,16.6C1.7,16.6,1.7,16.6,1.7,16.6C1.6,16.6,1.7,16.6,1.7,16.6z"/>
		<path fill="#C5AA2F" d="M30.7,4.4c-0.5,0-1.1,0-1.6,0c0,0-0.1,0-0.1,0c-0.1,0-0.1,0-0.1,0.1c0,0,0,0.1,0,0.1
			c-0.2,0.7-0.4,1.3-0.6,2c0,0.1,0,0.1-0.2,0.1c-0.6,0-1.1,0-1.7,0c0,0-0.1,0-0.1,0c0.2-0.7,0.4-1.5,0.7-2.3c-0.1,0-0.1,0-0.2,0
			c-0.5,0-1.1,0-1.6,0c-0.2,0-0.2,0-0.2,0.2c-0.2,0.7-0.4,1.3-0.6,2c0,0.1,0,0.1-0.2,0.1c-0.5,0-1,0-1.4,0c0,0-0.1,0-0.1,0
			c0.1-0.2,0.1-0.5,0.2-0.7c0.1-0.2,0-0.3,0-0.5c-0.1-0.1-0.1-0.2-0.2-0.3c-0.3-0.3-0.6-0.4-0.9-0.5c-0.6-0.2-1.1-0.2-1.7-0.2
			c-1.6,0-3.2,0-4.9,0c-0.1,0-0.1,0-0.2,0c0.6-0.7,1.1-1.3,1.7-2c0,0,0,0,0,0c-0.5,0-1,0-1.5,0c-0.1,0-0.1,0-0.2,0.1
			c-0.2,0.2-0.4,0.4-0.5,0.6c-0.6,0.7-1.2,1.4-1.9,2.1c0,0-0.1,0.1-0.1,0.1c0.1,0,0.1,0,0.2,0c2.2,0,4.5,0,6.7,0c0.2,0,0.4,0,0.5,0
			c0.3,0.1,0.5,0.1,0.7,0.3c0.2,0.2,0.3,0.4,0.3,0.7c0,0.1,0,0.2-0.1,0.2c0,0.1,0,0.1-0.2,0.1c-3.2,0-6.4,0-9.6,0c0,0-0.1,0-0.1,0
			c0.2-0.7,0.4-1.5,0.7-2.2c-0.1,0-0.1,0-0.2,0c-0.9,0-1.9,0-2.8,0c-0.3,0-0.5,0-0.8,0c-0.5,0.1-1,0.2-1.5,0.4
			C5.5,5.2,5,5.8,4.7,6.6c-0.1,0.3-0.2,0.7-0.3,1c0,0,0,0.1,0,0.1c1.3,0,2.6,0,4,0C8.4,7.9,8.3,8.1,8.2,8.2C8.1,8.5,7.9,8.7,7.7,8.9
			C7.5,9,7.3,9,7.1,9.1C7.1,9.1,7,9.1,7,9.2C6.9,9.5,6.8,9.7,6.8,10c0,0,0,0.1,0,0.1c0,0,0,0,0.1,0C7.4,10,7.9,9.9,8.4,9.7
			C8.9,9.6,9.3,9.3,9.6,9c0.3-0.3,0.6-0.7,0.7-1.1c0.1-0.2,0-0.2,0.3-0.2c6.3,0,12.7,0,19,0c0.2,0,0.2,0,0.2-0.2
			c0.3-0.8,0.5-1.7,0.8-2.5c0.1-0.2,0.1-0.4,0.2-0.6C30.8,4.4,30.7,4.4,30.7,4.4z M9,5.7C9,6,8.9,6.3,8.8,6.6c0,0.1-0.1,0.1-0.1,0.1
			c-0.3,0-0.6,0-0.9,0c-0.3,0-0.6,0-0.9,0c-0.1,0-0.1,0-0.1-0.1c0-0.2,0.1-0.4,0.2-0.5c0.2-0.2,0.5-0.3,0.8-0.4
			C8.2,5.6,8.6,5.6,9,5.7C9,5.6,9.1,5.6,9,5.7z"/>
		<path fill="#C5AA2F" d="M42.4,10.1c-0.2-0.2-0.5-0.4-0.7-0.5c-0.4-0.2-0.9-0.3-1.4-0.3c-0.5,0-1.1,0-1.6,0
			c-0.6,0.1-1.2,0.2-1.7,0.4c-0.4,0.2-0.9,0.4-1.2,0.7c-0.3,0.2-0.4,0.5-0.5,0.8c-0.1,0.2-0.1,0.4-0.2,0.6c-0.1,0.4-0.2,0.7-0.3,1.1
			c0,0.1,0,0.1,0.1,0.1c0,0,0.1,0,0.1,0c1.2,0,2.4,0,3.5,0c1.2,0,2.4,0,3.5,0c0.2,0,0.1,0,0.2-0.1c0.1-0.3,0.2-0.7,0.3-1
			c0.1-0.3,0.2-0.6,0.3-0.9C42.8,10.6,42.7,10.3,42.4,10.1z M40.7,11.3c0,0.2-0.1,0.3-0.1,0.5c0,0.1,0,0.1-0.2,0.1
			c-0.5,0-1.1,0-1.6,0c-0.5,0-1,0-1.6,0c0,0-0.1,0-0.1,0c0,0-0.1,0-0.1-0.1c0.1-0.2,0.1-0.5,0.2-0.7c0.1-0.2,0.2-0.3,0.4-0.3
			c0.3-0.1,0.6-0.2,0.8-0.2c0.4-0.1,0.8-0.1,1.1-0.1c0.2,0,0.3,0,0.5,0.1c0.1,0,0.2,0.1,0.3,0.2C40.7,10.9,40.7,11.1,40.7,11.3z"/>
		<path fill="#C5AA2F" d="M15.2,12.9c-0.5-1.2-1.1-2.4-1.6-3.6c0-0.1-0.1-0.1-0.2-0.1c-0.6,0-1.2,0-1.7,0c-0.1,0-0.1,0-0.2,0.1
			c-0.3,0.3-0.6,0.6-1,0.9c-1,0.9-2,1.8-3,2.7c0,0-0.1,0.1-0.1,0.1c0,0,0,0,0,0C10,13,12.6,13,15.2,12.9C15.2,13,15.2,13,15.2,12.9
			C15.2,13,15.2,13,15.2,12.9C15.2,13,15.2,12.9,15.2,12.9z M10.4,12C10.4,12,10.4,12,10.4,12C10.4,11.9,10.4,11.9,10.4,12
			C10.4,11.9,10.4,11.9,10.4,12c0.6-0.6,1.1-1.1,1.7-1.6c0.2,0.5,0.5,1.1,0.7,1.6C12,12,11.2,12,10.4,12z"/>
		<path fill="#C5AA2F" d="M22.2,9.6C22.2,9.6,22.1,9.6,22.2,9.6c-0.4-0.3-0.8-0.3-1.2-0.3c-1.3,0-2.6,0-3.8,0c0,0-0.1,0-0.1,0
			c0,0-0.1,0-0.1,0.1c0,0,0,0.1,0,0.1c-0.4,1.2-0.8,2.3-1.2,3.5c0,0,0,0.1,0,0.1c0,0,0,0,0.1,0c0.6,0,1.2,0,1.8,0
			c0.1,0,0.1,0,0.1-0.1c0.1-0.4,0.3-0.8,0.4-1.2c0-0.1,0-0.1,0.2-0.1c0.7,0,1.5,0,2.2,0c0.4,0,0.7-0.1,1.1-0.2
			c0.3-0.1,0.5-0.2,0.7-0.5C22.7,10.5,22.7,10,22.2,9.6z M20.5,10.5c-0.1,0.1-0.2,0.1-0.3,0.1c-0.2,0-0.4,0-0.6,0
			c-0.3,0-0.6,0-0.9,0c0,0-0.1,0-0.2,0c0-0.2,0.1-0.3,0.1-0.4c0,0,0-0.1,0.1-0.1c0,0,0.1,0,0.1,0c0.4,0,0.9,0,1.3,0
			c0.1,0,0.2,0,0.3,0c0.1,0,0.2,0.1,0.2,0.2C20.7,10.4,20.6,10.5,20.5,10.5z"/>
		<path fill="#C5AA2F" d="M19.5,15.7c0-0.1,0-0.1,0.1-0.2c0.1-0.1,0.1-0.2,0.2-0.3c-0.2-0.1-0.4-0.2-0.5-0.4
			c-0.1,0.1-0.1,0.3-0.2,0.4c0,0,0,0.1,0,0.1c0.1,0.1,0.1,0.1,0.1,0.2c0,0.1,0,0.2,0.1,0.4c0,0.1,0,0.3,0.1,0.4c0,0.1,0,0.1-0.1,0.1
			c-0.2,0-0.4,0-0.6,0c-0.1,0-0.1,0-0.1-0.1c0,0,0-0.1,0-0.1c0-0.3,0-0.6-0.1-0.8c0-0.2,0-0.4-0.1-0.6c-0.2,0.2-0.3,0.3-0.2,0.6
			c0,0.1,0,0.1,0,0.2c0,0.3,0.1,0.5,0.1,0.8c0,0.1,0,0.1-0.1,0.1c-0.2,0-0.5,0-0.7,0c-0.1,0-0.2-0.1-0.2-0.2c0-0.1,0-0.2,0-0.3
			c0,0,0-0.1,0-0.1c-0.1,0.1-0.3,0.3-0.2,0.5c0,0.1,0,0.1-0.1,0.1c-0.3,0-0.5,0-0.8,0c-0.1,0-0.1,0-0.1-0.1c0,0,0-0.1,0.1-0.1
			c0.1-0.1,0.1-0.2,0-0.3c-0.1-0.3-0.2-0.4-0.5-0.2c-0.2,0.1-0.4,0.3-0.5,0.5c0,0-0.1,0.1-0.1,0.1c0,0.1,0,0.1-0.1,0.1
			c-0.1,0-0.3,0-0.4,0c-0.1,0-0.1,0-0.1-0.1c0-0.4-0.1-0.8-0.1-1.1c0-0.1,0-0.2,0-0.3c-0.1,0.1-0.1,0.2-0.2,0.2
			c-0.1,0.1-0.1,0.2-0.1,0.3c0,0.2,0.1,0.4,0.1,0.6c0,0.3,0.1,0.6,0.1,0.8c0,0.1,0,0.2-0.1,0.2c-0.3,0.1-0.6,0.2-0.9,0
			c-0.1,0-0.2-0.1-0.2-0.3c0-0.1,0-0.2,0-0.3c0-0.1,0-0.1,0.1-0.2c0,0,0-0.1,0-0.1c-0.1,0.2-0.2,0.4-0.2,0.6
			c-0.1,0.3,0.1,0.6,0.4,0.6c0.2,0,0.3,0,0.5,0c0.3-0.1,0.5-0.2,0.6-0.5c0-0.1,0.1-0.1,0.1-0.1c0.1,0,0.2,0,0.3,0c0.6,0,1.2,0,1.8,0
			c0.2,0,0.3,0,0.4-0.2c0,0,0,0,0,0c0.1,0.2,0.2,0.3,0.4,0.2c0.2,0,0.3,0,0.5,0c0.1,0,0.2,0,0.2-0.1c0,0,0-0.1,0.1-0.1c0,0,0,0,0,0
			c0,0.2,0,0.2,0.2,0.2c0.2,0,0.5,0,0.7,0c0.1,0,0.1,0,0.2,0c0,0,0.1,0,0.1-0.1c0-0.2,0.1-0.4,0.1-0.6
			C19.6,16.1,19.5,15.9,19.5,15.7z M16.1,16.3C16.1,16.4,16,16.4,16.1,16.3c-0.2,0.1-0.4,0.1-0.5,0c-0.1-0.1-0.1-0.2,0-0.2
			c0.1-0.1,0.2-0.1,0.2-0.1C16,16,16.1,16.2,16.1,16.3z"/>
		<path fill="#C5AA2F" d="M30.5,15.8c0-0.1,0-0.1,0.1-0.2c0.1-0.1,0.1-0.2,0.2-0.3c-0.1-0.1-0.2-0.1-0.3-0.2
			c-0.1-0.1-0.2-0.1-0.2-0.2c-0.1,0.1-0.1,0.2-0.2,0.3c0,0,0,0.1,0,0.1c0.1,0.1,0.1,0.1,0.1,0.2c0,0.1,0,0.2,0.1,0.3
			c0,0.2,0.1,0.3,0.1,0.5c0,0.1,0,0.1-0.1,0.1c-0.2,0-0.4,0-0.5,0c-0.1,0-0.1,0-0.1-0.1c0-0.1,0-0.2,0-0.4c0,0,0-0.1,0-0.1
			c0,0,0,0,0,0c-0.1,0.1-0.2,0.3-0.2,0.5c0,0,0,0.1-0.1,0.1c-0.1,0-0.1,0-0.2,0c-0.1,0-0.1,0-0.1-0.1c0-0.1,0-0.2,0.1-0.3
			c0,0,0,0,0,0c-0.1,0.1-0.2,0.2-0.2,0.4c0,0.1,0,0.1-0.1,0.1c-0.1,0-0.3,0-0.4,0c-0.2,0-0.2,0-0.1-0.2c0.1-0.2,0.1-0.2,0.1-0.3
			C28.1,16,28,16.2,28,16.3c0,0.1-0.1,0.1-0.1,0.1c-0.2,0-0.4,0-0.7,0c0-0.1,0.1-0.1,0.1-0.2c0.1-0.1,0-0.2,0-0.3
			c-0.1-0.2-0.3-0.3-0.6-0.2c-0.1,0-0.2,0-0.2,0.1c-0.1,0.1-0.1,0.2-0.2,0.3c0.2,0,0.4,0,0.4,0.3c-0.3,0-0.5,0-0.8,0
			c-0.1,0-0.1,0-0.1-0.1c0-0.2-0.1-0.4-0.2-0.5c-0.1-0.2-0.2-0.2-0.4,0c0,0,0,0.1-0.1,0.1c-0.1,0.2-0.2,0.4-0.2,0.6
			c-0.1,0.2,0,0.3,0.2,0.4c0.1,0,0.2,0,0.3,0c0,0,0.1,0,0.1,0c-0.1,0.1-0.2,0.2-0.3,0.3c-0.2,0.2-0.5,0.2-0.7,0.1c0,0-0.1-0.1-0.1,0
			c0,0,0,0.1,0,0.1c0.2,0.1,0.4,0.2,0.7,0.3c0.1,0,0.2,0,0.2,0c0.1,0,0.1-0.1,0.2-0.2c0.1-0.1,0.2-0.3,0.3-0.5
			c0-0.1,0.1-0.1,0.2-0.1c0.2,0,0.4,0,0.7,0c0.1,0,0.2,0,0.3-0.2c0,0,0,0,0-0.1c0,0,0.1,0.1,0.1,0.1c0,0.1,0.1,0.1,0.2,0.1
			c0.1,0,0.3,0,0.4,0c0.1,0,0.3,0,0.4-0.1c0.1,0.1,0.1,0.1,0.2,0.1c0.1,0,0.2,0,0.3,0c0.1,0,0.2,0,0.3-0.1c0,0.1,0.1,0.1,0.2,0.1
			c0.1,0,0.2,0,0.3,0c0.1,0,0.1,0,0.2-0.1c0,0.1,0.1,0.1,0.1,0.1c0.1,0,0.2,0,0.3,0c0.1,0,0.3,0,0.4,0c0.1,0,0.1,0,0.1-0.1
			c0-0.2,0.1-0.3,0.1-0.5C30.5,16.1,30.5,15.9,30.5,15.8z M25.4,16.5c-0.1,0-0.1,0-0.2,0c-0.1-0.1-0.1-0.2,0-0.3
			c0.1-0.1,0.1-0.1,0.2,0c0,0,0.1,0.1,0.1,0.2C25.5,16.4,25.5,16.5,25.4,16.5z"/>
		<path fill="#C5AA2F" d="M11.2,15.2c-0.1,0-0.2-0.1-0.3-0.2c-0.1,0-0.1-0.1-0.2-0.2c-0.1,0.1-0.1,0.2-0.2,0.3c0,0.1,0,0.1,0,0.1
			c0.1,0,0.1,0.1,0.1,0.2c0,0.2,0.1,0.4,0.1,0.6c0,0.1,0,0.2,0,0.3c0,0.1,0,0.1-0.1,0.1c-0.2,0-0.3,0-0.5,0c-0.1,0-0.1,0-0.2,0
			c0-0.1,0.1-0.2,0.1-0.3c-0.4,0-0.7-0.1-1-0.3c-0.1,0-0.1-0.1-0.2-0.1c-0.1,0-0.2,0-0.3,0.1c-0.1,0.1-0.2,0.2-0.2,0.3
			c0.2-0.1,0.6,0,0.8,0.2c-0.1,0.1-0.3,0.2-0.4,0.2c-0.3,0-0.5,0-0.8,0c-0.1,0-0.1,0-0.1-0.1c-0.1-0.2-0.2-0.3-0.2-0.5
			c0-0.1,0-0.1-0.2-0.1c0,0-0.1,0-0.1,0c-0.2,0.1-0.4,0.3-0.5,0.5c0,0.1-0.1,0.1-0.2,0.1c-0.2,0-0.3,0-0.5,0c-0.1,0-0.2,0-0.2-0.2
			c0-0.2-0.1-0.5-0.1-0.7c0-0.2,0-0.5-0.1-0.8c-0.1,0.1-0.1,0.1-0.2,0.2c-0.1,0.1-0.1,0.1-0.1,0.2c0,0.2,0,0.4,0.1,0.6
			c0,0.3,0.1,0.6,0.1,1c0,0.1,0,0.1,0.1,0.1c0.2,0,0.5,0,0.7,0c0.1,0,0.2,0,0.2-0.1c0.1-0.1,0.1-0.1,0.2-0.1
			c0.2,0.1,0.4,0.2,0.6,0.4c0.1,0.1,0.1,0,0.1-0.1c0-0.1,0.1-0.1,0.2-0.1c0.2,0,0.4,0,0.7,0c0.2,0,0.4,0,0.5-0.2
			c0.2-0.2,0.5-0.2,0.8-0.2c0,0,0.1,0,0.1,0.1c0,0.1,0,0.2,0,0.2c0.1,0,0.2,0,0.2,0c0,0,0,0,0.1,0c0.2,0,0.4,0,0.7,0
			c0.1,0,0.1,0,0.1-0.1c0-0.2,0.1-0.4,0.1-0.6c0-0.1,0-0.2,0-0.2c0-0.2,0-0.3,0.1-0.5c0,0,0.1-0.1,0.1-0.1
			C11.3,15.3,11.3,15.3,11.2,15.2z M7.4,16.5c-0.1-0.1-0.3-0.1-0.4-0.2c0.1-0.1,0.2-0.1,0.4-0.1c0,0,0.1,0,0.1,0.1
			c0,0.1,0.1,0.1,0.1,0.2C7.5,16.5,7.5,16.5,7.4,16.5z"/>
		<path fill="#C5AA2F" d="M36.7,15.9c-0.1,0-0.1,0-0.2,0c-0.2,0-0.4,0-0.6,0c-0.5,0-1,0-1.5,0c-0.1,0-0.1,0-0.2-0.1
			c0-0.1,0.1-0.1,0.2-0.2c0.2-0.1,0.4-0.2,0.7-0.3c0.2,0,0.3-0.1,0.4-0.3c0,0,0,0,0-0.1c0,0,0,0,0,0c-0.5,0.1-0.9,0.4-1.3,0.7
			c-0.1,0.1-0.1,0.1-0.1,0.2c-0.1,0.2-0.1,0.3,0.2,0.3c0.1,0,0.3,0,0.4,0c0.3,0,0.6,0,1,0c0.3,0,0.5,0,0.8,0c0.1,0,0.2,0,0.2,0.1
			c0,0.1,0.1,0.1,0,0.2c0,0.1-0.1,0-0.1,0c0,0,0,0,0,0c-0.9,0-1.8,0-2.7,0c-0.2,0-0.2,0-0.2-0.2c0-0.3-0.1-0.5-0.1-0.8
			c0-0.1,0-0.2-0.1-0.3c-0.1,0.1-0.1,0.2-0.2,0.3c0,0,0,0.1,0,0.1c0,0.1,0,0.1-0.1,0.1c-0.1,0.1-0.2,0.1-0.3,0.2
			c-0.1,0-0.1,0.1-0.2,0.2c-0.1,0.1-0.1,0.3-0.2,0.4c0,0,0,0.1,0,0.1c0.2,0,0.3,0.1,0.5,0.1c0.1,0,0.1,0,0.2-0.1c0,0,0-0.1,0.1-0.1
			c0,0,0-0.1,0.1-0.1c0,0.1,0,0.2,0.1,0.3c0,0.1,0.1,0.2,0.2,0.2c0,0,0.1,0,0.1,0c1,0,2,0,2.9,0c0,0,0.1,0,0.1,0c0,0,0.1,0,0.1-0.1
			c0.1-0.2,0.1-0.3,0.2-0.5C37,16.1,37,15.9,36.7,15.9z M33.2,16.3c-0.1,0-0.3,0-0.4-0.1c0.1-0.1,0.2-0.1,0.3-0.2
			c0.1-0.1,0.1-0.2,0.2-0.2C33.3,16,33.3,16.1,33.2,16.3C33.3,16.3,33.3,16.3,33.2,16.3z"/>
		<path fill="#C5AA2F" d="M23,15.6c0,0.1-0.1,0.1-0.1,0.1c-0.1,0.1-0.1,0.2,0,0.4c0.1,0.1,0.1,0.2,0.1,0.3c-0.3,0-0.7,0-1,0
			c-0.1,0-0.2,0-0.2-0.2c0-0.2-0.1-0.4-0.1-0.6c0-0.2,0-0.3-0.1-0.5c-0.1,0.1-0.1,0.2-0.2,0.3c0,0,0,0.1,0,0.1c0,0.1,0,0.1-0.1,0.1
			c-0.1,0.1-0.2,0.1-0.3,0.2c-0.1,0-0.1,0.1-0.2,0.2c-0.1,0.1-0.1,0.3-0.2,0.4c0,0.1,0,0.1,0.1,0.1c0.1,0,0.3,0.1,0.4,0.1
			c0.2,0,0.2,0,0.3-0.1c0-0.1,0.1-0.1,0.1-0.2c0,0,0,0.1,0,0.1c0,0,0,0.1,0,0.1c0,0.1,0.1,0.2,0.2,0.2c0.4,0,0.8,0,1.2,0
			c0.1,0,0.1,0,0.1-0.1c0-0.1,0-0.3,0.1-0.4C23.2,16.1,23.1,15.9,23,15.6z M21.5,16.3c-0.1,0-0.3,0-0.4-0.1c0.2-0.1,0.3-0.2,0.4-0.4
			C21.6,16,21.6,16.1,21.5,16.3C21.6,16.3,21.5,16.3,21.5,16.3z"/>
		<g>
			<path fill="#C5AA2F" d="M56.8,6.4C56,6.5,55.2,6.7,54.5,7c-0.7,0.2-1.4,0.5-1.9,1c-0.3,0.3-0.6,0.7-0.7,1.1
				c-0.1,0.4-0.1,0.9,0,1.3c0.1,0.2,0.1,0.4,0.2,0.7c0.1,0.2,0.2,0.5,0.3,0.7c0.1,0.2,0.2,0.4,0.3,0.5c0.1,0.2,0.2,0.3,0.3,0.5
				c0,0,0.1,0.1,0.1,0.1c0,0.1,0,0.1,0.1,0.1c0.4,0,0.9,0,1.3,0c0,0,0,0,0.1,0c-0.2-0.4-0.4-0.8-0.5-1.2c-0.2-0.5-0.3-1.1-0.3-1.7
				c0-0.3,0.1-0.7,0.3-1c0.2-0.2,0.4-0.4,0.6-0.6c0.5-0.3,1-0.5,1.5-0.7c0.3-0.1,0.5-0.1,0.8-0.2c0,0,0-0.1,0-0.1c0-0.2,0-0.4,0-0.7
				c0-0.1,0-0.3,0-0.4c0,0,0-0.1,0-0.1C56.9,6.4,56.8,6.4,56.8,6.4z"/>
			<path fill="#C5AA2F" d="M44.5,5.7c0.5,0.3,1,0.5,1.5,0.7c0.6,0.2,1.3,0.4,1.9,0.3c0.5,0,0.9-0.2,1.3-0.4c0.4-0.3,0.7-0.7,0.9-1.1
				c0.3-0.5,0.4-1,0.5-1.6C50.9,2.8,51,2.1,51,1.3c0,0,0,0,0,0c-0.3,0-0.7,0.1-1,0.1c-0.1,0-0.1,0-0.1,0.1c0,0,0,0,0,0
				c0,0.2-0.1,0.3-0.1,0.5c-0.1,0.3-0.2,0.6-0.3,0.9c-0.1,0.2-0.2,0.5-0.3,0.7c-0.1,0.2-0.3,0.4-0.5,0.6c-0.2,0.2-0.4,0.3-0.6,0.4
				c-0.5,0.2-0.9,0.2-1.4,0.1C46,4.7,45.5,4.6,45,4.3c-0.1,0-0.1-0.1-0.2-0.1c0,0,0,0,0,0C44.7,4.7,44.6,5.2,44.5,5.7
				C44.4,5.6,44.5,5.6,44.5,5.7z"/>
			<path fill="#C5AA2F" d="M51.9,6.4c0.3,0.2,0.6,0.2,0.9,0.2c0.5,0,0.9,0,1.4-0.1C55,6.3,55.9,6,56.7,5.6c0,0,0.1,0,0.1-0.1
				c-0.1-0.3-0.2-0.7-0.3-1c0,0,0,0-0.1,0c-0.5,0.1-0.9,0.3-1.4,0.3c-0.4,0.1-0.8,0.1-1.2,0c-0.4-0.1-0.8-0.3-1-0.8
				c-0.2-0.4-0.2-0.8-0.1-1.3c0-0.4,0.1-0.9,0.2-1.3c-0.4-0.1-0.8-0.1-1.1-0.2c-0.1,0-0.1,0-0.1,0.1c0,0,0,0,0,0.1
				c-0.2,0.7-0.4,1.3-0.5,2c0,0.3-0.1,0.6-0.1,0.9c0,0.4,0,0.8,0.1,1.1C51.3,5.9,51.5,6.2,51.9,6.4z"/>
			<path fill="#C5AA2F" d="M47.2,10.7c0.3-0.4,0.5-0.8,0.6-1.2c0.2-0.7,0.1-1.3-0.4-1.8c-0.3-0.3-0.6-0.5-1-0.7
				c-0.5-0.3-1.1-0.4-1.7-0.6c-0.1,0-0.3-0.1-0.4-0.1c-0.1,0.4-0.2,0.9-0.4,1.3c0,0,0.1,0,0.1,0c0.3,0.1,0.5,0.2,0.8,0.4
				c0.3,0.2,0.6,0.4,0.9,0.8c0.2,0.3,0.2,0.6,0.2,0.9c0,0.3-0.1,0.5-0.2,0.7c-0.1,0.3-0.3,0.6-0.5,0.8c-0.2,0.2-0.3,0.4-0.5,0.6
				c-0.3,0.4-0.7,0.8-1,1.1c0,0,0,0,0,0c0.5,0,1,0,1.4,0c0,0,0.1,0,0.1,0c0.1-0.1,0.2-0.2,0.3-0.3C46.1,12.1,46.7,11.5,47.2,10.7z"
				/>
			<path fill="#C5AA2F" d="M51.6,11.6c-0.2-0.4-0.5-0.7-0.9-1c-0.3-0.2-0.7-0.4-1.1-0.4c-0.3,0-0.6,0.1-0.8,0.2
				c-0.4,0.2-0.8,0.4-1.2,0.7c-0.4,0.4-0.8,0.8-1.2,1.2c-0.2,0.2-0.3,0.4-0.5,0.6c0,0,0,0.1-0.1,0.1c0,0,0,0,0,0c0.6,0,1.1,0,1.7,0
				c0,0,0.1,0,0.1,0c0.3-0.2,0.6-0.4,0.9-0.5c0.7-0.3,1.3-0.1,1.9,0.5c0,0,0.1,0.1,0.1,0.1c0.5,0,1.1,0,1.6,0c0,0,0,0,0.1,0
				c0,0,0,0,0,0C52.1,12.5,51.9,12,51.6,11.6z"/>
		</g>
	</g>
</g>
</svg>
