<?xml version="1.0" encoding="utf-8"?>
<!-- Generator: Adobe Illustrator 18.0.0, SVG Export Plug-In . SVG Version: 6.00 Build 0)  -->
<!DOCTYPE svg PUBLIC "-//W3C//DTD SVG 1.0//EN" "http://www.w3.org/TR/2001/REC-SVG-20010904/DTD/svg10.dtd">
<svg version="1.0" xmlns="http://www.w3.org/2000/svg" xmlns:xlink="http://www.w3.org/1999/xlink" x="0px" y="0px"
	 viewBox="0 0 63.5 63.5" enable-background="new 0 0 63.5 63.5" xml:space="preserve">
<g id="Layer_5">
</g>
<g id="Layer_1">
	<g>
		<path fill="#D4B02A" d="M47.2,48.9c-0.7,0-1.4-0.3-1.9-0.8l-7.1-7c-2.4,1.7-5.3,2.6-8.2,2.6c-8,0-14.5-6.5-14.5-14.5
			S22,14.6,30,14.6s14.5,6.5,14.5,14.5c0,2.9-0.9,5.8-2.6,8.2l7.1,7.1c0.5,0.5,0.8,1.2,0.8,1.9C49.8,47.7,48.6,48.9,47.2,48.9z
			 M30,19.9c-5.1,0-9.2,4.1-9.2,9.2s4.1,9.2,9.2,9.2s9.2-4.1,9.2-9.2S35.1,19.9,30,19.9z"/>
	</g>
	<g>
		<g>
			<path fill="#D2A837" d="M31.8,0C14.2,0,0,14.2,0,31.8s14.2,31.8,31.8,31.8s31.8-14.2,31.8-31.8S49.3,0,31.8,0z M31.8,59.5
				C16.4,59.5,4,47.1,4,31.8S16.4,4,31.8,4s27.8,12.5,27.8,27.8S47.1,59.5,31.8,59.5z"/>
		</g>
	</g>
</g>
<g id="Layer_4">
</g>
<g id="Layer_3">
</g>
<g id="Layer_2">
</g>
</svg>
