<?xml version="1.0" encoding="utf-8"?>
<!-- Generator: Adobe Illustrator 18.0.0, SVG Export Plug-In . SVG Version: 6.00 Build 0)  -->
<!DOCTYPE svg PUBLIC "-//W3C//DTD SVG 1.0//EN" "http://www.w3.org/TR/2001/REC-SVG-20010904/DTD/svg10.dtd">
<svg version="1.0" xmlns="http://www.w3.org/2000/svg" xmlns:xlink="http://www.w3.org/1999/xlink" x="0px" y="0px"
	 viewBox="0 0 63.5 63.5" enable-background="new 0 0 63.5 63.5" xml:space="preserve">
<g id="Layer_5">
</g>
<g id="Layer_1">
	<g>
		<path fill="#D4B02A" d="M58,48.6c0,6.2-5,11.3-11.3,11.3s-11.3-5-11.3-11.3c0-0.4,0-0.8,0.1-1.2L22.9,41c-2,1.9-4.7,3-7.7,3
			C9.1,44.1,4,39,4,32.8s5-11.3,11.3-11.3c3,0,5.7,1.2,7.7,3l12.7-6.3c0-0.4-0.1-0.8-0.1-1.2c0-6.2,5-11.2,11.3-11.2
			S58,10.8,58,17.1s-5,11.3-11.3,11.3c-3,0-5.7-1.2-7.7-3l-12.7,6.3c0,0.4,0.1,0.8,0.1,1.2s0,0.8-0.1,1.2l12.7,6.3
			c2-1.9,4.7-3,7.7-3C53,37.3,58,42.3,58,48.6z"/>
	</g>
</g>
<g id="Layer_4">
</g>
<g id="Layer_3">
</g>
<g id="Layer_2">
</g>
</svg>
