<?xml version="1.0" encoding="utf-8"?>
<!-- Generator: Adobe Illustrator 18.0.0, SVG Export Plug-In . SVG Version: 6.00 Build 0)  -->
<!DOCTYPE svg PUBLIC "-//W3C//DTD SVG 1.0//EN" "http://www.w3.org/TR/2001/REC-SVG-20010904/DTD/svg10.dtd">
<svg version="1.0" xmlns="http://www.w3.org/2000/svg" xmlns:xlink="http://www.w3.org/1999/xlink" x="0px" y="0px"
	 viewBox="0 0 63.5 63.5" enable-background="new 0 0 63.5 63.5" xml:space="preserve">
<g id="Layer_5">
</g>
<g id="Layer_1">
	<g>
		<path fill="#D4B02A" d="M61.3,22.6l-9.7,31.9c-0.9,3-4,5.3-7,5.3H12.1c-3.6,0-7.4-2.8-8.7-6.5c-0.6-1.6-0.6-3.1-0.1-4.5
			c0.1-0.7,0.2-1.4,0.2-2.3c0-0.6-0.3-1-0.2-1.4c0.1-0.8,0.9-1.4,1.4-2.4c1.1-1.8,2.3-4.6,2.6-6.4c0.2-0.7-0.2-1.4,0-2
			c0.2-0.7,0.8-1.2,1.2-1.8c0.9-1.6,2.2-4.7,2.4-6.4c0.1-0.7-0.3-1.5-0.1-2.1c0.2-0.8,1-1.2,1.5-1.9c0.8-1.2,2.3-4.5,2.5-6.4
			c0.1-0.6-0.3-1.2-0.2-1.8c0.1-0.7,1-1.4,1.5-2.2c1.5-2.2,1.8-7,6.2-5.7l0,0.1c0.6-0.1,1.2-0.3,1.8-0.3h26.8c1.7,0,3.1,0.7,4,2
			c0.9,1.3,1.1,2.9,0.6,4.6l-9.6,31.9c-1.7,5.4-2.6,6.6-7,6.6H8.5c-0.5,0-1,0.1-1.3,0.5c-0.3,0.4-0.3,0.7,0,1.5
			c0.7,2,3.1,2.5,5.1,2.5h32.4c1.3,0,2.8-0.7,3.2-2l10.5-34.7c0.2-0.7,0.2-1.4,0.2-2c0.8,0.3,1.5,0.8,2.1,1.5
			C61.5,19.4,61.8,21,61.3,22.6z M21.1,28.3h21.4c0.6,0,1.3-0.5,1.5-1.1l0.7-2.3c0.2-0.6-0.1-1.1-0.8-1.1H22.5
			c-0.6,0-1.3,0.5-1.5,1.1l-0.7,2.3C20.1,27.8,20.4,28.3,21.1,28.3z M24,19.3h21.4c0.6,0,1.3-0.5,1.5-1.1l0.7-2.2
			c0.2-0.6-0.1-1.1-0.8-1.1H25.4c-0.6,0-1.3,0.5-1.5,1.1l-0.7,2.2C23,18.8,23.4,19.3,24,19.3z"/>
	</g>
</g>
<g id="Layer_4">
</g>
<g id="Layer_3">
</g>
<g id="Layer_2">
</g>
</svg>
