<?xml version="1.0" encoding="utf-8"?>
<!-- Generator: Adobe Illustrator 18.0.0, SVG Export Plug-In . SVG Version: 6.00 Build 0)  -->
<!DOCTYPE svg PUBLIC "-//W3C//DTD SVG 1.0//EN" "http://www.w3.org/TR/2001/REC-SVG-20010904/DTD/svg10.dtd">
<svg version="1.0" xmlns="http://www.w3.org/2000/svg" xmlns:xlink="http://www.w3.org/1999/xlink" x="0px" y="0px"
	 viewBox="0 0 63.5 63.5" enable-background="new 0 0 63.5 63.5" xml:space="preserve">
<g id="Layer_5">
</g>
<g id="Layer_1">
	<g>
		<path fill="#D4B02A" d="M40.8,46.3H23.2c-3.2,0-5.4-2-5.4-5.2c0-4.5,1.1-11.5,7-11.5c0.6,0,3.3,2.8,7.2,2.8s6.6-2.8,7.2-2.8
			c5.9,0,7,7,7,11.5C46.2,44.3,44,46.3,40.8,46.3z M32,30.8c-4.3,0-7.7-3.5-7.7-7.7s3.5-7.7,7.7-7.7s7.7,3.5,7.7,7.7
			S36.3,30.8,32,30.8z"/>
	</g>
	<g>
		<g>
			<path fill="#D2A837" d="M31.8,0C14.2,0,0,14.2,0,31.8s14.2,31.8,31.8,31.8s31.8-14.2,31.8-31.8S49.3,0,31.8,0z M31.8,59.5
				C16.4,59.5,4,47.1,4,31.8S16.4,4,31.8,4s27.8,12.5,27.8,27.8S47.1,59.5,31.8,59.5z"/>
		</g>
	</g>
</g>
<g id="Layer_4">
</g>
<g id="Layer_3">
</g>
<g id="Layer_2">
</g>
</svg>
