<?xml version="1.0" encoding="utf-8"?>
<!-- Svg Vector Icons : http://www.onlinewebfonts.com/icon -->
<!DOCTYPE svg PUBLIC "-//W3C//DTD SVG 1.1//EN" "http://www.w3.org/Graphics/SVG/1.1/DTD/svg11.dtd">
<svg version="1.1" xmlns="http://www.w3.org/2000/svg" xmlns:xlink="http://www.w3.org/1999/xlink" x="0px" y="0px" viewBox="0 0 1000 1000" enable-background="new 0 0 1000 1000" xml:space="preserve">
<metadata> Svg Vector Icons : http://www.onlinewebfonts.com/icon </metadata>
<g><path d="M900.9,277.3H99.1c-49.2,0-89.1,39.9-89.1,89.1v267.3c0,49.2,39.9,89.1,89.1,89.1h801.8c49.2,0,89.1-39.9,89.1-89.1V366.4C990,317.2,950.1,277.3,900.9,277.3z M230.8,628.2L122.2,361h92.7l67.5,175.7L331.1,361h80.1l-75.4,267.2H230.8z M400,628.2L472.2,361h71.6l-71.6,267.2H400z M873.6,418l-15.9,57.8c-6.4,23.4-16.1,38.7-29,45.9c-12.9,7.2-36.4,10.8-70.5,10.8H639l-25.8,95.6h-71.6l51.5-190.8h71.6l-13.3,47.2h93.3c16.8,0,27.5-1.2,32.2-3.7c6.4-3.3,11.4-11.4,15-24.1l4.8-19.2c1.8-7.1,2.7-12.3,2.7-15.7c0-6.2-4.1-10.2-12.2-11.9c-3.5-0.6-10.9-0.8-22.2-0.8H600.8l13-48h190.9c27.2,0,46.2,2.1,57,6.3c10.8,4.2,16.2,12.6,16.2,25.1C877.8,398.8,876.4,407.3,873.6,418z"/></g>
</svg>